<?xml version="1.0" encoding="utf-8"?>
<!-- Generator: Adobe Illustrator 16.0.0, SVG Export Plug-In . SVG Version: 6.00 Build 0)  -->
<!DOCTYPE svg PUBLIC "-//W3C//DTD SVG 1.1//EN" "http://www.w3.org/Graphics/SVG/1.1/DTD/svg11.dtd">
<svg version="1.1" id="Layer_1" xmlns="http://www.w3.org/2000/svg" xmlns:xlink="http://www.w3.org/1999/xlink" x="0px" y="0px"
	 width="300px" height="100px" viewBox="0 0 300 100" enable-background="new 0 0 300 100" xml:space="preserve">
<g>
	<g>
		<g>
			<path d="M108.675,67.627c5.408,0,8.994-3.524,9.145-3.675l1.133-1.133l-1.133-1.133c-0.151-0.151-3.737-3.674-9.145-3.674
				c-3.761,0-7.167,3.3-7.542,3.674L100,62.819l1.133,1.133C101.508,64.327,104.915,67.627,108.675,67.627z M108.675,61.217
				c2.271,0,4.152,0.854,5.37,1.607c-1.21,0.752-3.08,1.598-5.37,1.598c-1.329,0-2.813-0.817-3.908-1.603
				C105.862,62.034,107.347,61.217,108.675,61.217z"/>
			<path d="M119.892,50c3.535,0,6.41-2.875,6.41-6.41c0-3.535-2.875-6.41-6.41-6.41c-3.535,0-6.41,2.875-6.41,6.41
				C113.482,47.125,116.357,50,119.892,50z M119.892,40.386c1.768,0,3.205,1.438,3.205,3.205c0,1.768-1.438,3.205-3.205,3.205
				c-1.767,0-3.205-1.438-3.205-3.205C116.688,41.823,118.125,40.386,119.892,40.386z"/>
			<path d="M133.512,34.777c2.65,0,4.807-2.157,4.807-4.807c0-2.651-2.157-4.807-4.807-4.807s-4.807,2.157-4.807,4.807
				C128.705,32.621,130.862,34.777,133.512,34.777z M133.512,28.368c0.884,0,1.603,0.718,1.603,1.603
				c0,0.885-0.718,1.603-1.603,1.603s-1.603-0.718-1.603-1.603C131.91,29.086,132.628,28.368,133.512,28.368z"/>
			<path d="M103.868,93.265c0-1.768,1.438-3.204,3.205-3.204h8.012c2.65,0,4.808-2.157,4.808-4.809c0-2.65-2.157-4.807-4.808-4.807
				v3.205c0.885,0,1.603,0.717,1.603,1.602s-0.718,1.604-1.603,1.604h-8.012c-3.535,0-6.41,2.874-6.41,6.409s2.875,6.409,6.41,6.409
				h32.048v-3.205h-32.048C105.305,96.469,103.868,95.032,103.868,93.265z"/>
			<rect x="129.506" y="90.061" width="11.217" height="3.204"/>
			<path d="M197.007,72.434h1.402v-1.603c0-2.063-1.233-6.374-5.95-7.944l-14.881-4.465V6.735c0-3.535-2.875-6.41-6.41-6.41
				s-6.409,2.875-6.409,6.41v51.751l-14.928,4.416c-4.669,1.555-5.903,5.867-5.903,7.929v1.603h1.402l-2.995,25.451l3.182,0.375
				l3.04-25.826h1.683l-1.503,25.544l3.198,0.188l1.516-25.731h1.694v25.639h3.204V72.434h1.603v25.639h3.205V72.434h1.603v25.639
				h3.204V72.434h1.604v25.639h3.205V72.434h1.602v25.639h3.205V72.434h1.603v25.639h3.205V72.434h1.603v25.639h3.205V72.434h1.693
				l1.514,25.732l3.199-0.187l-1.504-25.546h1.684l3.039,25.826L200,97.885L197.007,72.434z M167.964,6.736
				c0-1.768,1.437-3.205,3.204-3.205s3.205,1.438,3.205,3.205v41.662h-6.409V6.736z M167.964,51.603h6.409v6.462l-6.409-0.043
				V51.603z M147.453,69.229c0.402-1.146,1.309-2.592,3.344-3.271l15.799-4.74h9.145l15.752,4.725
				c2.064,0.688,2.981,2.142,3.387,3.287H147.453z"/>
			<path d="M140.723,59.613L140.723,59.613c-0.362,0.001-8.913,0.063-12.55,5.521c-2.708,4.062-3.438,11.638-3.468,11.957
				l-0.162,1.751h1.758c0.29,0,7.115-0.042,10.748-3.675c4.448-4.447,5.24-13.438,5.271-13.82l0.143-1.734H140.723z M134.783,72.903
				c-1.728,1.728-4.713,2.365-6.644,2.599c0.402-2.565,1.256-6.428,2.7-8.588c1.828-2.744,5.722-3.648,8.041-3.947
				C138.387,65.902,137.17,70.516,134.783,72.903z"/>
			<rect x="108.675" y="80.445" width="3.205" height="3.205"/>
			<rect x="108.675" y="74.036" width="3.205" height="3.204"/>
		</g>
	</g>
</g>
</svg>
