<?xml version="1.0" encoding="utf-8"?>
<!-- Generator: Adobe Illustrator 16.0.0, SVG Export Plug-In . SVG Version: 6.00 Build 0)  -->
<!DOCTYPE svg PUBLIC "-//W3C//DTD SVG 1.1//EN" "http://www.w3.org/Graphics/SVG/1.1/DTD/svg11.dtd">
<svg version="1.1" id="Layer_1" xmlns="http://www.w3.org/2000/svg" xmlns:xlink="http://www.w3.org/1999/xlink" x="0px" y="0px"
	 width="170px" height="170px" viewBox="0 0 170 170" enable-background="new 0 0 170 170" xml:space="preserve">
<g>
	
		<path fill="#F2F2F2" stroke="#333333" stroke-width="2" stroke-linecap="round" stroke-linejoin="round" stroke-miterlimit="10" d="
		M85,167.5L85,167.5c45.563,0,82.5-36.938,82.5-82.5v-0.001C167.5,39.437,130.563,2.5,85,2.5l0,0C39.437,2.5,2.5,39.437,2.5,84.999
		V85C2.5,130.563,39.437,167.5,85,167.5z"/>
</g>
<g>
	<g>
		<defs>
			<path id="SVGID_1_" d="M85,167.5L85,167.5c45.563,0,82.5-36.938,82.5-82.5v-0.001C167.5,39.437,130.563,2.5,85,2.5l0,0
				C39.437,2.5,2.5,39.437,2.5,84.999V85C2.5,130.563,39.437,167.5,85,167.5z"/>
		</defs>
		<clipPath id="SVGID_2_">
			<use xlink:href="#SVGID_1_"  overflow="visible"/>
		</clipPath>
		<g opacity="0.1" clip-path="url(#SVGID_2_)">
			<path fill="#333333" d="M98.965,65.521h-6.371V27.499c0-2.205-1.794-4-4-4h-7.188c-2.206,0-4,1.795-4,4v38.022h-6.371
				c-12.683,0-23,10.318-23,23v33.469v11.509c0,0.552,0.447,1,1,1h71.93c0.553,0,1-0.448,1-1V121.99V88.521
				C121.965,75.84,111.647,65.521,98.965,65.521z"/>
			<path fill="#333333" d="M99.67,66.227h-6.371V28.204c0-2.205-1.794-4-4-4h-7.188c-2.206,0-4,1.795-4,4v38.022H71.74
				c-12.683,0-23,10.319-23,23v33.469v11.509c0,0.552,0.447,1,1,1h71.93c0.553,0,1-0.448,1-1v-11.509V89.227
				C122.67,76.545,112.353,66.227,99.67,66.227z"/>
			<path fill="#333333" d="M100.376,66.933h-6.371V28.91c0-2.205-1.794-4-4-4h-7.188c-2.206,0-4,1.795-4,4v38.023h-6.371
				c-12.683,0-23,10.318-23,23v33.469v11.509c0,0.552,0.447,1,1,1h71.93c0.552,0,1-0.448,1-1v-11.509V89.933
				C123.376,77.25,113.058,66.933,100.376,66.933z"/>
			<path fill="#333333" d="M101.081,67.638H94.71V29.615c0-2.206-1.794-4-4-4h-7.188c-2.206,0-4,1.795-4,4v38.022h-6.372
				c-12.682,0-23,10.318-23,23v33.469v11.509c0,0.552,0.447,1,1,1h71.93c0.553,0,1-0.448,1-1v-11.509V90.638
				C124.081,77.956,113.764,67.638,101.081,67.638z"/>
			<path fill="#333333" d="M101.786,68.343h-6.371V30.32c0-2.205-1.794-4-4-4h-7.188c-2.206,0-4,1.795-4,4v38.022h-6.371
				c-12.683,0-23,10.318-23,23v33.469v11.509c0,0.552,0.447,1,1,1h71.93c0.553,0,1-0.448,1-1v-11.509V91.343
				C124.786,78.661,114.469,68.343,101.786,68.343z"/>
			<path fill="#333333" d="M102.492,69.048h-6.371V31.026c0-2.205-1.794-4-4-4h-7.188c-2.206,0-4,1.795-4,4v38.022h-6.372
				c-12.683,0-23,10.319-23,23v33.469v11.508c0,0.553,0.447,1.001,1,1.001h71.929c0.554,0,1.001-0.448,1.001-1.001v-11.508V92.049
				C125.492,79.367,115.174,69.048,102.492,69.048z"/>
			<path fill="#333333" d="M103.197,69.754h-6.371V31.731c0-2.206-1.794-4-4-4h-7.188c-2.207,0-4,1.795-4,4v38.022h-6.371
				c-12.683,0-23,10.318-23,23v33.469v11.509c0,0.552,0.448,1,1,1h71.93c0.553,0,1-0.448,1-1v-11.509V92.754
				C126.197,80.072,115.88,69.754,103.197,69.754z"/>
			<path fill="#333333" d="M103.902,70.459h-6.371V32.437c0-2.205-1.794-4-4-4h-7.188c-2.206,0-4,1.795-4,4v38.022h-6.371
				c-12.683,0-23,10.318-23,23v33.469v11.509c0,0.552,0.447,1,1,1h71.93c0.553,0,1-0.448,1-1v-11.509V93.459
				C126.902,80.777,116.585,70.459,103.902,70.459z"/>
			<path fill="#333333" d="M104.607,71.164h-6.371V33.142c0-2.205-1.794-4-4-4h-7.188c-2.206,0-4,1.795-4,4v38.022h-6.372
				c-12.683,0-23,10.318-23,23v33.469v11.509c0,0.552,0.447,1,1,1h71.93c0.553,0,1-0.448,1-1v-11.509V94.164
				C127.607,81.482,117.29,71.164,104.607,71.164z"/>
			<path fill="#333333" d="M105.313,71.87h-6.371V33.847c0-2.205-1.794-4-4-4h-7.188c-2.206,0-4,1.795-4,4V71.87h-6.372
				c-12.682,0-23,10.318-23,23v33.469v11.509c0,0.552,0.448,1,1,1h71.929c0.554,0,1.001-0.448,1.001-1v-11.509V94.869
				C128.313,82.188,117.995,71.87,105.313,71.87z"/>
			<path fill="#333333" d="M106.019,72.575h-6.371V34.553c0-2.205-1.794-4-4-4H88.46c-2.206,0-4,1.795-4,4v38.022h-6.371
				c-12.683,0-23,10.318-23,23v33.469v11.509c0,0.552,0.447,1,1,1h71.93c0.553,0,1-0.448,1-1v-11.509V95.575
				C129.019,82.894,118.701,72.575,106.019,72.575z"/>
			<path fill="#333333" d="M106.724,73.28h-6.371V35.258c0-2.205-1.794-4-4-4h-7.188c-2.206,0-4,1.795-4,4V73.28h-6.371
				c-12.683,0-23,10.318-23,23v33.469v11.509c0,0.552,0.448,1,1,1h71.93c0.553,0,1-0.448,1-1v-11.509V96.28
				C129.724,83.599,119.406,73.28,106.724,73.28z"/>
			<path fill="#333333" d="M107.43,73.986h-6.371V35.963c0-2.205-1.794-4-4.001-4H89.87c-2.206,0-4,1.795-4,4v38.023H79.5
				c-12.683,0-23,10.318-23,23v33.469v11.509c0,0.553,0.447,1,1,1h71.93c0.552,0,0.999-0.447,0.999-1v-11.509V96.985
				C130.429,84.304,120.111,73.986,107.43,73.986z"/>
			<path fill="#333333" d="M108.135,74.691h-6.371V36.669c0-2.205-1.794-4-4-4h-7.188c-2.206,0-4,1.795-4,4v38.022h-6.371
				c-12.683,0-23,10.318-23,23v33.469v11.509c0,0.552,0.447,1,1,1h71.93c0.553,0,1-0.448,1-1V131.16V97.691
				C131.135,85.01,120.817,74.691,108.135,74.691z"/>
			<path fill="#333333" d="M108.84,75.396h-6.371V37.374c0-2.205-1.794-4-4-4h-7.188c-2.206,0-4,1.794-4,4v38.022h-6.371
				c-12.683,0-23,10.319-23,23v33.469v11.51c0,0.551,0.447,0.999,1,0.999h71.929c0.553,0,1-0.448,1-0.999v-11.51V98.396
				C131.84,85.715,121.522,75.396,108.84,75.396z"/>
			<path fill="#333333" d="M109.546,76.102h-6.372V38.079c0-2.205-1.794-4-4-4h-7.188c-2.206,0-4,1.795-4,4v38.023h-6.371
				c-12.682,0-23,10.318-23,23v33.469v11.51c0,0.551,0.447,1,1,1h71.929c0.554,0,1-0.449,1-1v-11.51V99.102
				C132.545,86.42,122.228,76.102,109.546,76.102z"/>
			<path fill="#333333" d="M110.251,76.807h-6.372V38.784c0-2.205-1.793-4-3.999-4h-7.188c-2.206,0-4,1.795-4,4v38.023h-6.372
				c-12.683,0-23,10.319-23,23v33.468v11.51c0,0.552,0.447,1,1,1h71.93c0.553,0,1-0.448,1-1v-11.51V99.808
				C133.251,87.126,122.934,76.807,110.251,76.807z"/>
			<path fill="#333333" d="M110.956,77.512h-6.371V39.49c0-2.205-1.794-4-4-4h-7.188c-2.206,0-4,1.795-4,4v38.022h-6.372
				c-12.683,0-23,10.318-23,23v33.469v11.509c0,0.552,0.447,1,1,1h71.93c0.553,0,1-0.448,1-1v-11.509v-33.469
				C133.956,87.83,123.639,77.512,110.956,77.512z"/>
			<path fill="#333333" d="M111.662,78.218h-6.372V40.196c0-2.206-1.794-4-3.999-4h-7.188c-2.206,0-4,1.794-4,4v38.022h-6.371
				c-12.683,0-23,10.318-23,23.001v33.469v11.508c0,0.552,0.447,1.001,1,1.001h71.93c0.552,0,0.999-0.449,0.999-1.001v-11.508
				v-33.469C134.661,88.536,124.344,78.218,111.662,78.218z"/>
			<path fill="#333333" d="M112.367,78.924h-6.371V40.901c0-2.206-1.795-4.001-4.001-4.001h-7.187c-2.206,0-4,1.795-4,4.001v38.022
				h-6.372c-12.683,0-23,10.317-23,23v33.469v11.509c0,0.552,0.447,1,1,1h71.93c0.553,0,1-0.448,1-1v-11.509v-33.469
				C135.367,89.241,125.05,78.924,112.367,78.924z"/>
			<path fill="#333333" d="M113.072,79.629h-6.371V41.606c0-2.206-1.794-4-4-4h-7.188c-2.206,0-4,1.795-4,4v38.022h-6.371
				c-12.683,0-23,10.318-23,23v33.469v11.509c0,0.552,0.448,1,1,1h71.93c0.553,0,1-0.448,1-1v-11.509v-33.469
				C136.072,89.947,125.755,79.629,113.072,79.629z"/>
			<path fill="#333333" d="M113.777,80.334h-6.371V42.312c0-2.205-1.793-4-4-4h-7.188c-2.206,0-4,1.795-4,4v38.022h-6.371
				c-12.683,0-23,10.318-23,23v33.469v11.509c0,0.552,0.448,1.001,1,1.001h71.929c0.554,0,1.001-0.449,1.001-1.001v-11.509v-33.469
				C136.778,90.652,126.46,80.334,113.777,80.334z"/>
			<path fill="#333333" d="M114.482,81.04h-6.37V43.017c0-2.205-1.794-4-4-4h-7.188c-2.206,0-4,1.795-4,4V81.04h-6.371
				c-12.683,0-23,10.317-23,22.999v33.47v11.508c0,0.552,0.447,1.001,1,1.001h71.929c0.554,0,1.001-0.449,1.001-1.001v-11.508
				v-33.47C137.483,91.357,127.166,81.04,114.482,81.04z"/>
			<path fill="#333333" d="M115.188,81.745h-6.371V43.723c0-2.206-1.794-4-4-4H97.63c-2.206,0-4,1.795-4,4v38.022h-6.371
				c-12.683,0-23,10.318-23,23v33.469v11.509c0,0.552,0.447,1,1,1h71.93c0.553,0,1-0.448,1-1v-11.509v-33.469
				C138.188,92.063,127.871,81.745,115.188,81.745z"/>
			<path fill="#333333" d="M115.894,82.45h-6.371V44.428c0-2.205-1.794-4-4-4h-7.188c-2.206,0-4,1.795-4,4V82.45h-6.371
				c-12.683,0-23,10.318-23,23v33.469v11.509c0,0.552,0.447,1,1,1h71.93c0.553,0,1-0.448,1-1v-11.509V105.45
				C138.894,92.769,128.576,82.45,115.894,82.45z"/>
			<path fill="#333333" d="M116.599,83.156h-6.371V45.133c0-2.205-1.794-4-4-4H99.04c-2.206,0-4,1.795-4,4v38.023h-6.371
				c-12.682,0-23,10.318-23,23v33.469v11.509c0,0.552,0.447,1,1,1h71.93c0.553,0,1-0.448,1-1v-11.509v-33.469
				C139.599,93.474,129.281,83.156,116.599,83.156z"/>
			<path fill="#333333" d="M117.305,83.861h-6.371V45.839c0-2.205-1.794-4-4-4h-7.188c-2.206,0-4,1.795-4,4v38.022h-6.371
				c-12.683,0-23,10.318-23,23v33.469v11.509c0,0.552,0.447,1,1,1h71.93c0.553,0,1-0.448,1-1V140.33v-33.469
				C140.305,94.18,129.987,83.861,117.305,83.861z"/>
			<path fill="#333333" d="M118.01,84.566h-6.371V46.544c0-2.206-1.794-4-4-4h-7.188c-2.206,0-4,1.795-4,4v38.022H90.08
				c-12.683,0-23,10.318-23,23v33.469v11.509c0,0.552,0.447,1,1,1h71.93c0.553,0,1-0.448,1-1v-11.509v-33.469
				C141.01,94.885,130.692,84.566,118.01,84.566z"/>
			<path fill="#333333" d="M118.715,85.272h-6.371V47.249c0-2.205-1.794-4-4-4h-7.188c-2.206,0-4,1.795-4,4v38.023h-6.371
				c-12.683,0-23,10.318-23,23v33.469v11.509c0,0.552,0.447,1,1,1h71.93c0.553,0,1-0.448,1-1V141.74v-33.469
				C141.715,95.59,131.397,85.272,118.715,85.272z"/>
			<path fill="#333333" d="M119.421,85.978h-6.371V47.955c0-2.205-1.794-4-4-4h-7.188c-2.206,0-4,1.795-4,4v38.022h-6.371
				c-12.683,0-23,10.318-23,23v33.469v11.509c0,0.552,0.447,1,1,1h71.93c0.553,0,1-0.448,1-1v-11.509v-33.469
				C142.421,96.296,132.104,85.978,119.421,85.978z"/>
			<path fill="#333333" d="M120.126,86.683h-6.371V48.66c0-2.205-1.794-4-4-4h-7.188c-2.206,0-4,1.795-4,4v38.022h-6.371
				c-12.683,0-23,10.318-23,23v33.469v11.509c0,0.552,0.447,1,1,1h71.93c0.553,0,1-0.448,1-1v-11.509v-33.469
				C143.126,97.001,132.809,86.683,120.126,86.683z"/>
			<path fill="#333333" d="M120.831,87.388h-6.371V49.365c0-2.205-1.794-4-4-4h-7.188c-2.206,0-4,1.795-4,4v38.022h-6.371
				c-12.682,0-23,10.318-23,23v33.469v11.509c0,0.552,0.447,1,1,1h71.929c0.553,0,1-0.448,1-1v-11.509v-33.469
				C143.831,97.706,133.514,87.388,120.831,87.388z"/>
			<path fill="#333333" d="M121.536,88.094h-6.371V50.07c0-2.205-1.794-4-3.999-4h-7.188c-2.205,0-4,1.795-4,4v38.023h-6.37
				c-12.683,0-23,10.317-23,23v33.469v11.508c0,0.552,0.447,1,1,1h71.929c0.553,0,1-0.448,1-1v-11.508v-33.469
				C144.536,98.411,134.219,88.094,121.536,88.094z"/>
			<path fill="#333333" d="M122.241,88.799h-6.371V50.775c0-2.205-1.794-4-3.999-4h-7.188c-2.207,0-4,1.795-4,4v38.023h-6.371
				c-12.683,0-23,10.317-23,23v33.468v11.509c0,0.552,0.447,1,1,1h71.93c0.553,0,1-0.448,1-1v-11.509v-33.468
				C145.242,99.116,134.924,88.799,122.241,88.799z"/>
			<path fill="#333333" d="M122.947,89.504h-6.371V51.481c0-2.205-1.794-4-4-4h-7.188c-2.206,0-4,1.795-4,4v38.022h-6.371
				c-12.683,0-23,10.318-23,23v33.469v11.509c0,0.552,0.448,1,1,1h71.929c0.553,0,1-0.448,1-1v-11.509v-33.469
				C145.947,99.822,135.63,89.504,122.947,89.504z"/>
			<path fill="#333333" d="M123.652,90.209h-6.371V52.187c0-2.205-1.793-4-4-4h-7.188c-2.205,0-4,1.794-4,4v38.022h-6.371
				c-12.683,0-23,10.318-23,23v33.47v11.509c0,0.552,0.447,0.999,1,0.999h71.93c0.552,0,0.999-0.447,0.999-0.999v-11.509v-33.47
				C146.652,100.527,136.336,90.209,123.652,90.209z"/>
			<path fill="#333333" d="M124.357,90.915h-6.37V52.892c0-2.205-1.794-4-4.001-4H106.8c-2.207,0-4.001,1.795-4.001,4v38.023h-6.37
				c-12.683,0-23,10.317-23,22.999v33.469v11.51c0,0.551,0.447,0.999,1,0.999h71.929c0.553,0,1.001-0.448,1.001-0.999v-11.51
				v-33.469C147.358,101.232,137.041,90.915,124.357,90.915z"/>
			<path fill="#333333" d="M125.063,91.62h-6.371V53.598c0-2.205-1.794-4-4-4h-7.188c-2.206,0-4,1.795-4,4V91.62h-6.371
				c-12.683,0-23,10.318-23,23v33.47v11.508c0,0.553,0.448,1,1,1h71.929c0.553,0,1-0.447,1-1V148.09v-33.47
				C148.063,101.938,137.746,91.62,125.063,91.62z"/>
			<path fill="#333333" d="M125.769,92.326h-6.371V54.303c0-2.205-1.794-4-3.999-4h-7.188c-2.206,0-3.999,1.795-3.999,4v38.023
				H97.84c-12.684,0-23.001,10.317-23.001,22.999v33.469v11.509c0,0.552,0.447,1,1,1h71.929c0.554,0,1.001-0.448,1.001-1v-11.509
				v-33.469C148.77,102.644,138.451,92.326,125.769,92.326z"/>
			<path fill="#333333" d="M126.475,93.031h-6.372V55.008c0-2.205-1.794-4-3.999-4h-7.188c-2.206,0-4,1.795-4,4v38.023h-6.371
				c-12.683,0-23,10.317-23,22.999v33.47v11.508c0,0.553,0.447,1,1,1h71.929c0.554,0,1.001-0.447,1.001-1V149.5v-33.47
				C149.475,103.349,139.156,93.031,126.475,93.031z"/>
			<path fill="#333333" d="M127.18,93.736h-6.371V55.713c0-2.205-1.794-4-4-4h-7.188c-2.206,0-4,1.795-4,4v38.023H99.25
				c-12.683,0-23,10.318-23,23v33.469v11.509c0,0.552,0.447,1,1,1h71.93c0.553,0,1-0.448,1-1v-11.509v-33.469
				C150.18,104.055,139.862,93.736,127.18,93.736z"/>
			<path fill="#333333" d="M127.885,94.442h-6.37V56.419c0-2.205-1.795-4-4.001-4h-7.188c-2.205,0-4,1.795-4,4v38.023h-6.371
				c-12.683,0-23,10.317-23,22.999v33.469v11.51c0,0.551,0.447,1,1,1h71.929c0.553,0,1.001-0.449,1.001-1v-11.51v-33.469
				C150.886,104.76,140.568,94.442,127.885,94.442z"/>
			<path fill="#333333" d="M128.59,95.146h-6.371V57.124c0-2.205-1.794-4-4-4h-7.188c-2.205,0-3.999,1.795-3.999,4v38.022h-6.371
				c-12.683,0-23,10.318-23,23.001v33.469v11.508c0,0.553,0.447,1.001,1,1.001h71.93c0.552,0,0.999-0.448,0.999-1.001v-11.508
				v-33.469C151.59,105.465,141.273,95.146,128.59,95.146z"/>
			<path fill="#333333" d="M129.295,95.852h-6.371V57.829c0-2.205-1.793-4-4-4h-7.188c-2.205,0-4,1.794-4,4v38.022h-6.371
				c-12.682,0-22.999,10.318-22.999,23v33.469v11.51c0,0.551,0.447,1,1,1h71.929c0.553,0,1-0.449,1-1v-11.51v-33.469
				C152.295,106.17,141.979,95.852,129.295,95.852z"/>
			<path fill="#333333" d="M130.001,96.558h-6.371V58.535c0-2.205-1.794-4-4-4h-7.188c-2.206,0-4,1.795-4,4v38.023h-6.371
				c-12.683,0-23,10.318-23,23v33.469v11.509c0,0.552,0.447,1,1,1h71.93c0.553,0,1-0.448,1-1v-11.509v-33.469
				C153.001,106.876,142.684,96.558,130.001,96.558z"/>
			<path fill="#333333" d="M130.707,97.264h-6.371V59.24c0-2.205-1.794-4-4-4h-7.188c-2.207,0-4,1.795-4,4v38.023h-6.371
				c-12.684,0-23,10.318-23,23v33.469v11.508c0,0.553,0.447,1,1,1h71.93c0.553,0,1-0.447,1-1v-11.508v-33.469
				C153.707,107.582,143.39,97.264,130.707,97.264z"/>
			<path fill="#333333" d="M131.412,97.969h-6.371V59.945c0-2.205-1.794-4-4-4h-7.188c-2.206,0-4,1.795-4,4v38.023h-6.371
				c-12.684,0-23,10.317-23,23v33.469v11.508c0,0.553,0.448,1,1,1h71.93c0.553,0,1-0.447,1-1v-11.508v-33.469
				C154.412,108.286,144.094,97.969,131.412,97.969z"/>
			<path fill="#333333" d="M132.117,98.674h-6.371V60.65c0-2.205-1.794-4-4-4h-7.188c-2.206,0-4,1.794-4,4v38.023h-6.371
				c-12.683,0-23,10.318-23,23v33.469v11.509c0,0.552,0.448,1,1,1h71.93c0.553,0,1-0.448,1-1v-11.509v-33.469
				C155.117,108.992,144.8,98.674,132.117,98.674z"/>
			<path fill="#333333" d="M132.822,99.379h-6.371V61.356c0-2.205-1.794-4-4-4h-7.188c-2.206,0-4,1.795-4,4v38.022h-6.371
				c-12.682,0-23,10.318-23,23v33.469v11.509c0,0.552,0.447,1,1,1h71.929c0.553,0,1-0.448,1-1v-11.509v-33.469
				C155.822,109.697,145.506,99.379,132.822,99.379z"/>
			<path fill="#333333" d="M133.528,100.085h-6.371V62.063c0-2.206-1.794-4-4-4h-7.188c-2.206,0-4,1.795-4,4v38.022h-6.371
				c-12.683,0-23,10.317-23,23v33.469v11.509c0,0.551,0.447,1,1,1h71.93c0.552,0,1-0.449,1-1v-11.509v-33.469
				C156.528,110.402,146.211,100.085,133.528,100.085z"/>
			<path fill="#333333" d="M134.233,100.79h-6.371V62.768c0-2.205-1.794-4-4-4h-7.188c-2.206,0-4,1.795-4,4v38.022h-6.371
				c-12.683,0-23,10.318-23,23v33.469v11.509c0,0.552,0.447,1,1,1h71.93c0.553,0,1-0.448,1-1v-11.509V123.79
				C157.233,111.108,146.916,100.79,134.233,100.79z"/>
			<path fill="#333333" d="M134.938,101.495h-6.371V63.473c0-2.206-1.794-4-4-4h-7.188c-2.206,0-4,1.794-4,4v38.022h-6.371
				c-12.683,0-23,10.317-23,23v33.469v11.509c0,0.552,0.447,1,1,1h71.93c0.553,0,1-0.448,1-1v-11.509v-33.469
				C157.938,111.813,147.621,101.495,134.938,101.495z"/>
			<path fill="#333333" d="M135.644,102.201h-6.37V64.178c0-2.205-1.795-4-4-4h-7.188c-2.207,0-4,1.795-4,4v38.023h-6.372
				c-12.683,0-23,10.317-23,22.999v33.469v11.509c0,0.553,0.447,1,1,1h71.929c0.554,0,1.001-0.447,1.001-1v-11.509V125.2
				C158.645,112.519,148.326,102.201,135.644,102.201z"/>
			<path fill="#333333" d="M136.35,102.906h-6.371V64.884c0-2.205-1.794-4-4-4h-7.188c-2.206,0-4,1.795-4,4v38.022h-6.371
				c-12.683,0-23,10.318-23,23v33.469v11.509c0,0.552,0.447,1,1,1h71.93c0.553,0,1-0.448,1-1v-11.509v-33.469
				C159.35,113.225,149.032,102.906,136.35,102.906z"/>
			<path fill="#333333" d="M137.055,103.611h-6.371V65.589c0-2.205-1.794-4-4-4h-7.188c-2.206,0-4,1.795-4,4v38.022h-6.371
				c-12.683,0-23,10.318-23,23v33.469v11.509c0,0.552,0.447,1,1,1h71.93c0.553,0,1-0.448,1-1V160.08v-33.469
				C160.055,113.93,149.737,103.611,137.055,103.611z"/>
			<path fill="#333333" d="M137.76,104.316h-6.371V66.294c0-2.206-1.794-4-4-4h-7.188c-2.206,0-4,1.794-4,4v38.022h-6.371
				c-12.683,0-23,10.318-23,23v33.469v11.509c0,0.552,0.447,1,1,1h71.93c0.553,0,1-0.448,1-1v-11.509v-33.469
				C160.76,114.635,150.442,104.316,137.76,104.316z"/>
			<path fill="#333333" d="M138.466,105.021h-6.371V67c0-2.206-1.794-4-4.001-4h-7.187c-2.206,0-4,1.794-4,4v38.022h-6.372
				c-12.682,0-22.999,10.318-22.999,23.001v33.469V173c0,0.551,0.447,1,1,1h71.93c0.553,0,1-0.449,1-1v-11.509v-33.469
				C161.466,115.34,151.148,105.021,138.466,105.021z"/>
			<path fill="#333333" d="M139.171,105.728H132.8V67.705c0-2.205-1.794-4-4-4h-7.188c-2.206,0-4,1.795-4,4v38.022h-6.371
				c-12.683,0-22.999,10.317-22.999,23.001v33.468v11.509c0,0.552,0.446,1,1,1h71.929c0.553,0,1.001-0.448,1.001-1v-11.509v-33.468
				C162.172,116.045,151.854,105.728,139.171,105.728z"/>
			<path fill="#333333" d="M139.877,106.434h-6.372V68.41c0-2.205-1.794-4-4-4h-7.188c-2.206,0-4,1.795-4,4v38.023h-6.371
				c-12.683,0-22.999,10.317-22.999,23v33.468v11.509c0,0.552,0.446,1,1,1h71.93c0.552,0,1-0.448,1-1v-11.509v-33.468
				C162.877,116.751,152.559,106.434,139.877,106.434z"/>
			<path fill="#333333" d="M140.581,107.138h-6.371V69.115c0-2.205-1.794-4-4-4h-7.188c-2.206,0-4,1.795-4,4v38.022h-6.371
				c-12.683,0-22.999,10.318-22.999,23v33.47v11.508c0,0.552,0.446,1,1,1h71.929c0.553,0,1-0.448,1-1v-11.508v-33.47
				C163.581,117.456,153.264,107.138,140.581,107.138z"/>
			<path fill="#333333" d="M141.287,107.844h-6.371V69.821c0-2.206-1.794-4-4-4h-7.188c-2.206,0-4,1.794-4,4v38.023h-6.371
				c-12.683,0-23,10.318-23,23v33.469v11.509c0,0.552,0.447,1,1,1h71.93c0.553,0,1-0.448,1-1v-11.509v-33.469
				C164.287,118.162,153.97,107.844,141.287,107.844z"/>
			<path fill="#333333" d="M141.992,108.549h-6.371V70.526c0-2.205-1.793-4-4-4h-7.188c-2.205,0-4,1.795-4,4v38.022h-6.371
				c-12.683,0-23,10.318-23,23v33.469v11.51c0,0.551,0.447,0.999,1.001,0.999h71.929c0.553,0,1-0.448,1-0.999v-11.51v-33.469
				C164.992,118.867,154.676,108.549,141.992,108.549z"/>
			<path fill="#333333" d="M142.697,109.254h-6.371V71.231c0-2.205-1.793-4-3.999-4h-7.188c-2.205,0-4,1.795-4,4v38.022h-6.371
				c-12.683,0-23,10.318-23,23v33.469v11.509c0,0.552,0.447,1.001,1,1.001h71.93c0.554,0,1-0.449,1-1.001v-11.509v-33.469
				C165.697,119.572,155.38,109.254,142.697,109.254z"/>
			<path fill="#333333" d="M143.403,109.959h-6.371V71.937c0-2.205-1.794-4-4.001-4h-7.188c-2.206,0-4,1.795-4,4v38.022h-6.371
				c-12.682,0-23,10.318-23,23v33.469v11.51c0,0.551,0.448,1,1,1h71.93c0.553,0,1-0.449,1-1v-11.51v-33.469
				C166.402,120.277,156.086,109.959,143.403,109.959z"/>
			<path fill="#333333" d="M144.108,110.665h-6.371V72.642c0-2.205-1.794-4-4-4h-7.188c-2.206,0-4,1.794-4,4v38.023h-6.371
				c-12.683,0-23,10.317-23,23v33.469v11.509c0,0.552,0.447,1,1,1h71.93c0.553,0,1-0.448,1-1v-11.509v-33.469
				C167.108,120.982,156.791,110.665,144.108,110.665z"/>
			<path fill="#333333" d="M144.814,111.371h-6.371V73.348c0-2.205-1.795-4-4-4h-7.188c-2.206,0-4,1.795-4,4v38.023h-6.371
				c-12.683,0-23,10.317-23,23v33.469v11.508c0,0.553,0.447,1,0.999,1h71.931c0.553,0,1-0.447,1-1V167.84v-33.469
				C167.814,121.688,157.496,111.371,144.814,111.371z"/>
			<path fill="#333333" d="M145.52,112.076h-6.371V74.053c0-2.205-1.794-4-4-4h-7.188c-2.207,0-4,1.795-4,4v38.023h-6.371
				c-12.684,0-23,10.317-23,23v33.469v11.508c0,0.553,0.447,1.001,1,1.001h71.93c0.553,0,1-0.448,1-1.001v-11.508v-33.469
				C168.52,122.394,158.202,112.076,145.52,112.076z"/>
			<path fill="#333333" d="M146.225,112.781h-6.371V74.758c0-2.205-1.794-4-4-4h-7.188c-2.207,0-4,1.795-4,4v38.023h-6.371
				c-12.684,0-23,10.317-23,23v33.469v11.509c0,0.552,0.447,1,1,1h71.93c0.553,0,1-0.448,1-1V169.25v-33.469
				C169.225,123.099,158.907,112.781,146.225,112.781z"/>
			<path fill="#333333" d="M146.93,113.486h-6.371V75.464c0-2.205-1.794-4-4-4h-7.188c-2.206,0-4,1.795-4,4v38.022H119
				c-12.683,0-23,10.318-23,23v33.469v11.509c0,0.552,0.447,1,1,1h71.93c0.553,0,1-0.448,1-1v-11.509v-33.469
				C169.93,123.805,159.612,113.486,146.93,113.486z"/>
			<path fill="#333333" d="M147.636,114.192h-6.372V76.169c0-2.205-1.793-4-3.999-4h-7.188c-2.206,0-4,1.795-4,4v38.023h-6.371
				c-12.683,0-23,10.317-23,23v33.468v11.51c0,0.552,0.447,1,0.999,1h71.931c0.553,0,1-0.448,1-1v-11.51v-33.468
				C170.636,124.51,160.318,114.192,147.636,114.192z"/>
			<path fill="#333333" d="M148.341,114.897h-6.371V76.874c0-2.205-1.794-4-4.001-4h-7.187c-2.206,0-4,1.795-4,4v38.023h-6.371
				c-12.683,0-23,10.317-23,23v33.469v11.509c0,0.552,0.446,1,0.999,1h71.931c0.553,0,1-0.448,1-1v-11.509v-33.469
				C171.341,125.215,161.023,114.897,148.341,114.897z"/>
			<path fill="#333333" d="M149.046,115.603h-6.371V77.579c0-2.205-1.794-4-4-4h-7.188c-2.206,0-4,1.794-4,4v38.023h-6.371
				c-12.683,0-23,10.317-23,23v33.469v11.509c0,0.552,0.447,1,1,1h71.93c0.553,0,1-0.448,1-1v-11.509v-33.469
				C172.046,125.92,161.729,115.603,149.046,115.603z"/>
			<path fill="#333333" d="M149.752,116.309h-6.371V78.285c0-2.205-1.795-4-4.001-4h-7.187c-2.207,0-4.001,1.795-4.001,4v38.023
				h-6.371c-12.683,0-22.999,10.317-22.999,23v33.468v11.509c0,0.552,0.447,1,0.999,1h71.931c0.552,0,1-0.448,1-1v-11.509v-33.468
				C172.752,126.626,162.434,116.309,149.752,116.309z"/>
			<path fill="#333333" d="M150.457,117.014h-6.371V78.991c0-2.205-1.795-4-4-4h-7.188c-2.206,0-4,1.795-4,4v38.023h-6.371
				c-12.683,0-23,10.318-23,23v33.469v11.509c0,0.552,0.447,1,1,1h71.93c0.553,0,1-0.448,1-1v-11.509v-33.469
				C173.457,127.332,163.14,117.014,150.457,117.014z"/>
			<path fill="#333333" d="M151.162,117.719h-6.371V79.696c0-2.206-1.794-4-4-4h-7.188c-2.206,0-4,1.794-4,4v38.022h-6.371
				c-12.683,0-23,10.318-23,23v33.469v11.509c0,0.552,0.447,1,1,1h71.93c0.553,0,1-0.448,1-1v-11.509v-33.469
				C174.162,128.037,163.845,117.719,151.162,117.719z"/>
			<path fill="#333333" d="M151.867,118.424h-6.371V80.401c0-2.205-1.794-4-4-4h-7.188c-2.205,0-4,1.795-4,4v38.022h-6.371
				c-12.683,0-23,10.318-23,23v33.469v11.509c0,0.552,0.447,1,1,1h71.93c0.553,0,1-0.448,1-1v-11.509v-33.469
				C174.867,128.742,164.551,118.424,151.867,118.424z"/>
			<path fill="#333333" d="M152.573,119.129h-6.371V81.106c0-2.205-1.794-4-4-4h-7.188c-2.205,0-3.999,1.795-3.999,4v38.022h-6.372
				c-12.682,0-23,10.318-23,23v33.47v11.509c0,0.552,0.448,1,1.001,1h71.93c0.552,0,1-0.448,1-1v-11.509v-33.47
				C175.573,129.447,165.256,119.129,152.573,119.129z"/>
			<path fill="#333333" d="M153.278,119.835h-6.371V81.812c0-2.205-1.794-4-4-4h-7.188c-2.206,0-4,1.795-4,4v38.023h-6.371
				c-12.683,0-23,10.317-23,23v33.469v11.509c0,0.552,0.447,1,1,1h71.93c0.553,0,1-0.448,1-1v-11.509v-33.469
				C176.278,130.152,165.961,119.835,153.278,119.835z"/>
			<path fill="#333333" d="M153.983,120.541h-6.371V82.518c0-2.205-1.794-4-4-4h-7.188c-2.206,0-3.999,1.795-3.999,4v38.023h-6.372
				c-12.683,0-23,10.316-23,23v33.468v11.509c0,0.552,0.447,1,1,1h71.93c0.553,0,1-0.448,1-1v-11.509v-33.468
				C176.983,130.857,166.666,120.541,153.983,120.541z"/>
			<path fill="#333333" d="M154.688,121.246h-6.37V83.223c0-2.205-1.795-4-4-4h-7.188c-2.207,0-4,1.795-4,4v38.023h-6.372
				c-12.682,0-22.999,10.317-22.999,23v33.469v11.509c0,0.552,0.446,0.999,1,0.999h71.93c0.553,0,1-0.447,1-0.999v-11.509v-33.469
				C177.689,131.563,167.371,121.246,154.688,121.246z"/>
			<path fill="#333333" d="M155.395,121.951h-6.371V83.928c0-2.205-1.794-4-4-4h-7.188c-2.206,0-4,1.794-4,4v38.023h-6.371
				c-12.683,0-23,10.318-23,23v33.469v11.509c0,0.552,0.447,1,1,1h71.93c0.553,0,1-0.448,1-1V178.42v-33.469
				C178.395,132.27,168.077,121.951,155.395,121.951z"/>
			<path fill="#333333" d="M156.1,122.656h-6.371V84.634c0-2.206-1.794-4-4-4h-7.188c-2.206,0-4,1.794-4,4v38.022h-6.371
				c-12.683,0-23,10.318-23,23v33.469v11.509c0,0.552,0.447,1,1,1h71.93c0.553,0,1-0.448,1-1v-11.509v-33.469
				C179.1,132.975,168.782,122.656,156.1,122.656z"/>
			<path fill="#333333" d="M156.805,123.361h-6.371V85.339c0-2.205-1.794-4-4-4h-7.188c-2.205,0-4,1.795-4,4v38.022h-6.371
				c-12.682,0-23,10.318-23,23v33.469v11.51c0,0.551,0.447,1,1,1h71.93c0.553,0,1-0.449,1-1v-11.51v-33.469
				C179.805,133.68,169.488,123.361,156.805,123.361z"/>
			<path fill="#333333" d="M157.51,124.067h-6.37V86.044c0-2.205-1.794-4-4-4h-7.188c-2.205,0-3.999,1.795-3.999,4v38.023h-6.371
				c-12.683,0-23,10.317-23,23v33.469v11.509c0,0.552,0.447,1,1,1h71.93c0.552,0,0.999-0.448,0.999-1v-11.509v-33.469
				C180.51,134.385,170.193,124.067,157.51,124.067z"/>
			<path fill="#333333" d="M158.216,124.772h-6.371V86.749c0-2.204-1.794-4-4-4h-7.188c-2.206,0-4,1.795-4,4v38.023h-6.371
				c-12.683,0-23,10.318-23,23v33.469v11.509c0,0.552,0.447,1,1,1h71.93c0.553,0,1-0.448,1-1v-11.509v-33.469
				C181.216,135.091,170.898,124.772,158.216,124.772z"/>
			<path fill="#333333" d="M158.922,125.479h-6.372V87.455c0-2.206-1.794-4-4-4h-7.187c-2.207,0-4,1.794-4,4v38.023h-6.372
				c-12.683,0-23,10.317-23,23v33.469v11.508c0,0.552,0.448,1,1,1h71.931c0.552,0,1-0.448,1-1v-11.508v-33.469
				C181.922,135.796,171.604,125.479,158.922,125.479z"/>
			<path fill="#333333" d="M159.627,126.184h-6.371V88.16c0-2.205-1.795-4-4-4h-7.188c-2.207,0-4,1.795-4,4v38.023h-6.371
				c-12.683,0-23,10.317-23,23v33.469v11.508c0,0.553,0.447,1,1,1h71.93c0.553,0,1-0.447,1-1v-11.508v-33.469
				C182.627,136.501,172.31,126.184,159.627,126.184z"/>
			<path fill="#333333" d="M160.332,126.889h-6.371V88.865c0-2.205-1.794-4-4-4h-7.188c-2.206,0-4,1.794-4,4v38.023h-6.371
				c-12.683,0-23,10.318-23,23v33.469v11.509c0,0.552,0.447,1,1,1h71.93c0.553,0,1-0.448,1-1v-11.509v-33.469
				C183.332,137.207,173.015,126.889,160.332,126.889z"/>
			<path fill="#333333" d="M161.037,127.594h-6.371V89.57c0-2.204-1.794-4-4-4h-7.188c-2.206,0-4,1.795-4,4v38.023h-6.371
				c-12.683,0-23,10.318-23,23v33.469v11.509c0,0.552,0.447,1,1,1h71.93c0.553,0,1-0.448,1-1v-11.509v-33.469
				C184.037,137.912,173.721,127.594,161.037,127.594z"/>
			<path fill="#333333" d="M161.743,128.299h-6.372V90.276c0-2.205-1.793-4-4-4h-7.188c-2.205,0-4,1.795-4,4v38.022h-6.37
				c-12.683,0-23,10.318-23,23.001v33.468v11.51c0,0.551,0.446,1,1,1h71.93c0.552,0,0.999-0.449,0.999-1v-11.51V151.3
				C184.742,138.617,174.425,128.299,161.743,128.299z"/>
			<path fill="#333333" d="M162.448,129.005h-6.371V90.982c0-2.205-1.794-4.001-4-4.001h-7.188c-2.206,0-4,1.796-4,4.001v38.022
				h-6.371c-12.683,0-23.001,10.317-23.001,23v33.469v11.509c0,0.552,0.448,1,1.001,1h71.93c0.553,0,1-0.448,1-1v-11.509v-33.469
				C185.448,139.322,175.131,129.005,162.448,129.005z"/>
			<path fill="#333333" d="M163.153,129.71h-6.371V91.688c0-2.206-1.794-4-4-4h-7.188c-2.206,0-4,1.794-4,4v38.022h-6.371
				c-12.683,0-23,10.317-23,23v33.469v11.509c0,0.552,0.447,1,1,1h71.93c0.553,0,1-0.448,1-1v-11.509V152.71
				C186.153,140.027,175.836,129.71,163.153,129.71z"/>
			<path fill="#333333" d="M163.858,130.416h-6.371V92.393c0-2.205-1.794-4-4-4h-7.187c-2.207,0-4,1.795-4,4v38.023h-6.371
				c-12.684,0-23,10.317-23,23v33.469v11.508c0,0.552,0.447,1,1,1h71.93c0.552,0,0.999-0.448,0.999-1v-11.508v-33.469
				C186.858,140.733,176.541,130.416,163.858,130.416z"/>
			<path fill="#333333" d="M164.564,131.121h-6.371V93.098c0-2.205-1.795-4-4-4h-7.188c-2.206,0-4,1.795-4,4v38.023h-6.371
				c-12.684,0-23,10.317-23,23v33.469v11.509c0,0.552,0.447,0.999,1,0.999h71.93c0.553,0,1-0.447,1-0.999V187.59v-33.469
				C187.564,141.438,177.247,131.121,164.564,131.121z"/>
			<path fill="#333333" d="M165.27,131.826h-6.371V93.803c0-2.205-1.794-4-4-4h-7.188c-2.206,0-4,1.795-4,4v38.023h-6.371
				c-12.683,0-23,10.318-23,23v33.469v11.509c0,0.552,0.447,1,1,1h71.93c0.553,0,1-0.448,1-1v-11.509v-33.469
				C188.27,142.145,177.952,131.826,165.27,131.826z"/>
			<path fill="#333333" d="M165.975,132.531h-6.371V94.508c0-2.204-1.794-3.999-4-3.999h-7.188c-2.205,0-4,1.795-4,3.999v38.023
				h-6.371c-12.683,0-23,10.318-23,23V189v11.509c0,0.552,0.447,1.001,1,1.001h71.93c0.553,0,1-0.449,1-1.001V189v-33.469
				C188.975,142.85,178.657,132.531,165.975,132.531z"/>
			<path fill="#333333" d="M166.68,133.237h-6.371V95.214c0-2.205-1.793-4-4-4h-7.188c-2.205,0-4,1.795-4,4v38.023h-6.371
				c-12.682,0-22.999,10.317-22.999,23v33.468v11.51c0,0.552,0.447,1,1,1h71.93c0.553,0,0.999-0.448,0.999-1v-11.51v-33.468
				C189.68,143.555,179.363,133.237,166.68,133.237z"/>
			<path fill="#333333" d="M167.386,133.942h-6.371V95.919c0-2.205-1.794-3.999-4-3.999h-7.188c-2.206,0-4,1.794-4,3.999v38.023
				h-6.371c-12.683,0-23,10.317-23,23v33.469v11.509c0,0.552,0.447,1,1,1h71.93c0.553,0,1-0.448,1-1v-11.509v-33.469
				C190.386,144.26,180.068,133.942,167.386,133.942z"/>
			<path fill="#333333" d="M168.091,134.648h-6.371V96.625c0-2.205-1.794-4-4-4h-7.187c-2.207,0-4.001,1.795-4.001,4v38.023h-6.37
				c-12.684,0-23.001,10.316-23.001,22.999v33.469v11.509c0,0.552,0.448,1,1,1h71.93c0.553,0,1-0.448,1-1v-11.509v-33.469
				C191.091,144.965,180.773,134.648,168.091,134.648z"/>
			<path fill="#333333" d="M168.797,135.354h-6.371V97.33c0-2.205-1.795-4-4-4h-7.188c-2.207,0-4,1.795-4,4v38.023h-6.371
				c-12.684,0-23,10.317-23,23v33.469v11.509c0,0.552,0.446,0.999,1,0.999h71.93c0.553,0,1-0.447,1-0.999v-11.509v-33.469
				C191.797,145.671,181.479,135.354,168.797,135.354z"/>
			<path fill="#333333" d="M169.502,136.059h-6.371V98.035c0-2.205-1.794-4-4-4h-7.188c-2.206,0-4,1.795-4,4v38.023h-6.371
				c-12.683,0-23,10.317-23,23v33.469v11.509c0,0.552,0.447,1,1,1h71.93c0.553,0,1-0.448,1-1v-11.509v-33.469
				C192.502,146.376,182.185,136.059,169.502,136.059z"/>
			<path fill="#333333" d="M170.207,136.764h-6.371V98.741c0-2.206-1.794-4.001-4-4.001h-7.188c-2.206,0-4,1.795-4,4.001v38.022
				h-6.371c-12.683,0-23,10.317-23,23v33.469v11.509c0,0.552,0.447,1,1,1h71.93c0.553,0,1-0.448,1-1v-11.509v-33.469
				C193.207,147.081,182.89,136.764,170.207,136.764z"/>
			<path fill="#333333" d="M170.912,137.469h-6.371V99.446c0-2.205-1.793-4-4-4h-7.188c-2.205,0-4,1.795-4,4v38.022h-6.371
				c-12.683,0-22.999,10.318-22.999,23v33.469v11.51c0,0.551,0.446,1,0.999,1h71.93c0.554,0,1-0.449,1-1v-11.51v-33.469
				C193.912,147.787,183.595,137.469,170.912,137.469z"/>
			<path fill="#333333" d="M171.618,138.175h-6.372v-38.023c0-2.205-1.793-4-3.999-4h-7.188c-2.206,0-4,1.795-4,4v38.023h-6.371
				c-12.683,0-23.001,10.317-23.001,23v33.469v11.509c0,0.552,0.448,1,1,1h71.931c0.553,0,1-0.448,1-1v-11.509v-33.469
				C194.618,148.492,184.301,138.175,171.618,138.175z"/>
			<path fill="#333333" d="M172.323,138.88h-6.371v-38.023c0-2.205-1.794-3.999-4-3.999h-7.188c-2.206,0-4,1.794-4,3.999v38.023
				h-6.371c-12.683,0-23,10.317-23,23v33.469v11.509c0,0.552,0.447,1,1,1h71.93c0.553,0,1-0.448,1-1v-11.509V161.88
				C195.323,149.197,185.006,138.88,172.323,138.88z"/>
			<path fill="#333333" d="M173.028,139.586h-6.371v-38.023c0-2.205-1.794-4-4-4h-7.187c-2.207,0-4.001,1.795-4.001,4v38.023h-6.371
				c-12.683,0-22.999,10.316-22.999,22.999v33.469v11.509c0,0.552,0.447,1,0.999,1h71.93c0.554,0,1-0.448,1-1v-11.509v-33.469
				C196.028,149.902,185.711,139.586,173.028,139.586z"/>
			<path fill="#333333" d="M173.734,140.291h-6.371v-38.023c0-2.205-1.794-4-4-4h-7.188c-2.207,0-4,1.795-4,4v38.023h-6.371
				c-12.683,0-23,10.317-23,23v33.469v11.508c0,0.553,0.447,1,1,1h71.93c0.553,0,1-0.447,1-1V196.76v-33.469
				C196.734,150.608,186.416,140.291,173.734,140.291z"/>
			<path fill="#333333" d="M174.439,140.996h-6.371v-38.023c0-2.205-1.794-4-4-4h-7.188c-2.206,0-4,1.795-4,4v38.023h-6.371
				c-12.683,0-23,10.318-23,23v33.469v11.509c0,0.552,0.447,1,1,1h71.93c0.553,0,1-0.448,1-1v-11.509v-33.469
				C197.439,151.314,187.122,140.996,174.439,140.996z"/>
			<path fill="#333333" d="M175.145,141.701h-6.371v-38.023c0-2.204-1.793-4-4-4h-7.188c-2.206,0-4,1.796-4,4v38.023h-6.371
				c-12.682,0-23,10.318-23,23v33.469v11.509c0,0.552,0.447,1.001,1,1.001h71.93c0.553,0,1-0.449,1-1.001V198.17v-33.469
				C198.145,152.02,187.827,141.701,175.145,141.701z"/>
			<path fill="#333333" d="M175.85,142.407h-6.371v-38.023c0-2.206-1.793-4-4-4h-7.188c-2.205,0-3.999,1.794-3.999,4v38.023h-6.371
				c-12.683,0-23.001,10.317-23.001,22.999v33.469v11.51c0,0.551,0.448,1,1,1h71.93c0.554,0,1.001-0.449,1.001-1v-11.51v-33.469
				C198.851,152.725,188.533,142.407,175.85,142.407z"/>
			<path fill="#333333" d="M176.556,143.112h-6.371v-38.023c0-2.205-1.794-4-4-4h-7.188c-2.206,0-4,1.795-4,4v38.023h-6.371
				c-12.683,0-23,10.317-23,23v33.469v11.509c0,0.552,0.447,1,1,1h71.93c0.553,0,1-0.448,1-1v-11.509v-33.469
				C199.556,153.43,189.238,143.112,176.556,143.112z"/>
			<path fill="#333333" d="M177.261,143.817h-6.371v-38.023c0-2.205-1.794-4-4-4h-7.188c-2.206,0-4,1.795-4,4v38.023h-6.371
				c-12.683,0-23,10.318-23,23v33.469v11.509c0,0.552,0.447,1,1,1h71.93c0.553,0,1-0.448,1-1v-11.509v-33.469
				C200.261,154.136,189.943,143.817,177.261,143.817z"/>
			<path fill="#333333" d="M177.967,144.523h-6.371V106.5c0-2.205-1.795-4-4.001-4h-7.187c-2.206,0-4.001,1.795-4.001,4v38.023
				h-6.371c-12.683,0-23,10.317-23,22.999v33.469V212.5c0,0.552,0.447,1,1.001,1h71.929c0.554,0,1.001-0.448,1.001-1v-11.509
				v-33.469C200.967,154.841,190.649,144.523,177.967,144.523z"/>
			<path fill="#333333" d="M178.672,145.229h-6.371v-38.023c0-2.205-1.794-4-4-4h-7.188c-2.206,0-4,1.795-4,4v38.023h-6.371
				c-12.683,0-23,10.317-23,23v33.469v11.509c0,0.552,0.447,1,1,1h71.93c0.553,0,1-0.448,1-1v-11.509v-33.469
				C201.672,155.546,191.354,145.229,178.672,145.229z"/>
			<path fill="#333333" d="M179.377,145.934h-6.371V107.91c0-2.205-1.794-4-4-4h-7.188c-2.206,0-4,1.795-4,4v38.023h-6.371
				c-12.683,0-23,10.317-23,23v33.469v11.509c0,0.552,0.447,1,1,1h71.93c0.553,0,1-0.448,1-1v-11.509v-33.469
				C202.377,156.251,192.06,145.934,179.377,145.934z"/>
			<path fill="#333333" d="M180.082,146.64h-6.371v-38.024c0-2.205-1.794-3.999-4-3.999h-7.188c-2.206,0-4,1.794-4,3.999v38.024
				h-6.371c-12.682,0-23,10.317-23,23v33.468v11.51c0,0.552,0.447,1,1.001,1h71.93c0.552,0,0.999-0.448,0.999-1v-11.51V169.64
				C203.082,156.957,192.765,146.64,180.082,146.64z"/>
			<path fill="#333333" d="M180.788,147.345h-6.371v-38.023c0-2.205-1.794-4-4-4h-7.188c-2.205,0-3.999,1.795-3.999,4v38.023h-6.371
				c-12.683,0-23,10.317-23,22.999v33.469v11.51c0,0.552,0.447,1,1,1h71.929c0.554,0,1-0.448,1-1v-11.51v-33.469
				C203.787,157.662,193.471,147.345,180.788,147.345z"/>
			<path fill="#333333" d="M181.493,148.05h-6.371v-38.023c0-2.205-1.794-4-4-4h-7.188c-2.206,0-4,1.795-4,4v38.023h-6.371
				c-12.683,0-23,10.317-23,23v33.469v11.509c0,0.552,0.447,1,1,1h71.93c0.553,0,1-0.448,1-1v-11.509V171.05
				C204.493,158.367,194.176,148.05,181.493,148.05z"/>
			<path fill="#333333" d="M182.198,148.755h-6.371v-38.022c0-2.205-1.794-4.001-3.999-4.001h-7.188c-2.207,0-4,1.796-4,4.001
				v38.022h-6.372c-12.683,0-23,10.317-23,23v33.469v11.509c0,0.552,0.447,1,1,1h71.93c0.553,0,1-0.448,1-1v-11.509v-33.469
				C205.198,159.072,194.881,148.755,182.198,148.755z"/>
			<path fill="#333333" d="M182.904,149.461h-6.371v-38.023c0-2.205-1.794-4-4.001-4h-7.187c-2.206,0-4,1.795-4,4v38.023h-6.371
				c-12.684,0-23,10.317-23,23v33.468v11.51c0,0.552,0.447,1,1,1h71.929c0.554,0,1-0.448,1-1v-11.51v-33.468
				C205.903,159.778,195.586,149.461,182.904,149.461z"/>
			<path fill="#333333" d="M183.609,150.166h-6.371v-38.023c0-2.205-1.794-4-4-4h-7.188c-2.206,0-4,1.795-4,4v38.023h-6.371
				c-12.683,0-23,10.317-23,23v33.469v11.509c0,0.552,0.447,1,1,1h71.93c0.553,0,1-0.448,1-1v-11.509v-33.469
				C206.609,160.483,196.292,150.166,183.609,150.166z"/>
			<path fill="#333333" d="M184.314,150.871h-6.371v-38.023c0-2.205-1.794-3.999-4-3.999h-7.188c-2.206,0-4,1.794-4,3.999v38.023
				h-6.371c-12.683,0-23,10.317-23,23v33.469v11.509c0,0.552,0.447,1,1,1h71.93c0.553,0,1-0.448,1-1V207.34v-33.469
				C207.314,161.188,196.997,150.871,184.314,150.871z"/>
			<path fill="#333333" d="M185.02,151.577h-6.371v-38.024c0-2.205-1.794-4-3.999-4h-7.188c-2.206,0-4,1.795-4,4v38.024h-6.371
				c-12.682,0-23,10.317-23,23v33.469v11.509c0,0.551,0.447,1,1.001,1h71.93c0.552,0,0.999-0.449,0.999-1v-11.509v-33.469
				C208.02,161.895,197.703,151.577,185.02,151.577z"/>
			<path fill="#333333" d="M185.726,152.282h-6.371v-38.023c0-2.205-1.794-4-4-4h-7.188c-2.206,0-4,1.795-4,4v38.023h-6.371
				c-12.683,0-23,10.317-23,22.999v33.47v11.509c0,0.552,0.447,1,1,1h71.93c0.553,0,1-0.448,1-1v-11.509v-33.47
				C208.726,162.6,198.408,152.282,185.726,152.282z"/>
			<path fill="#333333" d="M186.431,152.987h-6.371v-38.023c0-2.205-1.794-4-4-4h-7.188c-2.206,0-4,1.795-4,4v38.023h-6.371
				c-12.683,0-23,10.317-23,23v33.469v11.509c0,0.552,0.447,1,1,1h71.93c0.553,0,1-0.448,1-1v-11.509v-33.469
				C209.431,163.305,199.113,152.987,186.431,152.987z"/>
			<path fill="#333333" d="M187.136,153.693h-6.37V115.67c0-2.205-1.794-4-4-4h-7.188c-2.207,0-4,1.795-4,4v38.023h-6.371
				c-12.684,0-23.001,10.316-23.001,22.999v33.47v11.508c0,0.552,0.447,1.001,1.001,1.001h71.929c0.553,0,1-0.449,1-1.001v-11.508
				v-33.47C210.136,164.01,199.818,153.693,187.136,153.693z"/>
			<path fill="#333333" d="M187.842,154.398h-6.371v-38.023c0-2.205-1.794-4-4.001-4h-7.187c-2.206,0-4,1.795-4,4v38.023h-6.371
				c-12.684,0-23,10.317-23,23v33.469v11.508c0,0.553,0.447,1.001,1,1.001h71.93c0.553,0,1-0.448,1-1.001v-11.508v-33.469
				C210.842,164.716,200.524,154.398,187.842,154.398z"/>
			<path fill="#333333" d="M188.547,155.104h-6.371V117.08c0-2.205-1.794-4-4-4h-7.188c-2.206,0-4,1.795-4,4v38.023h-6.371
				c-12.683,0-23,10.317-23,23v33.469v11.509c0,0.552,0.447,1,1,1h71.93c0.553,0,1-0.448,1-1v-11.509v-33.469
				C211.547,165.421,201.229,155.104,188.547,155.104z"/>
			<path fill="#333333" d="M189.252,155.809h-6.371v-38.022c0-2.206-1.794-4.001-4-4.001h-7.188c-2.205,0-4,1.795-4,4.001v38.022
				h-6.371c-12.683,0-23,10.317-23,23v33.469v11.509c0,0.552,0.447,1,1,1h71.93c0.553,0,1-0.448,1-1v-11.509v-33.469
				C212.252,166.126,201.935,155.809,189.252,155.809z"/>
			<path fill="#333333" d="M189.958,156.515h-6.371v-38.023c0-2.205-1.795-4-4-4h-7.188c-2.206,0-4,1.795-4,4v38.023h-6.37
				c-12.684,0-23,10.317-23,23v33.469v11.509c0,0.551,0.447,1,1,1h71.93c0.552,0,1-0.449,1-1v-11.509v-33.469
				C212.958,166.832,202.64,156.515,189.958,156.515z"/>
			<path fill="#333333" d="M190.663,157.22h-6.371v-38.023c0-2.205-1.794-4-4-4h-7.188c-2.206,0-4,1.795-4,4v38.023h-6.371
				c-12.683,0-23,10.317-23,23v33.469v11.509c0,0.552,0.447,1,1,1h71.93c0.553,0,1-0.448,1-1v-11.509V180.22
				C213.663,167.537,203.346,157.22,190.663,157.22z"/>
			<path fill="#333333" d="M191.368,157.925h-6.371v-38.023c0-2.205-1.794-4-4-4h-7.188c-2.206,0-4,1.795-4,4v38.023h-6.371
				c-12.683,0-23,10.317-23,23v33.469v11.509c0,0.552,0.447,1,1,1h71.93c0.553,0,1-0.448,1-1v-11.509v-33.469
				C214.368,168.242,204.051,157.925,191.368,157.925z"/>
			<path fill="#333333" d="M192.074,158.631h-6.371v-38.023c0-2.205-1.794-4-4-4h-7.188c-2.207,0-4,1.795-4,4v38.023h-6.372
				c-12.682,0-22.999,10.316-22.999,23V215.1v11.509c0,0.551,0.446,1,1,1h71.93c0.553,0,0.999-0.449,0.999-1V215.1v-33.469
				C215.073,168.947,204.756,158.631,192.074,158.631z"/>
			<path fill="#333333" d="M192.779,159.336h-6.371v-38.023c0-2.205-1.794-4-4-4h-7.188c-2.206,0-4,1.795-4,4v38.023h-6.371
				c-12.683,0-23,10.317-23,23v33.469v11.509c0,0.552,0.447,1,1,1h71.93c0.553,0,1-0.448,1-1v-11.509v-33.469
				C215.779,169.653,205.462,159.336,192.779,159.336z"/>
			<path fill="#333333" d="M193.484,160.041h-6.371v-38.023c0-2.205-1.794-4-4-4h-7.188c-2.206,0-4,1.795-4,4v38.023h-6.371
				c-12.683,0-23,10.317-23,23v33.469v11.509c0,0.552,0.447,1,1,1h71.93c0.553,0,1-0.448,1-1V216.51v-33.469
				C216.484,170.358,206.167,160.041,193.484,160.041z"/>
			<path fill="#333333" d="M194.189,160.746h-6.371v-38.023c0-2.205-1.794-4-4-4h-7.188c-2.205,0-3.999,1.795-3.999,4v38.023h-6.371
				c-12.684,0-23.001,10.318-23.001,23v33.469v11.51c0,0.551,0.447,1,1.001,1h71.929c0.553,0,1-0.449,1-1v-11.51v-33.469
				C217.189,171.064,206.872,160.746,194.189,160.746z"/>
			<path fill="#333333" d="M194.895,161.452h-6.37v-38.023c0-2.205-1.794-4-4-4h-7.188c-2.206,0-4,1.795-4,4v38.023h-6.37
				c-12.683,0-23,10.317-23,23v33.469v11.509c0,0.551,0.447,1,0.999,1h71.931c0.553,0,1-0.449,1-1v-11.509v-33.469
				C217.896,171.77,207.578,161.452,194.895,161.452z"/>
			<path fill="#333333" d="M195.601,162.157h-6.371v-38.023c0-2.205-1.794-4-4-4h-7.188c-2.206,0-4,1.795-4,4v38.023h-6.371
				c-12.683,0-23,10.317-23,23v33.469v11.509c0,0.552,0.447,1,1,1h71.93c0.553,0,1-0.448,1-1v-11.509v-33.469
				C218.601,172.475,208.283,162.157,195.601,162.157z"/>
			<path fill="#333333" d="M196.306,162.862h-6.371v-38.023c0-2.204-1.794-3.999-4-3.999h-7.187c-2.207,0-4.001,1.795-4.001,3.999
				v38.023h-6.371c-12.683,0-23,10.318-23,23v33.469v11.509c0,0.553,0.447,1,1.001,1h71.929c0.553,0,1-0.447,1-1v-11.509v-33.469
				C219.306,173.181,208.988,162.862,196.306,162.862z"/>
			<path fill="#333333" d="M197.012,163.568h-6.372v-38.023c0-2.206-1.794-4.001-3.999-4.001h-7.188c-2.206,0-4,1.795-4,4.001
				v38.023h-6.371c-12.683,0-23,10.317-23,23v33.469v11.509c0,0.552,0.447,1,1,1h71.93c0.553,0,1-0.448,1-1v-11.509v-33.469
				C220.012,173.886,209.694,163.568,197.012,163.568z"/>
			<path fill="#333333" d="M197.717,164.273h-6.371V126.25c0-2.205-1.794-4-4-4h-7.188c-2.206,0-4,1.795-4,4v38.023h-6.371
				c-12.683,0-23,10.317-23,23v33.469v11.509c0,0.552,0.447,1,1,1h71.93c0.553,0,1-0.448,1-1v-11.509v-33.469
				C220.717,174.591,210.399,164.273,197.717,164.273z"/>
			<path fill="#333333" d="M198.422,164.979h-6.371v-38.023c0-2.205-1.794-4-4-4h-7.188c-2.206,0-4,1.795-4,4v38.023h-6.371
				c-12.683,0-23,10.317-23,23v33.469v11.509c0,0.552,0.447,1,1,1h71.93c0.553,0,1-0.448,1-1v-11.509v-33.469
				C221.422,175.296,211.104,164.979,198.422,164.979z"/>
			<path fill="#333333" d="M199.128,165.685h-6.371V127.66c0-2.204-1.794-3.999-4.001-3.999h-7.188
				c-2.205,0-3.999,1.795-3.999,3.999v38.024h-6.372c-12.682,0-22.999,10.317-22.999,22.999v33.47v11.508
				c0,0.553,0.446,1.001,0.999,1.001h71.93c0.554,0,1.001-0.448,1.001-1.001v-11.508v-33.47
				C222.128,176.002,211.81,165.685,199.128,165.685z"/>
			<path fill="#333333" d="M199.833,166.39h-6.371v-38.023c0-2.205-1.794-4-4-4h-7.188c-2.206,0-4,1.795-4,4v38.023h-6.371
				c-12.683,0-23,10.317-23,23v33.469v11.509c0,0.552,0.447,1,1,1h71.93c0.553,0,1-0.448,1-1v-11.509V189.39
				C222.833,176.707,212.516,166.39,199.833,166.39z"/>
			<path fill="#333333" d="M200.538,167.095h-6.371v-38.023c0-2.205-1.794-4-4-4h-7.188c-2.206,0-4,1.795-4,4v38.023h-6.371
				c-12.683,0-23,10.317-23,23v33.469v11.509c0,0.552,0.447,1,1,1h71.93c0.553,0,1-0.448,1-1v-11.509v-33.469
				C223.538,177.412,213.221,167.095,200.538,167.095z"/>
			<path fill="#333333" d="M201.244,167.8h-6.372v-38.023c0-2.205-1.794-4-3.999-4h-7.188c-2.207,0-4.001,1.795-4.001,4V167.8h-6.37
				c-12.684,0-23,10.317-23,23.001v33.468v11.51c0,0.551,0.446,1,1,1h71.929c0.554,0,1-0.449,1-1v-11.51v-33.468
				C224.243,178.117,213.926,167.8,201.244,167.8z"/>
			<path fill="#333333" d="M201.949,168.506h-6.372v-38.024c0-2.204-1.793-3.999-3.999-3.999h-7.188c-2.206,0-4,1.795-4,3.999
				v38.024h-6.372c-12.682,0-22.999,10.317-22.999,23v33.468v11.509c0,0.552,0.447,1,1,1h71.93c0.553,0,1-0.448,1-1v-11.509v-33.468
				C224.949,178.823,214.632,168.506,201.949,168.506z"/>
			<path fill="#333333" d="M202.654,169.211h-6.371v-38.023c0-2.205-1.794-4-4-4h-7.188c-2.206,0-4,1.795-4,4v38.023h-6.371
				c-12.683,0-23,10.317-23,23v33.469v11.509c0,0.552,0.447,1,1,1h71.93c0.553,0,1-0.448,1-1V225.68v-33.469
				C225.654,179.528,215.337,169.211,202.654,169.211z"/>
		</g>
	</g>
	<g>
		
			<path fill="#025061" stroke="#333333" stroke-width="2" stroke-linecap="round" stroke-linejoin="round" stroke-miterlimit="10" d="
			M120.965,121.99h-71.93V88.521c0-12.15,9.85-22,22-22h27.93c12.15,0,22,9.85,22,22V121.99z"/>
		
			<path fill="#A0DAD7" stroke="#333333" stroke-width="2" stroke-linecap="round" stroke-linejoin="round" stroke-miterlimit="10" d="
			M113.053,121.99H56.947V96.198c0-9.94,8.06-18,18-18h20.105c9.94,0,18,8.06,18,18V121.99z"/>
		
			<path fill="#FCAB55" stroke="#333333" stroke-width="2" stroke-linecap="round" stroke-linejoin="round" stroke-miterlimit="10" d="
			M88.594,24.499h-7.188c-1.656,0-3,1.344-3,3v39.022h13.188V27.499C91.594,25.843,90.25,24.499,88.594,24.499z"/>
		
			<rect x="49.035" y="121.99" fill="#F2E085" stroke="#333333" stroke-width="2" stroke-linecap="round" stroke-linejoin="round" stroke-miterlimit="10" width="71.93" height="11.509"/>
		<g>
			
				<line fill="none" stroke="#F2F2F2" stroke-width="2" stroke-linecap="round" stroke-linejoin="round" stroke-miterlimit="10" x1="68.69" y1="93.578" x2="68.69" y2="116.588"/>
			
				<line fill="none" stroke="#F2F2F2" stroke-width="2" stroke-linecap="round" stroke-linejoin="round" stroke-miterlimit="10" x1="76.845" y1="92.138" x2="76.845" y2="116.588"/>
			
				<line fill="none" stroke="#F2F2F2" stroke-width="2" stroke-linecap="round" stroke-linejoin="round" stroke-miterlimit="10" x1="85" y1="90.696" x2="85" y2="116.588"/>
			
				<line fill="none" stroke="#F2F2F2" stroke-width="2" stroke-linecap="round" stroke-linejoin="round" stroke-miterlimit="10" x1="93.155" y1="92.138" x2="93.155" y2="116.588"/>
			
				<line fill="none" stroke="#F2F2F2" stroke-width="2" stroke-linecap="round" stroke-linejoin="round" stroke-miterlimit="10" x1="101.311" y1="93.578" x2="101.311" y2="116.588"/>
		</g>
	</g>
</g>
</svg>
