<?xml version="1.0" encoding="utf-8"?>
<!-- Generator: Adobe Illustrator 16.0.0, SVG Export Plug-In . SVG Version: 6.00 Build 0)  -->
<!DOCTYPE svg PUBLIC "-//W3C//DTD SVG 1.1//EN" "http://www.w3.org/Graphics/SVG/1.1/DTD/svg11.dtd">
<svg version="1.1" id="Layer_1" xmlns="http://www.w3.org/2000/svg" xmlns:xlink="http://www.w3.org/1999/xlink" x="0px" y="0px"
	 width="170px" height="170px" viewBox="0 0 170 170" enable-background="new 0 0 170 170" xml:space="preserve">
<g>
	
		<path fill="#F2F2F2" stroke="#333333" stroke-width="2" stroke-linecap="round" stroke-linejoin="round" stroke-miterlimit="10" d="
		M85,167.5L85,167.5c45.563,0,82.5-36.938,82.5-82.5v-0.001C167.5,39.436,130.563,2.5,85,2.5l0,0C39.437,2.5,2.5,39.436,2.5,84.999
		V85C2.5,130.563,39.437,167.5,85,167.5z"/>
</g>
<g>
	<g>
		<defs>
			<path id="SVGID_1_" d="M85,167.5L85,167.5c45.563,0,82.5-36.938,82.5-82.5v-0.001C167.5,39.436,130.563,2.5,85,2.5l0,0
				C39.437,2.5,2.5,39.436,2.5,84.999V85C2.5,130.563,39.437,167.5,85,167.5z"/>
		</defs>
		<clipPath id="SVGID_2_">
			<use xlink:href="#SVGID_1_"  overflow="visible"/>
		</clipPath>
		<g opacity="0.1" clip-path="url(#SVGID_2_)">
			<path fill="#333333" d="M122.897,32.5H47.102c-4.583,0-8.312,3.732-8.312,8.321v19.526v68.829c0,4.589,3.729,8.323,8.312,8.323
				h75.796c4.583,0,8.312-3.734,8.312-8.323V60.348V40.821C131.209,36.232,127.48,32.5,122.897,32.5z"/>
			<path fill="#333333" d="M123.603,33.205H47.807c-4.583,0-8.312,3.733-8.312,8.321v19.526v68.829c0,4.589,3.729,8.323,8.312,8.323
				h75.796c4.583,0,8.312-3.734,8.312-8.323V61.053V41.526C131.914,36.938,128.186,33.205,123.603,33.205z"/>
			<path fill="#333333" d="M124.308,33.911H48.512c-4.583,0-8.312,3.732-8.312,8.321v19.526v68.83c0,4.589,3.729,8.323,8.312,8.323
				h75.795c4.583,0,8.312-3.734,8.312-8.323v-68.83V42.232C132.619,37.643,128.891,33.911,124.308,33.911z"/>
			<path fill="#333333" d="M125.014,34.617H49.218c-4.583,0-8.312,3.732-8.312,8.321v19.526v68.829c0,4.589,3.729,8.323,8.312,8.323
				h75.796c4.583,0,8.312-3.734,8.312-8.323V62.464V42.938C133.325,38.349,129.597,34.617,125.014,34.617z"/>
			<path fill="#333333" d="M125.72,35.322H49.924c-4.583,0-8.312,3.732-8.312,8.322V63.17v68.829c0,4.589,3.729,8.323,8.312,8.323
				h75.796c4.583,0,8.312-3.734,8.312-8.323V63.17V43.644C134.031,39.054,130.303,35.322,125.72,35.322z"/>
			<path fill="#333333" d="M126.425,36.027H50.629c-4.583,0-8.311,3.732-8.311,8.321v19.526v68.829c0,4.589,3.729,8.323,8.311,8.323
				h75.796c4.583,0,8.312-3.734,8.312-8.323V63.875V44.349C134.736,39.76,131.008,36.027,126.425,36.027z"/>
			<path fill="#333333" d="M127.13,36.733H51.334c-4.583,0-8.312,3.732-8.312,8.321v19.526v68.829c0,4.59,3.728,8.323,8.312,8.323
				h75.795c4.584,0,8.312-3.733,8.312-8.323V64.581V45.054C135.441,40.465,131.714,36.733,127.13,36.733z"/>
			<path fill="#333333" d="M127.836,37.438H52.04c-4.583,0-8.312,3.733-8.312,8.322v19.526v68.829c0,4.589,3.729,8.323,8.312,8.323
				h75.796c4.583,0,8.312-3.734,8.312-8.323V65.286V45.76C136.147,41.171,132.419,37.438,127.836,37.438z"/>
			<path fill="#333333" d="M128.541,38.144H52.745c-4.583,0-8.312,3.733-8.312,8.321v19.527v68.829c0,4.589,3.729,8.323,8.312,8.323
				h75.796c4.583,0,8.312-3.734,8.312-8.323V65.992V46.465C136.853,41.876,133.124,38.144,128.541,38.144z"/>
			<path fill="#333333" d="M129.246,38.849H53.451c-4.583,0-8.312,3.732-8.312,8.321v19.526v68.829c0,4.589,3.729,8.323,8.312,8.323
				h75.795c4.584,0,8.312-3.734,8.312-8.323V66.697V47.17C137.558,42.582,133.83,38.849,129.246,38.849z"/>
			<path fill="#333333" d="M129.952,39.554H54.156c-4.583,0-8.312,3.733-8.312,8.321v19.526v68.83c0,4.589,3.728,8.323,8.312,8.323
				h75.796c4.583,0,8.312-3.734,8.312-8.323v-68.83V47.875C138.264,43.287,134.535,39.554,129.952,39.554z"/>
			<path fill="#333333" d="M130.657,40.26H54.862c-4.583,0-8.312,3.732-8.312,8.321v19.527v68.829c0,4.589,3.729,8.323,8.312,8.323
				h75.795c4.583,0,8.312-3.734,8.312-8.323V68.108V48.581C138.969,43.992,135.24,40.26,130.657,40.26z"/>
			<path fill="#333333" d="M131.363,40.965H55.567c-4.583,0-8.312,3.732-8.312,8.321v19.526v68.83c0,4.589,3.729,8.323,8.312,8.323
				h75.796c4.583,0,8.311-3.734,8.311-8.323v-68.83V49.287C139.674,44.698,135.946,40.965,131.363,40.965z"/>
			<path fill="#333333" d="M132.068,41.671H56.272c-4.583,0-8.312,3.732-8.312,8.321v19.526v68.829c0,4.589,3.729,8.323,8.312,8.323
				h75.796c4.583,0,8.312-3.734,8.312-8.323V69.519V49.992C140.38,45.403,136.651,41.671,132.068,41.671z"/>
			<path fill="#333333" d="M132.773,42.376H56.978c-4.583,0-8.311,3.733-8.311,8.322v19.526v68.83c0,4.589,3.729,8.322,8.311,8.322
				h75.796c4.583,0,8.313-3.733,8.313-8.322v-68.83V50.698C141.086,46.109,137.356,42.376,132.773,42.376z"/>
			<path fill="#333333" d="M133.479,43.082H57.683c-4.583,0-8.311,3.733-8.311,8.322V70.93v68.829c0,4.589,3.729,8.323,8.311,8.323
				h75.796c4.583,0,8.312-3.734,8.312-8.323V70.93V51.403C141.791,46.814,138.063,43.082,133.479,43.082z"/>
			<path fill="#333333" d="M134.185,43.787H58.389c-4.583,0-8.312,3.732-8.312,8.321v19.526v68.829c0,4.589,3.729,8.323,8.312,8.323
				h75.795c4.583,0,8.312-3.734,8.312-8.323V71.635V52.108C142.496,47.52,138.768,43.787,134.185,43.787z"/>
			<path fill="#333333" d="M134.89,44.493H59.094c-4.583,0-8.312,3.732-8.312,8.321V72.34v68.829c0,4.589,3.729,8.323,8.312,8.323
				h75.795c4.584,0,8.313-3.734,8.313-8.323V72.34V52.814C143.202,48.225,139.474,44.493,134.89,44.493z"/>
			<path fill="#333333" d="M135.596,45.198H59.8c-4.583,0-8.312,3.733-8.312,8.322v19.526v68.829c0,4.589,3.729,8.323,8.312,8.323
				h75.796c4.583,0,8.312-3.734,8.312-8.323V73.046V53.52C143.907,48.931,140.179,45.198,135.596,45.198z"/>
			<path fill="#333333" d="M136.302,45.903H60.505c-4.583,0-8.312,3.733-8.312,8.322v19.526v68.829c0,4.589,3.729,8.323,8.312,8.323
				h75.796c4.582,0,8.311-3.734,8.311-8.323V73.751V54.225C144.612,49.636,140.884,45.903,136.302,45.903z"/>
			<path fill="#333333" d="M137.007,46.609H61.21c-4.583,0-8.311,3.733-8.311,8.322v19.526v68.829c0,4.589,3.729,8.323,8.311,8.323
				h75.796c4.583,0,8.312-3.734,8.312-8.323V74.457V54.931C145.318,50.342,141.59,46.609,137.007,46.609z"/>
			<path fill="#333333" d="M137.712,47.314H61.916c-4.583,0-8.311,3.732-8.311,8.321v19.526v68.829c0,4.589,3.728,8.323,8.311,8.323
				h75.796c4.583,0,8.312-3.734,8.312-8.323V75.162V55.636C146.023,51.047,142.295,47.314,137.712,47.314z"/>
			<path fill="#333333" d="M138.418,48.02H62.622c-4.583,0-8.312,3.733-8.312,8.322v19.526v68.83c0,4.589,3.729,8.322,8.312,8.322
				h75.796c4.582,0,8.311-3.733,8.311-8.322v-68.83V56.341C146.729,51.752,143,48.02,138.418,48.02z"/>
			<path fill="#333333" d="M139.123,48.725H63.327c-4.583,0-8.312,3.733-8.312,8.322v19.526v68.829c0,4.589,3.729,8.323,8.312,8.323
				h75.796c4.583,0,8.312-3.734,8.312-8.323V76.573V57.047C147.435,52.458,143.706,48.725,139.123,48.725z"/>
			<path fill="#333333" d="M139.828,49.431H64.033c-4.583,0-8.312,3.732-8.312,8.321v19.526v68.829c0,4.589,3.729,8.323,8.312,8.323
				h75.795c4.583,0,8.312-3.734,8.312-8.323V77.279V57.752C148.14,53.164,144.411,49.431,139.828,49.431z"/>
			<path fill="#333333" d="M140.534,50.137H64.738c-4.583,0-8.312,3.732-8.312,8.321v19.526v68.829c0,4.59,3.729,8.324,8.312,8.324
				h75.796c4.583,0,8.312-3.734,8.312-8.324V77.984V58.458C148.846,53.869,145.117,50.137,140.534,50.137z"/>
			<path fill="#333333" d="M141.239,50.842H65.443c-4.583,0-8.312,3.732-8.312,8.321v19.526v68.829c0,4.589,3.729,8.323,8.312,8.323
				h75.796c4.583,0,8.312-3.734,8.312-8.323V78.689V59.163C149.551,54.574,145.822,50.842,141.239,50.842z"/>
			<path fill="#333333" d="M141.945,51.547H66.148c-4.583,0-8.312,3.732-8.312,8.321v19.527v68.829c0,4.589,3.729,8.323,8.312,8.323
				h75.797c4.583,0,8.311-3.734,8.311-8.323V79.395V59.868C150.256,55.28,146.528,51.547,141.945,51.547z"/>
			<path fill="#333333" d="M142.65,52.253H66.854c-4.583,0-8.312,3.732-8.312,8.321V80.1v68.83c0,4.589,3.728,8.323,8.312,8.323
				h75.796c4.583,0,8.312-3.734,8.312-8.323V80.1V60.574C150.962,55.985,147.233,52.253,142.65,52.253z"/>
			<path fill="#333333" d="M143.355,52.958H67.56c-4.583,0-8.312,3.733-8.312,8.321v19.527v68.829c0,4.589,3.728,8.323,8.312,8.323
				h75.795c4.583,0,8.312-3.734,8.312-8.323V80.806V61.279C151.667,56.691,147.938,52.958,143.355,52.958z"/>
			<path fill="#333333" d="M144.062,53.664H68.266c-4.583,0-8.312,3.732-8.312,8.321v19.526v68.83c0,4.589,3.728,8.323,8.312,8.323
				h75.796c4.583,0,8.312-3.734,8.312-8.323v-68.83V61.985C152.373,57.396,148.645,53.664,144.062,53.664z"/>
			<path fill="#333333" d="M144.767,54.369H68.971c-4.583,0-8.312,3.732-8.312,8.321v19.526v68.829c0,4.589,3.729,8.323,8.312,8.323
				h75.796c4.583,0,8.312-3.734,8.312-8.323V82.217V62.69C153.078,58.102,149.35,54.369,144.767,54.369z"/>
			<path fill="#333333" d="M145.472,55.075H69.676c-4.583,0-8.312,3.732-8.312,8.321v19.526v68.83c0,4.588,3.728,8.322,8.312,8.322
				h75.795c4.583,0,8.312-3.734,8.312-8.322v-68.83V63.396C153.783,58.807,150.055,55.075,145.472,55.075z"/>
			<path fill="#333333" d="M146.178,55.78H70.381c-4.583,0-8.311,3.732-8.311,8.321v19.526v68.829c0,4.589,3.729,8.322,8.311,8.322
				h75.796c4.583,0,8.312-3.733,8.312-8.322V83.628V64.102C154.489,59.513,150.761,55.78,146.178,55.78z"/>
			<path fill="#333333" d="M146.883,56.485H71.087c-4.583,0-8.312,3.733-8.312,8.321v19.526v68.829c0,4.589,3.729,8.323,8.312,8.323
				h75.795c4.583,0,8.312-3.734,8.312-8.323V84.333V64.807C155.194,60.218,151.466,56.485,146.883,56.485z"/>
			<path fill="#333333" d="M147.588,57.191H71.793c-4.583,0-8.312,3.732-8.312,8.321v19.526v68.829c0,4.59,3.729,8.324,8.312,8.324
				h75.795c4.584,0,8.312-3.734,8.312-8.324V85.039V65.512C155.899,60.923,152.172,57.191,147.588,57.191z"/>
			<path fill="#333333" d="M148.294,57.896H72.498c-4.583,0-8.312,3.732-8.312,8.321v19.526v68.829c0,4.589,3.729,8.323,8.312,8.323
				h75.796c4.583,0,8.312-3.734,8.312-8.323V85.744V66.218C156.605,61.629,152.877,57.896,148.294,57.896z"/>
			<path fill="#333333" d="M149,58.602H73.204c-4.583,0-8.312,3.732-8.312,8.322v19.526v68.829c0,4.59,3.729,8.323,8.312,8.323H149
				c4.582,0,8.311-3.733,8.311-8.323V86.449V66.923C157.311,62.334,153.582,58.602,149,58.602z"/>
			<path fill="#333333" d="M149.705,59.307H73.909c-4.583,0-8.311,3.733-8.311,8.322v19.526v68.829c0,4.589,3.729,8.322,8.311,8.322
				h75.796c4.583,0,8.312-3.733,8.312-8.322V87.155V67.629C158.017,63.04,154.288,59.307,149.705,59.307z"/>
			<path fill="#333333" d="M150.41,60.013H74.614c-4.583,0-8.312,3.733-8.312,8.321V87.86v68.829c0,4.589,3.729,8.323,8.312,8.323
				h75.796c4.583,0,8.312-3.734,8.312-8.323V87.86V68.334C158.722,63.746,154.993,60.013,150.41,60.013z"/>
			<path fill="#333333" d="M151.116,60.718H75.319c-4.583,0-8.311,3.732-8.311,8.322v19.526v68.829c0,4.588,3.729,8.323,8.311,8.323
				h75.797c4.583,0,8.312-3.735,8.312-8.323V88.566V69.04C159.428,64.451,155.699,60.718,151.116,60.718z"/>
			<path fill="#333333" d="M151.821,61.424H76.025c-4.583,0-8.312,3.732-8.312,8.321v19.526v68.829c0,4.589,3.729,8.323,8.312,8.323
				h75.796c4.583,0,8.312-3.734,8.312-8.323V89.271V69.745C160.133,65.156,156.404,61.424,151.821,61.424z"/>
			<path fill="#333333" d="M152.526,62.129H76.731c-4.583,0-8.312,3.732-8.312,8.322v19.526v68.83c0,4.588,3.729,8.322,8.312,8.322
				h75.795c4.583,0,8.312-3.734,8.312-8.322v-68.83V70.451C160.838,65.861,157.109,62.129,152.526,62.129z"/>
			<path fill="#333333" d="M153.232,62.834H77.437c-4.583,0-8.312,3.733-8.312,8.321v19.527v68.829c0,4.589,3.729,8.322,8.312,8.322
				h75.796c4.583,0,8.312-3.733,8.312-8.322V90.683V71.156C161.544,66.567,157.815,62.834,153.232,62.834z"/>
			<path fill="#333333" d="M153.938,63.54H78.142c-4.583,0-8.312,3.732-8.312,8.321v19.526v68.829c0,4.589,3.729,8.323,8.312,8.323
				h75.796c4.583,0,8.312-3.734,8.312-8.323V91.388V71.861C162.249,67.272,158.521,63.54,153.938,63.54z"/>
			<path fill="#333333" d="M154.643,64.245H78.847c-4.583,0-8.311,3.733-8.311,8.321v19.527v68.828c0,4.59,3.729,8.324,8.311,8.324
				h75.796c4.584,0,8.312-3.734,8.312-8.324V92.094V72.566C162.954,67.978,159.227,64.245,154.643,64.245z"/>
			<path fill="#333333" d="M155.349,64.951H79.553c-4.583,0-8.312,3.733-8.312,8.322v19.526v68.829c0,4.589,3.729,8.323,8.312,8.323
				h75.796c4.583,0,8.312-3.734,8.312-8.323V92.799V73.272C163.66,68.684,159.932,64.951,155.349,64.951z"/>
			<path fill="#333333" d="M156.054,65.656H80.258c-4.583,0-8.312,3.732-8.312,8.321v19.526v68.829c0,4.589,3.729,8.323,8.312,8.323
				h75.795c4.583,0,8.312-3.734,8.312-8.323V93.504V73.978C164.365,69.389,160.637,65.656,156.054,65.656z"/>
			<path fill="#333333" d="M156.76,66.361H80.964c-4.583,0-8.312,3.733-8.312,8.322v19.526v68.83c0,4.588,3.729,8.322,8.312,8.322
				h75.796c4.582,0,8.312-3.734,8.312-8.322v-68.83V74.683C165.071,70.095,161.342,66.361,156.76,66.361z"/>
			<path fill="#333333" d="M157.465,67.067H81.669c-4.583,0-8.312,3.732-8.312,8.321v19.526v68.829c0,4.589,3.729,8.323,8.312,8.323
				h75.796c4.583,0,8.312-3.734,8.312-8.323V94.915V75.389C165.776,70.8,162.048,67.067,157.465,67.067z"/>
			<path fill="#333333" d="M158.17,67.772H82.375c-4.583,0-8.312,3.733-8.312,8.322v19.527v68.828c0,4.59,3.729,8.323,8.312,8.323
				h75.795c4.584,0,8.313-3.733,8.313-8.323V95.621V76.094C166.482,71.505,162.754,67.772,158.17,67.772z"/>
			<path fill="#333333" d="M158.876,68.478H83.08c-4.583,0-8.312,3.733-8.312,8.322v19.526v68.829c0,4.589,3.729,8.322,8.312,8.322
				h75.796c4.583,0,8.312-3.733,8.312-8.322V96.326V76.8C167.188,72.211,163.459,68.478,158.876,68.478z"/>
			<path fill="#333333" d="M159.581,69.184H83.785c-4.583,0-8.311,3.732-8.311,8.321v19.526v68.83c0,4.588,3.728,8.322,8.311,8.322
				h75.796c4.583,0,8.312-3.734,8.312-8.322v-68.83V77.505C167.893,72.916,164.164,69.184,159.581,69.184z"/>
			<path fill="#333333" d="M160.287,69.889H84.491c-4.583,0-8.312,3.733-8.312,8.322v19.525v68.829c0,4.59,3.729,8.323,8.312,8.323
				h75.796c4.583,0,8.311-3.733,8.311-8.323V97.736V78.211C168.598,73.622,164.87,69.889,160.287,69.889z"/>
			<path fill="#333333" d="M160.992,70.594H85.196c-4.583,0-8.312,3.733-8.312,8.322v19.526v68.829c0,4.589,3.729,8.323,8.312,8.323
				h75.796c4.583,0,8.312-3.734,8.312-8.323V98.442V78.916C169.304,74.327,165.575,70.594,160.992,70.594z"/>
			<path fill="#333333" d="M161.697,71.3H85.902c-4.583,0-8.312,3.733-8.312,8.322v19.526v68.829c0,4.589,3.728,8.323,8.312,8.323
				h75.795c4.583,0,8.312-3.734,8.312-8.323V99.147V79.622C170.009,75.033,166.28,71.3,161.697,71.3z"/>
			<path fill="#333333" d="M162.403,72.005H86.607c-4.583,0-8.312,3.733-8.312,8.322v19.526v68.829c0,4.589,3.729,8.322,8.312,8.322
				h75.796c4.583,0,8.312-3.733,8.312-8.322V99.854V80.327C170.715,75.738,166.986,72.005,162.403,72.005z"/>
			<path fill="#333333" d="M163.108,72.711H87.313c-4.583,0-8.312,3.732-8.312,8.321v19.526v68.829c0,4.589,3.729,8.323,8.312,8.323
				h75.796c4.583,0,8.312-3.734,8.312-8.323v-68.829V81.032C171.42,76.443,167.691,72.711,163.108,72.711z"/>
			<path fill="#333333" d="M163.813,73.416H88.018c-4.583,0-8.312,3.733-8.312,8.322v19.526v68.829c0,4.588,3.729,8.322,8.312,8.322
				h75.796c4.583,0,8.312-3.734,8.312-8.322v-68.829V81.738C172.125,77.149,168.396,73.416,163.813,73.416z"/>
			<path fill="#333333" d="M164.52,74.122H88.724c-4.583,0-8.312,3.733-8.312,8.322v19.526v68.829c0,4.589,3.729,8.323,8.312,8.323
				h75.796c4.583,0,8.312-3.734,8.312-8.323V101.97V82.443C172.831,77.854,169.103,74.122,164.52,74.122z"/>
			<path fill="#333333" d="M165.225,74.827H89.43c-4.584,0-8.312,3.733-8.312,8.321v19.526v68.829c0,4.589,3.728,8.323,8.312,8.323
				h75.795c4.584,0,8.313-3.734,8.313-8.323v-68.829V83.148C173.537,78.56,169.809,74.827,165.225,74.827z"/>
			<path fill="#333333" d="M165.93,75.532H90.135c-4.583,0-8.312,3.733-8.312,8.322v19.527v68.829c0,4.589,3.729,8.322,8.312,8.322
				h75.795c4.584,0,8.313-3.733,8.313-8.322v-68.829V83.854C174.242,79.265,170.514,75.532,165.93,75.532z"/>
			<path fill="#333333" d="M166.636,76.238H90.84c-4.583,0-8.312,3.733-8.312,8.322v19.526v68.829c0,4.589,3.729,8.323,8.312,8.323
				h75.796c4.583,0,8.312-3.734,8.312-8.323v-68.829V84.56C174.947,79.971,171.219,76.238,166.636,76.238z"/>
			<path fill="#333333" d="M167.342,76.943H91.545c-4.582,0-8.311,3.733-8.311,8.321v19.526v68.829c0,4.589,3.729,8.323,8.311,8.323
				h75.797c4.582,0,8.311-3.734,8.311-8.323v-68.829V85.265C175.652,80.677,171.924,76.943,167.342,76.943z"/>
			<path fill="#333333" d="M168.047,77.648H92.251c-4.583,0-8.312,3.733-8.312,8.322v19.526v68.829c0,4.589,3.729,8.323,8.312,8.323
				h75.796c4.583,0,8.312-3.734,8.312-8.323v-68.829V85.971C176.358,81.382,172.63,77.648,168.047,77.648z"/>
			<path fill="#333333" d="M168.752,78.354H92.957c-4.584,0-8.313,3.733-8.313,8.321v19.527v68.828c0,4.59,3.729,8.323,8.313,8.323
				h75.795c4.583,0,8.312-3.733,8.312-8.323v-68.828V86.676C177.063,82.087,173.335,78.354,168.752,78.354z"/>
			<path fill="#333333" d="M169.458,79.06H93.662c-4.584,0-8.312,3.732-8.312,8.321v19.527v68.828c0,4.59,3.728,8.323,8.312,8.323
				h75.796c4.583,0,8.312-3.733,8.312-8.323v-68.828V87.381C177.77,82.792,174.041,79.06,169.458,79.06z"/>
			<path fill="#333333" d="M170.163,79.766H94.367c-4.583,0-8.312,3.732-8.312,8.321v19.526v68.829c0,4.589,3.729,8.323,8.312,8.323
				h75.796c4.583,0,8.312-3.734,8.312-8.323v-68.829V88.087C178.475,83.498,174.746,79.766,170.163,79.766z"/>
			<path fill="#333333" d="M170.869,80.471H95.072c-4.582,0-8.311,3.733-8.311,8.322v19.525v68.83c0,4.588,3.729,8.322,8.311,8.322
				h75.797c4.582,0,8.311-3.734,8.311-8.322v-68.83V88.793C179.18,84.204,175.451,80.471,170.869,80.471z"/>
			<path fill="#333333" d="M171.574,81.177H95.778c-4.583,0-8.312,3.732-8.312,8.321v19.525v68.83c0,4.589,3.729,8.323,8.312,8.323
				h75.796c4.582,0,8.312-3.734,8.312-8.323v-68.83V89.498C179.886,84.909,176.156,81.177,171.574,81.177z"/>
			<path fill="#333333" d="M172.279,81.882H96.483c-4.583,0-8.312,3.733-8.312,8.321v19.526v68.829c0,4.589,3.729,8.323,8.312,8.323
				h75.796c4.584,0,8.312-3.734,8.312-8.323v-68.829V90.203C180.591,85.615,176.863,81.882,172.279,81.882z"/>
			<path fill="#333333" d="M172.984,82.587H97.189c-4.583,0-8.313,3.733-8.313,8.322v19.526v68.829c0,4.589,3.729,8.322,8.313,8.322
				h75.795c4.584,0,8.313-3.733,8.313-8.322v-68.829V90.909C181.297,86.32,177.568,82.587,172.984,82.587z"/>
			<path fill="#333333" d="M173.69,83.293H97.895c-4.583,0-8.312,3.732-8.312,8.321v19.526v68.829c0,4.589,3.729,8.323,8.312,8.323
				h75.796c4.583,0,8.312-3.734,8.312-8.323v-68.829V91.614C182.002,87.025,178.273,83.293,173.69,83.293z"/>
			<path fill="#333333" d="M174.396,83.998H98.6c-4.583,0-8.312,3.732-8.312,8.322v19.525v68.829c0,4.589,3.729,8.323,8.312,8.323
				h75.796c4.583,0,8.312-3.734,8.312-8.323v-68.829V92.32C182.707,87.73,178.979,83.998,174.396,83.998z"/>
			<path fill="#333333" d="M175.102,84.704H99.306c-4.583,0-8.312,3.733-8.312,8.322v19.526v68.829c0,4.589,3.729,8.322,8.312,8.322
				h75.796c4.583,0,8.312-3.733,8.312-8.322v-68.829V93.025C183.413,88.437,179.685,84.704,175.102,84.704z"/>
			<path fill="#333333" d="M175.807,85.409h-75.796c-4.583,0-8.312,3.733-8.312,8.321v19.526v68.829
				c0,4.589,3.729,8.322,8.312,8.322h75.796c4.583,0,8.312-3.733,8.312-8.322v-68.829V93.73
				C184.118,89.143,180.39,85.409,175.807,85.409z"/>
			<path fill="#333333" d="M176.512,86.114h-75.795c-4.583,0-8.312,3.733-8.312,8.322v19.526v68.828
				c0,4.589,3.729,8.323,8.312,8.323h75.795c4.584,0,8.313-3.734,8.313-8.323v-68.828V94.437
				C184.824,89.848,181.096,86.114,176.512,86.114z"/>
			<path fill="#333333" d="M177.218,86.82h-75.796c-4.583,0-8.312,3.732-8.312,8.321v19.526v68.829c0,4.589,3.729,8.323,8.312,8.323
				h75.796c4.583,0,8.312-3.734,8.312-8.323v-68.829V95.142C185.529,90.553,181.801,86.82,177.218,86.82z"/>
			<path fill="#333333" d="M177.924,87.525h-75.797c-4.583,0-8.311,3.732-8.311,8.321v19.526v68.83c0,4.588,3.728,8.322,8.311,8.322
				h75.797c4.582,0,8.311-3.734,8.311-8.322v-68.83V95.847C186.234,91.258,182.506,87.525,177.924,87.525z"/>
			<path fill="#333333" d="M178.629,88.23h-75.796c-4.583,0-8.312,3.733-8.312,8.322v19.526v68.829c0,4.588,3.729,8.322,8.312,8.322
				h75.796c4.582,0,8.312-3.734,8.312-8.322v-68.829V96.553C186.94,91.964,183.211,88.23,178.629,88.23z"/>
			<path fill="#333333" d="M179.334,88.937h-75.796c-4.583,0-8.312,3.732-8.312,8.321v19.526v68.829
				c0,4.589,3.729,8.322,8.312,8.322h75.796c4.583,0,8.312-3.733,8.312-8.322v-68.829V97.258
				C187.646,92.669,183.917,88.937,179.334,88.937z"/>
			<path fill="#333333" d="M180.04,89.642h-75.796c-4.584,0-8.313,3.733-8.313,8.321v19.527v68.829c0,4.589,3.729,8.322,8.313,8.322
				h75.796c4.583,0,8.312-3.733,8.312-8.322V117.49V97.963C188.352,93.375,184.623,89.642,180.04,89.642z"/>
			<path fill="#333333" d="M180.745,90.348h-75.796c-4.583,0-8.312,3.732-8.312,8.321v19.526v68.829
				c0,4.589,3.729,8.323,8.312,8.323h75.796c4.583,0,8.312-3.734,8.312-8.323v-68.829V98.669
				C189.057,94.08,185.328,90.348,180.745,90.348z"/>
			<path fill="#333333" d="M181.45,91.053h-75.796c-4.582,0-8.311,3.732-8.311,8.321V118.9v68.829c0,4.589,3.729,8.323,8.311,8.323
				h75.796c4.583,0,8.312-3.734,8.312-8.323V118.9V99.374C189.762,94.785,186.033,91.053,181.45,91.053z"/>
			<path fill="#333333" d="M182.156,91.758H106.36c-4.583,0-8.312,3.733-8.312,8.322v19.526v68.829c0,4.589,3.729,8.322,8.312,8.322
				h75.796c4.583,0,8.312-3.733,8.312-8.322v-68.829V100.08C190.468,95.491,186.739,91.758,182.156,91.758z"/>
			<path fill="#333333" d="M182.861,92.463h-75.796c-4.583,0-8.312,3.733-8.312,8.322v19.526v68.829
				c0,4.589,3.729,8.322,8.312,8.322h75.796c4.583,0,8.312-3.733,8.312-8.322v-68.829v-19.526
				C191.173,96.196,187.444,92.463,182.861,92.463z"/>
			<path fill="#333333" d="M183.566,93.169h-75.795c-4.584,0-8.313,3.733-8.313,8.321v19.527v68.828c0,4.59,3.729,8.323,8.313,8.323
				h75.795c4.584,0,8.313-3.733,8.313-8.323v-68.828V101.49C191.879,96.902,188.15,93.169,183.566,93.169z"/>
			<path fill="#333333" d="M184.272,93.875h-75.796c-4.583,0-8.312,3.732-8.312,8.321v19.526v68.829
				c0,4.589,3.729,8.323,8.312,8.323h75.796c4.583,0,8.312-3.734,8.312-8.323v-68.829v-19.526
				C192.584,97.607,188.855,93.875,184.272,93.875z"/>
			<path fill="#333333" d="M184.978,94.58h-75.796c-4.583,0-8.312,3.732-8.312,8.322v19.525v68.83c0,4.588,3.729,8.322,8.312,8.322
				h75.796c4.583,0,8.312-3.734,8.312-8.322v-68.83v-19.525C193.289,98.313,189.561,94.58,184.978,94.58z"/>
			<path fill="#333333" d="M185.684,95.285h-75.796c-4.583,0-8.312,3.733-8.312,8.322v19.526v68.829
				c0,4.588,3.729,8.322,8.312,8.322h75.796c4.583,0,8.311-3.734,8.311-8.322v-68.829v-19.526
				C193.994,99.019,190.267,95.285,185.684,95.285z"/>
			<path fill="#333333" d="M186.389,95.99h-75.796c-4.583,0-8.312,3.733-8.312,8.322v19.526v68.829c0,4.589,3.729,8.322,8.312,8.322
				h75.796c4.583,0,8.312-3.733,8.312-8.322v-68.829v-19.526C194.7,99.724,190.972,95.99,186.389,95.99z"/>
			<path fill="#333333" d="M187.095,96.696h-75.796c-4.584,0-8.313,3.733-8.313,8.321v19.527v68.828c0,4.59,3.729,8.323,8.313,8.323
				h75.796c4.582,0,8.311-3.733,8.311-8.323v-68.828v-19.527C195.405,100.43,191.677,96.696,187.095,96.696z"/>
			<path fill="#333333" d="M187.8,97.401h-75.796c-4.583,0-8.312,3.733-8.312,8.322v19.526v68.829c0,4.589,3.729,8.323,8.312,8.323
				H187.8c4.583,0,8.312-3.734,8.312-8.323V125.25v-19.526C196.111,101.135,192.383,97.401,187.8,97.401z"/>
			<path fill="#333333" d="M188.505,98.107h-75.796c-4.583,0-8.311,3.732-8.311,8.321v19.526v68.829
				c0,4.589,3.728,8.323,8.311,8.323h75.796c4.583,0,8.312-3.734,8.312-8.323v-68.829v-19.526
				C196.816,101.84,193.088,98.107,188.505,98.107z"/>
			<path fill="#333333" d="M189.211,98.813h-75.796c-4.583,0-8.312,3.733-8.312,8.322v19.526v68.829
				c0,4.588,3.729,8.322,8.312,8.322h75.796c4.582,0,8.312-3.734,8.312-8.322v-68.829v-19.526
				C197.522,102.546,193.793,98.813,189.211,98.813z"/>
			<path fill="#333333" d="M189.916,99.518H114.12c-4.583,0-8.312,3.733-8.312,8.322v19.526v68.829c0,4.589,3.729,8.322,8.312,8.322
				h75.796c4.583,0,8.312-3.733,8.312-8.322v-68.829V107.84C198.228,103.251,194.499,99.518,189.916,99.518z"/>
			<path fill="#333333" d="M190.621,100.223h-75.796c-4.583,0-8.312,3.734-8.312,8.322v19.526V196.9
				c0,4.589,3.729,8.323,8.312,8.323h75.796c4.584,0,8.313-3.734,8.313-8.323v-68.829v-19.526
				C198.934,103.957,195.205,100.223,190.621,100.223z"/>
			<path fill="#333333" d="M191.327,100.929h-75.796c-4.584,0-8.312,3.733-8.312,8.322v19.526v68.829
				c0,4.589,3.728,8.322,8.312,8.322h75.796c4.583,0,8.312-3.733,8.312-8.322v-68.829v-19.526
				C199.639,104.662,195.91,100.929,191.327,100.929z"/>
			<path fill="#333333" d="M192.032,101.635h-75.796c-4.582,0-8.312,3.732-8.312,8.321v19.526v68.83
				c0,4.588,3.729,8.322,8.312,8.322h75.796c4.583,0,8.312-3.734,8.312-8.322v-68.83v-19.526
				C200.344,105.367,196.615,101.635,192.032,101.635z"/>
			<path fill="#333333" d="M192.737,102.34h-75.796c-4.582,0-8.312,3.733-8.312,8.322v19.525v68.829c0,4.59,3.729,8.323,8.312,8.323
				h75.796c4.583,0,8.312-3.733,8.312-8.323v-68.829v-19.525C201.049,106.073,197.32,102.34,192.737,102.34z"/>
			<path fill="#333333" d="M193.443,103.045h-75.796c-4.583,0-8.312,3.733-8.312,8.322v19.526v68.829
				c0,4.589,3.729,8.322,8.312,8.322h75.796c4.583,0,8.312-3.733,8.312-8.322v-68.829v-19.526
				C201.755,106.778,198.026,103.045,193.443,103.045z"/>
			<path fill="#333333" d="M194.148,103.751h-75.796c-4.583,0-8.312,3.732-8.312,8.321v19.526v68.829
				c0,4.59,3.729,8.323,8.312,8.323h75.796c4.583,0,8.312-3.733,8.312-8.323v-68.829v-19.526
				C202.46,107.483,198.731,103.751,194.148,103.751z"/>
			<path fill="#333333" d="M194.854,104.456h-75.796c-4.583,0-8.313,3.733-8.313,8.321v19.527v68.829
				c0,4.589,3.729,8.322,8.313,8.322h75.796c4.583,0,8.312-3.733,8.312-8.322v-68.829v-19.527
				C203.166,108.189,199.438,104.456,194.854,104.456z"/>
			<path fill="#333333" d="M195.56,105.162h-75.796c-4.583,0-8.312,3.732-8.312,8.321v19.526v68.829
				c0,4.589,3.729,8.323,8.312,8.323h75.796c4.583,0,8.312-3.734,8.312-8.323V133.01v-19.526
				C203.871,108.895,200.143,105.162,195.56,105.162z"/>
			<path fill="#333333" d="M196.266,105.867h-75.797c-4.582,0-8.311,3.733-8.311,8.322v19.525v68.83
				c0,4.588,3.729,8.322,8.311,8.322h75.797c4.582,0,8.311-3.734,8.311-8.322v-68.83v-19.525
				C204.576,109.601,200.848,105.867,196.266,105.867z"/>
			<path fill="#333333" d="M196.971,106.572h-75.796c-4.583,0-8.312,3.733-8.312,8.322v19.526v68.829
				c0,4.589,3.729,8.322,8.312,8.322h75.796c4.583,0,8.312-3.733,8.312-8.322v-68.829v-19.526
				C205.282,110.306,201.554,106.572,196.971,106.572z"/>
			<path fill="#333333" d="M197.676,107.278H121.88c-4.583,0-8.312,3.732-8.312,8.321v19.527v68.828
				c0,4.589,3.729,8.322,8.312,8.322h75.796c4.584,0,8.313-3.733,8.313-8.322v-68.828V115.6
				C205.988,111.011,202.26,107.278,197.676,107.278z"/>
			<path fill="#333333" d="M198.381,107.983h-75.795c-4.583,0-8.312,3.733-8.312,8.322v19.526v68.828
				c0,4.59,3.729,8.323,8.312,8.323h75.795c4.584,0,8.313-3.733,8.313-8.323v-68.828v-19.526
				C206.693,111.717,202.965,107.983,198.381,107.983z"/>
			<path fill="#333333" d="M199.087,108.688h-75.796c-4.583,0-8.312,3.733-8.312,8.322v19.526v68.829
				c0,4.589,3.729,8.322,8.312,8.322h75.796c4.583,0,8.312-3.733,8.312-8.322v-68.829v-19.526
				C207.398,112.422,203.67,108.688,199.087,108.688z"/>
			<path fill="#333333" d="M199.793,109.395h-75.797c-4.582,0-8.311,3.733-8.311,8.321v19.526v68.829
				c0,4.589,3.729,8.323,8.311,8.323h75.797c4.582,0,8.311-3.734,8.311-8.323v-68.829v-19.526
				C208.104,113.128,204.375,109.395,199.793,109.395z"/>
			<path fill="#333333" d="M200.498,110.1h-75.796c-4.583,0-8.312,3.733-8.312,8.322v19.526v68.829c0,4.588,3.729,8.322,8.312,8.322
				h75.796c4.582,0,8.312-3.734,8.312-8.322v-68.829v-19.526C208.81,113.833,205.08,110.1,200.498,110.1z"/>
			<path fill="#333333" d="M201.203,110.806h-75.796c-4.583,0-8.312,3.732-8.312,8.321v19.526v68.829
				c0,4.589,3.729,8.322,8.312,8.322h75.796c4.583,0,8.312-3.733,8.312-8.322v-68.829v-19.526
				C209.515,114.538,205.786,110.806,201.203,110.806z"/>
			<path fill="#333333" d="M201.908,111.511h-75.795c-4.584,0-8.312,3.733-8.312,8.322v19.526v68.829
				c0,4.589,3.728,8.322,8.312,8.322h75.795c4.584,0,8.313-3.733,8.313-8.322v-68.829v-19.526
				C210.221,115.244,206.492,111.511,201.908,111.511z"/>
			<path fill="#333333" d="M202.614,112.216h-75.796c-4.583,0-8.312,3.733-8.312,8.322v19.526v68.829
				c0,4.589,3.729,8.322,8.312,8.322h75.796c4.583,0,8.312-3.733,8.312-8.322v-68.829v-19.526
				C210.926,115.949,207.197,112.216,202.614,112.216z"/>
			<path fill="#333333" d="M203.319,112.922h-75.796c-4.583,0-8.312,3.733-8.312,8.321v19.526v68.83
				c0,4.588,3.729,8.322,8.312,8.322h75.796c4.583,0,8.312-3.734,8.312-8.322v-68.83v-19.526
				C211.631,116.655,207.902,112.922,203.319,112.922z"/>
			<path fill="#333333" d="M204.025,113.627h-75.796c-4.583,0-8.312,3.733-8.312,8.322v19.526v68.829
				c0,4.589,3.729,8.322,8.312,8.322h75.796c4.583,0,8.311-3.733,8.311-8.322v-68.829v-19.526
				C212.336,117.36,208.608,113.627,204.025,113.627z"/>
			<path fill="#333333" d="M204.73,114.332h-75.796c-4.583,0-8.312,3.733-8.312,8.322v19.526v68.829
				c0,4.589,3.729,8.322,8.312,8.322h75.796c4.584,0,8.312-3.733,8.312-8.322v-68.829v-19.526
				C213.042,118.065,209.314,114.332,204.73,114.332z"/>
			<path fill="#333333" d="M205.437,115.038h-75.796c-4.584,0-8.313,3.733-8.313,8.321v19.526v68.829
				c0,4.59,3.729,8.323,8.313,8.323h75.796c4.583,0,8.311-3.733,8.311-8.323v-68.829v-19.526
				C213.747,118.771,210.02,115.038,205.437,115.038z"/>
			<path fill="#333333" d="M206.142,115.743h-75.796c-4.583,0-8.312,3.733-8.312,8.322v19.526v68.829
				c0,4.589,3.729,8.322,8.312,8.322h75.796c4.583,0,8.312-3.733,8.312-8.322v-68.829v-19.526
				C214.453,119.477,210.725,115.743,206.142,115.743z"/>
			<path fill="#333333" d="M206.848,116.449h-75.797c-4.582,0-8.312,3.732-8.312,8.322v19.525v68.829
				c0,4.589,3.729,8.323,8.312,8.323h75.797c4.582,0,8.311-3.734,8.311-8.323v-68.829v-19.525
				C215.158,120.182,211.43,116.449,206.848,116.449z"/>
			<path fill="#333333" d="M207.553,117.154h-75.796c-4.583,0-8.312,3.733-8.312,8.322v19.525v68.83
				c0,4.589,3.729,8.322,8.312,8.322h75.796c4.582,0,8.312-3.733,8.312-8.322v-68.83v-19.525
				C215.864,120.888,212.135,117.154,207.553,117.154z"/>
			<path fill="#333333" d="M208.258,117.859h-75.796c-4.583,0-8.312,3.733-8.312,8.322v19.526v68.829
				c0,4.589,3.729,8.322,8.312,8.322h75.796c4.583,0,8.312-3.733,8.312-8.322v-68.829v-19.526
				C216.569,121.593,212.841,117.859,208.258,117.859z"/>
			<path fill="#333333" d="M208.963,118.565h-75.795c-4.583,0-8.313,3.733-8.313,8.321v19.527v68.828
				c0,4.59,3.729,8.323,8.313,8.323h75.795c4.584,0,8.313-3.733,8.313-8.323v-68.828v-19.527
				C217.275,122.299,213.547,118.565,208.963,118.565z"/>
			<path fill="#333333" d="M209.669,119.271h-75.796c-4.583,0-8.312,3.732-8.312,8.321v19.526v68.829
				c0,4.589,3.729,8.322,8.312,8.322h75.796c4.583,0,8.312-3.733,8.312-8.322v-68.829v-19.526
				C217.98,123.004,214.252,119.271,209.669,119.271z"/>
			<path fill="#333333" d="M210.374,119.977h-75.796c-4.582,0-8.311,3.732-8.311,8.322v19.525v68.83
				c0,4.588,3.729,8.322,8.311,8.322h75.796c4.583,0,8.312-3.734,8.312-8.322v-68.83v-19.525
				C218.686,123.709,214.957,119.977,210.374,119.977z"/>
			<path fill="#333333" d="M211.08,120.682h-75.796c-4.583,0-8.312,3.733-8.312,8.322v19.525v68.83c0,4.588,3.729,8.322,8.312,8.322
				h75.796c4.583,0,8.311-3.734,8.311-8.322v-68.83v-19.525C219.391,124.415,215.663,120.682,211.08,120.682z"/>
			<path fill="#333333" d="M211.785,121.387h-75.796c-4.583,0-8.312,3.733-8.312,8.322v19.526v68.829
				c0,4.589,3.729,8.322,8.312,8.322h75.796c4.583,0,8.312-3.733,8.312-8.322v-68.829v-19.526
				C220.097,125.12,216.368,121.387,211.785,121.387z"/>
			<path fill="#333333" d="M212.49,122.092h-75.796c-4.583,0-8.312,3.734-8.312,8.322v19.527v68.828
				c0,4.589,3.729,8.323,8.312,8.323h75.796c4.584,0,8.312-3.734,8.312-8.323v-68.828v-19.527
				C220.802,125.826,217.074,122.092,212.49,122.092z"/>
			<path fill="#333333" d="M213.196,122.798H137.4c-4.583,0-8.312,3.733-8.312,8.322v19.526v68.829c0,4.589,3.729,8.322,8.312,8.322
				h75.796c4.583,0,8.312-3.733,8.312-8.322v-68.829V131.12C221.508,126.531,217.779,122.798,213.196,122.798z"/>
			<path fill="#333333" d="M213.901,123.504h-75.796c-4.583,0-8.312,3.732-8.312,8.321v19.526v68.829
				c0,4.589,3.729,8.323,8.312,8.323h75.796c4.583,0,8.312-3.734,8.312-8.323v-68.829v-19.526
				C222.213,127.236,218.484,123.504,213.901,123.504z"/>
			<path fill="#333333" d="M214.607,124.209h-75.796c-4.583,0-8.312,3.733-8.312,8.322v19.526v68.829
				c0,4.589,3.729,8.322,8.312,8.322h75.796c4.582,0,8.312-3.733,8.312-8.322v-68.829v-19.526
				C222.919,127.942,219.189,124.209,214.607,124.209z"/>
			<path fill="#333333" d="M215.313,124.914h-75.796c-4.583,0-8.312,3.733-8.312,8.322v19.526v68.829
				c0,4.589,3.729,8.322,8.312,8.322h75.796c4.583,0,8.312-3.733,8.312-8.322v-68.829v-19.526
				C223.624,128.647,219.896,124.914,215.313,124.914z"/>
			<path fill="#333333" d="M216.018,125.619h-75.796c-4.583,0-8.312,3.733-8.312,8.322v19.526v68.83
				c0,4.588,3.729,8.322,8.312,8.322h75.796c4.584,0,8.313-3.734,8.313-8.322v-68.83v-19.526
				C224.33,129.353,220.602,125.619,216.018,125.619z"/>
			<path fill="#333333" d="M216.724,126.325h-75.796c-4.583,0-8.312,3.733-8.312,8.322v19.526v68.828
				c0,4.59,3.729,8.323,8.312,8.323h75.796c4.583,0,8.312-3.733,8.312-8.323v-68.828v-19.526
				C225.035,130.059,221.307,126.325,216.724,126.325z"/>
			<path fill="#333333" d="M217.429,127.031h-75.796c-4.583,0-8.312,3.732-8.312,8.321v19.526v68.829
				c0,4.589,3.729,8.323,8.312,8.323h75.796c4.583,0,8.312-3.734,8.312-8.323v-68.829v-19.526
				C225.74,130.764,222.012,127.031,217.429,127.031z"/>
			<path fill="#333333" d="M218.135,127.736h-75.797c-4.582,0-8.311,3.733-8.311,8.322v19.526v68.829
				c0,4.589,3.729,8.322,8.311,8.322h75.797c4.583,0,8.312-3.733,8.312-8.322v-68.829v-19.526
				C226.446,131.47,222.718,127.736,218.135,127.736z"/>
			<path fill="#333333" d="M218.84,128.441h-75.796c-4.583,0-8.312,3.733-8.312,8.322v19.526v68.829
				c0,4.589,3.729,8.322,8.312,8.322h75.796c4.583,0,8.312-3.733,8.312-8.322V156.29v-19.526
				C227.151,132.175,223.423,128.441,218.84,128.441z"/>
			<path fill="#333333" d="M219.545,129.147h-75.796c-4.583,0-8.312,3.732-8.312,8.321v19.526v68.829
				c0,4.59,3.729,8.323,8.312,8.323h75.796c4.583,0,8.312-3.733,8.312-8.323v-68.829v-19.526
				C227.856,132.88,224.128,129.147,219.545,129.147z"/>
			<path fill="#333333" d="M220.251,129.853h-75.796c-4.584,0-8.312,3.733-8.312,8.322v19.526v68.829
				c0,4.589,3.728,8.322,8.312,8.322h75.796c4.583,0,8.312-3.733,8.312-8.322v-68.829v-19.526
				C228.563,133.586,224.834,129.853,220.251,129.853z"/>
			<path fill="#333333" d="M220.956,130.558H145.16c-4.583,0-8.312,3.733-8.312,8.322v19.526v68.829
				c0,4.589,3.729,8.323,8.312,8.323h75.796c4.583,0,8.312-3.734,8.312-8.323v-68.829V138.88
				C229.268,134.291,225.539,130.558,220.956,130.558z"/>
			<path fill="#333333" d="M221.661,131.264h-75.796c-4.583,0-8.311,3.733-8.311,8.321v19.526v68.83
				c0,4.588,3.728,8.322,8.311,8.322h75.796c4.583,0,8.312-3.734,8.312-8.322v-68.83v-19.526
				C229.973,134.997,226.244,131.264,221.661,131.264z"/>
			<path fill="#333333" d="M222.367,131.969h-75.796c-4.583,0-8.312,3.733-8.312,8.322v19.526v68.829
				c0,4.589,3.729,8.322,8.312,8.322h75.796c4.583,0,8.312-3.733,8.312-8.322v-68.829v-19.526
				C230.679,135.702,226.95,131.969,222.367,131.969z"/>
			<path fill="#333333" d="M223.072,132.675h-75.796c-4.583,0-8.312,3.732-8.312,8.321v19.526v68.829
				c0,4.589,3.729,8.323,8.312,8.323h75.796c4.583,0,8.313-3.734,8.313-8.323v-68.829v-19.526
				C231.385,136.407,227.655,132.675,223.072,132.675z"/>
			<path fill="#333333" d="M223.778,133.38h-75.796c-4.583,0-8.312,3.733-8.312,8.322v19.526v68.828c0,4.59,3.729,8.323,8.312,8.323
				h75.796c4.583,0,8.312-3.733,8.312-8.323v-68.828v-19.526C232.09,137.113,228.361,133.38,223.778,133.38z"/>
			<path fill="#333333" d="M224.483,134.085h-75.796c-4.583,0-8.312,3.733-8.312,8.322v19.526v68.829
				c0,4.589,3.729,8.322,8.312,8.322h75.796c4.583,0,8.312-3.733,8.312-8.322v-68.829v-19.526
				C232.795,137.818,229.066,134.085,224.483,134.085z"/>
			<path fill="#333333" d="M225.189,134.791h-75.797c-4.582,0-8.312,3.733-8.312,8.321v19.526v68.829
				c0,4.589,3.729,8.323,8.312,8.323h75.797c4.582,0,8.312-3.734,8.312-8.323v-68.829v-19.526
				C233.501,138.524,229.771,134.791,225.189,134.791z"/>
			<path fill="#333333" d="M225.895,135.496h-75.796c-4.583,0-8.312,3.733-8.312,8.322v19.526v68.829
				c0,4.589,3.729,8.322,8.312,8.322h75.796c4.583,0,8.312-3.733,8.312-8.322v-68.829v-19.526
				C234.206,139.229,230.478,135.496,225.895,135.496z"/>
			<path fill="#333333" d="M226.6,136.201h-75.795c-4.584,0-8.313,3.733-8.313,8.322v19.527v68.828c0,4.589,3.729,8.323,8.313,8.323
				H226.6c4.583,0,8.312-3.734,8.312-8.323v-68.828v-19.527C234.911,139.935,231.183,136.201,226.6,136.201z"/>
			<path fill="#333333" d="M227.305,136.907H151.51c-4.583,0-8.313,3.733-8.313,8.322v19.526v68.829
				c0,4.588,3.729,8.322,8.313,8.322h75.795c4.584,0,8.313-3.734,8.313-8.322v-68.829v-19.526
				C235.617,140.641,231.889,136.907,227.305,136.907z"/>
			<path fill="#333333" d="M228.011,137.612h-75.796c-4.583,0-8.312,3.733-8.312,8.322v19.526v68.829
				c0,4.589,3.729,8.322,8.312,8.322h75.796c4.583,0,8.312-3.733,8.312-8.322v-68.829v-19.526
				C236.322,141.346,232.594,137.612,228.011,137.612z"/>
			<path fill="#333333" d="M228.716,138.318H152.92c-4.582,0-8.311,3.733-8.311,8.322v19.526v68.829
				c0,4.588,3.729,8.321,8.311,8.321h75.796c4.583,0,8.312-3.733,8.312-8.321v-68.829v-19.526
				C237.027,142.052,233.299,138.318,228.716,138.318z"/>
			<path fill="#333333" d="M229.422,139.023h-75.796c-4.583,0-8.312,3.733-8.312,8.322v19.526v68.829
				c0,4.589,3.729,8.322,8.312,8.322h75.796c4.583,0,8.312-3.733,8.312-8.322v-68.829v-19.526
				C237.733,142.757,234.005,139.023,229.422,139.023z"/>
			<path fill="#333333" d="M230.127,139.729h-75.796c-4.583,0-8.312,3.733-8.312,8.322v19.526v68.829
				c0,4.589,3.729,8.322,8.312,8.322h75.796c4.583,0,8.312-3.733,8.312-8.322v-68.829v-19.526
				C238.438,143.462,234.71,139.729,230.127,139.729z"/>
			<path fill="#333333" d="M230.833,140.435h-75.797c-4.582,0-8.311,3.733-8.311,8.322v19.526v68.828
				c0,4.59,3.729,8.322,8.311,8.322h75.797c4.583,0,8.311-3.732,8.311-8.322v-68.828v-19.526
				C239.144,144.168,235.416,140.435,230.833,140.435z"/>
			<path fill="#333333" d="M231.538,141.14h-75.796c-4.583,0-8.312,3.733-8.312,8.322v19.526v68.829
				c0,4.589,3.729,8.322,8.312,8.322h75.796c4.583,0,8.312-3.733,8.312-8.322v-68.829v-19.526
				C239.85,144.873,236.121,141.14,231.538,141.14z"/>
			<path fill="#333333" d="M232.243,141.845h-75.795c-4.584,0-8.313,3.734-8.313,8.323v19.525v68.829
				c0,4.589,3.729,8.322,8.313,8.322h75.795c4.583,0,8.313-3.733,8.313-8.322v-68.829v-19.525
				C240.556,145.579,236.826,141.845,232.243,141.845z"/>
			<path fill="#333333" d="M232.949,142.551h-75.796c-4.583,0-8.312,3.733-8.312,8.322v19.526v68.829
				c0,4.589,3.729,8.322,8.312,8.322h75.796c4.583,0,8.312-3.733,8.312-8.322v-68.829v-19.526
				C241.261,146.284,237.532,142.551,232.949,142.551z"/>
			<path fill="#333333" d="M233.654,143.256h-75.796c-4.583,0-8.312,3.733-8.312,8.322v19.526v68.829
				c0,4.589,3.729,8.322,8.312,8.322h75.796c4.583,0,8.312-3.733,8.312-8.322v-68.829v-19.526
				C241.966,146.989,238.237,143.256,233.654,143.256z"/>
			<path fill="#333333" d="M234.359,143.962h-75.796c-4.583,0-8.311,3.732-8.311,8.321v19.526v68.83
				c0,4.589,3.728,8.321,8.311,8.321h75.796c4.583,0,8.313-3.732,8.313-8.321v-68.83v-19.526
				C242.672,147.694,238.942,143.962,234.359,143.962z"/>
			<path fill="#333333" d="M235.065,144.667H159.27c-4.583,0-8.312,3.733-8.312,8.322v19.526v68.829
				c0,4.589,3.729,8.322,8.312,8.322h75.796c4.583,0,8.312-3.733,8.312-8.322v-68.829v-19.526
				C243.377,148.4,239.648,144.667,235.065,144.667z"/>
			<path fill="#333333" d="M235.771,145.372h-75.797c-4.583,0-8.312,3.733-8.312,8.322v19.526v68.829
				c0,4.589,3.729,8.322,8.312,8.322h75.797c4.582,0,8.311-3.733,8.311-8.322v-68.829v-19.526
				C244.082,149.105,240.354,145.372,235.771,145.372z"/>
			<path fill="#333333" d="M236.477,146.078h-75.796c-4.583,0-8.312,3.733-8.312,8.322v19.526v68.829
				c0,4.589,3.729,8.322,8.312,8.322h75.796c4.582,0,8.312-3.733,8.312-8.322v-68.829V154.4
				C244.788,149.812,241.059,146.078,236.477,146.078z"/>
			<path fill="#333333" d="M237.182,146.783h-75.796c-4.583,0-8.312,3.733-8.312,8.322v19.526v68.829
				c0,4.589,3.729,8.322,8.312,8.322h75.796c4.583,0,8.312-3.733,8.312-8.322v-68.829v-19.526
				C245.493,150.517,241.765,146.783,237.182,146.783z"/>
			<path fill="#333333" d="M237.888,147.488h-75.797c-4.582,0-8.312,3.733-8.312,8.322v19.527v68.828
				c0,4.589,3.729,8.322,8.312,8.322h75.797c4.583,0,8.311-3.733,8.311-8.322v-68.828v-19.527
				C246.198,151.222,242.471,147.488,237.888,147.488z"/>
			<path fill="#333333" d="M238.593,148.194h-75.796c-4.583,0-8.312,3.733-8.312,8.322v19.526v68.829
				c0,4.589,3.729,8.322,8.312,8.322h75.796c4.583,0,8.312-3.733,8.312-8.322v-68.829v-19.526
				C246.904,151.928,243.176,148.194,238.593,148.194z"/>
			<path fill="#333333" d="M239.298,148.899h-75.796c-4.583,0-8.312,3.733-8.312,8.322v19.526v68.829
				c0,4.589,3.729,8.322,8.312,8.322h75.796c4.583,0,8.312-3.733,8.312-8.322v-68.829v-19.526
				C247.609,152.633,243.881,148.899,239.298,148.899z"/>
			<path fill="#333333" d="M240.004,149.605h-75.797c-4.582,0-8.311,3.733-8.311,8.322v19.526v68.829
				c0,4.589,3.729,8.322,8.311,8.322h75.797c4.583,0,8.312-3.733,8.312-8.322v-68.829v-19.526
				C248.315,153.339,244.587,149.605,240.004,149.605z"/>
			<path fill="#333333" d="M240.709,150.311h-75.796c-4.583,0-8.312,3.733-8.312,8.322v19.526v68.829
				c0,4.589,3.729,8.322,8.312,8.322h75.796c4.583,0,8.312-3.733,8.312-8.322v-68.829v-19.526
				C249.021,154.044,245.292,150.311,240.709,150.311z"/>
			<path fill="#333333" d="M241.415,151.016h-75.796c-4.583,0-8.313,3.733-8.313,8.323v19.526v68.828
				c0,4.589,3.729,8.322,8.313,8.322h75.796c4.582,0,8.312-3.733,8.312-8.322v-68.828v-19.526
				C249.727,154.749,245.997,151.016,241.415,151.016z"/>
			<path fill="#333333" d="M242.12,151.722h-75.796c-4.583,0-8.312,3.733-8.312,8.322v19.526v68.829
				c0,4.589,3.729,8.322,8.312,8.322h75.796c4.583,0,8.311-3.733,8.311-8.322V179.57v-19.526
				C250.431,155.455,246.703,151.722,242.12,151.722z"/>
			<path fill="#333333" d="M242.825,152.427h-75.796c-4.583,0-8.312,3.733-8.312,8.322v19.526v68.829
				c0,4.589,3.729,8.322,8.312,8.322h75.796c4.583,0,8.312-3.733,8.312-8.322v-68.829v-19.526
				C251.137,156.16,247.408,152.427,242.825,152.427z"/>
			<path fill="#333333" d="M243.531,153.132h-75.797c-4.583,0-8.311,3.734-8.311,8.323v19.525v68.83
				c0,4.588,3.728,8.322,8.311,8.322h75.797c4.583,0,8.311-3.734,8.311-8.322v-68.83v-19.525
				C251.842,156.866,248.114,153.132,243.531,153.132z"/>
			<path fill="#333333" d="M244.236,153.838H168.44c-4.583,0-8.312,3.733-8.312,8.322v19.526v68.829
				c0,4.589,3.729,8.322,8.312,8.322h75.796c4.583,0,8.312-3.733,8.312-8.322v-68.829V162.16
				C252.548,157.571,248.819,153.838,244.236,153.838z"/>
		</g>
	</g>
	<g>
		
			<path fill="#A0DAD7" stroke="#333333" stroke-width="2" stroke-linecap="round" stroke-linejoin="round" stroke-miterlimit="10" d="
			M39.79,129.177c0,4.044,3.273,7.323,7.312,7.323h75.797c4.038,0,7.312-3.279,7.312-7.323V60.348H39.79V129.177z"/>
		
			<path fill="#025061" stroke="#333333" stroke-width="2" stroke-linecap="round" stroke-linejoin="round" stroke-miterlimit="10" d="
			M122.898,33.5H47.102c-4.038,0-7.312,3.277-7.312,7.321v19.526h90.42V40.821C130.21,36.777,126.937,33.5,122.898,33.5z"/>
		
			<ellipse fill="#F2E085" stroke="#333333" stroke-width="2" stroke-linecap="round" stroke-linejoin="round" stroke-miterlimit="10" cx="54.404" cy="46.924" rx="5.329" ry="5.337"/>
		
			<ellipse fill="#F2E085" stroke="#333333" stroke-width="2" stroke-linecap="round" stroke-linejoin="round" stroke-miterlimit="10" cx="69.525" cy="46.924" rx="5.329" ry="5.337"/>
		
			<ellipse fill="#F2E085" stroke="#333333" stroke-width="2" stroke-linecap="round" stroke-linejoin="round" stroke-miterlimit="10" cx="84.646" cy="46.924" rx="5.329" ry="5.337"/>
		
			<path fill="#FCAB55" stroke="#333333" stroke-width="2" stroke-linecap="round" stroke-linejoin="round" stroke-miterlimit="10" d="
			M113.457,125.179H56.543c-2.761,0-5-2.239-5-5v-43.51c0-2.762,2.239-5,5-5h56.914c2.761,0,5,2.238,5,5v43.51
			C118.457,122.939,116.218,125.179,113.457,125.179z"/>
		<g>
			
				<rect x="114.865" y="80.226" fill="#F2E085" stroke="#333333" stroke-width="2" stroke-linecap="round" stroke-linejoin="round" stroke-miterlimit="10" width="7.225" height="9.48"/>
			
				<rect x="114.865" y="107.141" fill="#F2E085" stroke="#333333" stroke-width="2" stroke-linecap="round" stroke-linejoin="round" stroke-miterlimit="10" width="7.225" height="9.481"/>
		</g>
		<path fill="none" stroke="#F2F2F2" stroke-width="2" stroke-linecap="round" stroke-linejoin="round" stroke-miterlimit="10" d="
			M57.807,94.617v21.452c0,1.597,1.294,2.893,2.89,2.893h30.485"/>
	</g>
</g>
</svg>
