<?xml version="1.0" encoding="utf-8"?>
<!-- Generator: Adobe Illustrator 16.0.0, SVG Export Plug-In . SVG Version: 6.00 Build 0)  -->
<!DOCTYPE svg PUBLIC "-//W3C//DTD SVG 1.1//EN" "http://www.w3.org/Graphics/SVG/1.1/DTD/svg11.dtd">
<svg version="1.1" id="Layer_1" xmlns="http://www.w3.org/2000/svg" xmlns:xlink="http://www.w3.org/1999/xlink" x="0px" y="0px"
	 width="170px" height="170px" viewBox="0 0 170 170" enable-background="new 0 0 170 170" xml:space="preserve">
<g>
	
		<path fill="#F2F2F2" stroke="#333333" stroke-width="2" stroke-linecap="round" stroke-linejoin="round" stroke-miterlimit="10" d="
		M85.95,167.635L85.95,167.635c45.564,0,82.5-36.937,82.5-82.5v-0.001c0-45.563-36.936-82.499-82.5-82.499l0,0
		c-45.563,0-82.5,36.937-82.5,82.499v0.001C3.45,130.698,40.386,167.635,85.95,167.635z"/>
</g>
<path fill="#333333" d="M132.561,109.348c-0.004-0.026-0.02-0.047-0.027-0.072l-2.35-10.731c-0.012-0.055-0.029-0.109-0.051-0.161
	c-1.049-2.592-3.537-4.267-6.338-4.267h-19.094c-0.383-7.168-4.801-13.272-11.039-16.088l2.227-55.354
	c0.01-0.271-0.09-0.536-0.279-0.732c-0.188-0.196-0.447-0.308-0.721-0.308H76.998c-0.272,0-0.532,0.111-0.721,0.308
	c-0.189,0.196-0.289,0.461-0.278,0.732l2.226,55.354c-6.238,2.815-10.656,8.92-11.038,16.088H48.091
	c-2.802,0-5.289,1.675-6.337,4.267c-0.021,0.053-0.038,0.106-0.05,0.161l-2.361,10.782c-0.001,0.003,0.001,0.006,0,0.009
	c-0.001,0.005-0.004,0.008-0.005,0.013l-4.334,22.094c-0.058,0.293,0.02,0.597,0.209,0.828c0.19,0.23,0.474,0.364,0.772,0.364
	h99.928c0.299,0,0.582-0.134,0.771-0.364c0.189-0.231,0.268-0.535,0.209-0.828L132.561,109.348z"/>
<line fill="none" x1="192.498" y1="183.682" x2="85.95" y2="77.134"/>
<g>
	<path fill="none" d="M85.95,167.635L85.95,167.635c45.564,0,82.5-36.937,82.5-82.5v-0.001c0-45.563-36.936-82.499-82.5-82.499l0,0
		c-45.563,0-82.5,36.937-82.5,82.499v0.001C3.45,130.698,40.386,167.635,85.95,167.635z"/>
</g>
<g>
	
		<polygon fill="#A0DAD7" stroke="#333333" stroke-width="2" stroke-linecap="round" stroke-linejoin="round" stroke-miterlimit="10" points="
		94.889,22.634 76.998,22.634 79.332,80.686 92.557,80.686 	"/>
	
		<ellipse fill="#F2E085" stroke="#333333" stroke-width="2" stroke-linecap="round" stroke-linejoin="round" stroke-miterlimit="10" cx="85.944" cy="95.116" rx="17.808" ry="17.761"/>
	
		<polygon fill="#025061" stroke="#333333" stroke-width="2" stroke-linecap="round" stroke-linejoin="round" stroke-miterlimit="10" points="
		131.58,109.54 40.32,109.54 35.986,131.634 135.914,131.634 	"/>
	
		<path fill="#FCAB55" stroke="#333333" stroke-width="2" stroke-linecap="round" stroke-linejoin="round" stroke-miterlimit="10" d="
		M123.797,95.116H48.091c-2.379,0-4.521,1.441-5.41,3.642L40.32,109.54h91.249l-2.361-10.782
		C128.316,96.558,126.176,95.116,123.797,95.116z"/>
	
		<line fill="none" stroke="#F2F2F2" stroke-width="2" stroke-linecap="round" stroke-linejoin="round" stroke-miterlimit="10" x1="43.759" y1="126.01" x2="95.768" y2="126.01"/>
	
		<line fill="none" stroke="#F2F2F2" stroke-width="2" stroke-linecap="round" stroke-linejoin="round" stroke-miterlimit="10" x1="100.824" y1="126.01" x2="107.586" y2="126.01"/>
</g>
</svg>
