<?xml version="1.0" encoding="utf-8"?>
<!-- Generator: Adobe Illustrator 16.0.0, SVG Export Plug-In . SVG Version: 6.00 Build 0)  -->
<!DOCTYPE svg PUBLIC "-//W3C//DTD SVG 1.1//EN" "http://www.w3.org/Graphics/SVG/1.1/DTD/svg11.dtd">
<svg version="1.1" id="Layer_1" xmlns="http://www.w3.org/2000/svg" xmlns:xlink="http://www.w3.org/1999/xlink" x="0px" y="0px"
	 width="170px" height="170px" viewBox="0 0 170 170" enable-background="new 0 0 170 170" xml:space="preserve">
<g>
	
		<path fill="#F2F2F2" stroke="#333333" stroke-width="2" stroke-linecap="round" stroke-linejoin="round" stroke-miterlimit="10" d="
		M85,167.5L85,167.5c45.563,0,82.5-36.937,82.5-82.5v0c0-45.563-36.937-82.5-82.5-82.5l0,0C39.437,2.5,2.5,39.437,2.5,85v0
		C2.5,130.563,39.437,167.5,85,167.5z"/>
</g>
<g>
	<g>
		<defs>
			<path id="SVGID_1_" d="M85,167.5L85,167.5c45.563,0,82.5-36.937,82.5-82.5v0c0-45.563-36.937-82.5-82.5-82.5l0,0
				C39.437,2.5,2.5,39.437,2.5,85v0C2.5,130.563,39.437,167.5,85,167.5z"/>
		</defs>
		<clipPath id="SVGID_2_">
			<use xlink:href="#SVGID_1_"  overflow="visible"/>
		</clipPath>
		<g opacity="0.1" clip-path="url(#SVGID_2_)">
			<path fill="#333333" d="M122.898,32.5H47.102c-4.583,0-8.312,3.733-8.312,8.322v19.526v68.829c0,4.589,3.729,8.322,8.312,8.322
				h75.797c4.583,0,8.312-3.733,8.312-8.322V60.349V40.822C131.21,36.233,127.481,32.5,122.898,32.5z"/>
			<path fill="#333333" d="M123.605,33.207H47.809c-4.583,0-8.312,3.733-8.312,8.322v19.527v68.829c0,4.59,3.729,8.322,8.312,8.322
				h75.797c4.583,0,8.313-3.732,8.313-8.322V61.056V41.529C131.918,36.94,128.188,33.207,123.605,33.207z"/>
			<path fill="#333333" d="M124.314,33.916H48.517c-4.583,0-8.312,3.733-8.312,8.322v19.526v68.829c0,4.59,3.729,8.323,8.312,8.323
				h75.797c4.583,0,8.312-3.733,8.312-8.323V61.764V42.238C132.626,37.649,128.897,33.916,124.314,33.916z"/>
			<path fill="#333333" d="M125.021,34.623H49.225c-4.583,0-8.312,3.733-8.312,8.322v19.526v68.829c0,4.589,3.729,8.322,8.312,8.322
				h75.797c4.583,0,8.312-3.733,8.312-8.322V62.472V42.945C133.333,38.356,129.604,34.623,125.021,34.623z"/>
			<path fill="#333333" d="M125.729,35.331H49.932c-4.583,0-8.312,3.733-8.312,8.322v19.526v68.83c0,4.588,3.729,8.322,8.312,8.322
				h75.797c4.582,0,8.311-3.734,8.311-8.322v-68.83V43.653C134.04,39.064,130.312,35.331,125.729,35.331z"/>
			<path fill="#333333" d="M126.437,36.038H50.64c-4.583,0-8.312,3.733-8.312,8.322v19.526v68.829c0,4.589,3.729,8.322,8.312,8.322
				h75.797c4.583,0,8.312-3.733,8.312-8.322V63.887V44.36C134.748,39.771,131.02,36.038,126.437,36.038z"/>
			<path fill="#333333" d="M127.145,36.746H51.348c-4.583,0-8.312,3.733-8.312,8.322v19.526v68.829c0,4.589,3.729,8.322,8.312,8.322
				h75.797c4.583,0,8.312-3.733,8.312-8.322V64.595V45.068C135.456,40.479,131.728,36.746,127.145,36.746z"/>
			<path fill="#333333" d="M127.853,37.454H52.055c-4.583,0-8.312,3.734-8.312,8.322v19.526v68.83c0,4.589,3.729,8.321,8.312,8.321
				h75.797c4.582,0,8.312-3.732,8.312-8.321v-68.83V45.776C136.164,41.188,132.435,37.454,127.853,37.454z"/>
			<path fill="#333333" d="M128.56,38.162H52.763c-4.583,0-8.312,3.733-8.312,8.322V66.01v68.829c0,4.589,3.729,8.322,8.312,8.322
				h75.797c4.583,0,8.312-3.733,8.312-8.322V66.01V46.483C136.871,41.895,133.143,38.162,128.56,38.162z"/>
			<path fill="#333333" d="M129.268,38.869H53.471c-4.583,0-8.312,3.734-8.312,8.323v19.526v68.829c0,4.589,3.729,8.322,8.312,8.322
				h75.796c4.583,0,8.312-3.733,8.312-8.322V66.718V47.192C137.579,42.603,133.851,38.869,129.268,38.869z"/>
			<path fill="#333333" d="M129.976,39.577H54.178c-4.583,0-8.312,3.733-8.312,8.322v19.527v68.829c0,4.589,3.729,8.322,8.312,8.322
				h75.797c4.583,0,8.312-3.733,8.312-8.322V67.426V47.899C138.287,43.31,134.559,39.577,129.976,39.577z"/>
			<path fill="#333333" d="M130.683,40.285H54.886c-4.583,0-8.312,3.733-8.312,8.322v19.526v68.829c0,4.589,3.728,8.322,8.312,8.322
				h75.796c4.583,0,8.312-3.733,8.312-8.322V68.133V48.607C138.994,44.018,135.266,40.285,130.683,40.285z"/>
			<path fill="#333333" d="M131.391,40.992H55.594c-4.583,0-8.311,3.733-8.311,8.323v19.526v68.83c0,4.588,3.729,8.321,8.311,8.321
				h75.797c4.583,0,8.312-3.733,8.312-8.321v-68.83V49.315C139.702,44.726,135.974,40.992,131.391,40.992z"/>
			<path fill="#333333" d="M132.099,41.7H56.302c-4.583,0-8.312,3.733-8.312,8.322v19.527v68.829c0,4.589,3.728,8.322,8.312,8.322
				h75.797c4.583,0,8.312-3.733,8.312-8.322V69.549V50.022C140.41,45.434,136.682,41.7,132.099,41.7z"/>
			<path fill="#333333" d="M132.806,42.407H57.009c-4.583,0-8.312,3.733-8.312,8.323v19.526v68.829c0,4.589,3.729,8.323,8.312,8.323
				h75.796c4.583,0,8.312-3.734,8.312-8.323V70.256V50.73C141.117,46.141,137.389,42.407,132.806,42.407z"/>
			<path fill="#333333" d="M133.514,43.115H57.717c-4.583,0-8.312,3.733-8.312,8.322v19.526v68.829c0,4.589,3.729,8.322,8.312,8.322
				h75.797c4.583,0,8.312-3.733,8.312-8.322V70.964V51.438C141.825,46.849,138.097,43.115,133.514,43.115z"/>
			<path fill="#333333" d="M134.222,43.823H58.425c-4.583,0-8.312,3.733-8.312,8.322v19.526v68.829c0,4.589,3.729,8.322,8.312,8.322
				h75.797c4.583,0,8.312-3.733,8.312-8.322V71.672V52.146C142.533,47.557,138.805,43.823,134.222,43.823z"/>
			<path fill="#333333" d="M134.93,44.531H59.132c-4.583,0-8.311,3.733-8.311,8.322v19.526v68.829c0,4.589,3.728,8.322,8.311,8.322
				h75.797c4.582,0,8.312-3.733,8.312-8.322V72.379V52.853C143.241,48.264,139.512,44.531,134.93,44.531z"/>
			<path fill="#333333" d="M135.637,45.238H59.84c-4.583,0-8.312,3.733-8.312,8.322v19.526v68.829c0,4.589,3.729,8.322,8.312,8.322
				h75.796c4.583,0,8.312-3.733,8.312-8.322V73.087V53.561C143.948,48.972,140.22,45.238,135.637,45.238z"/>
			<path fill="#333333" d="M136.345,45.946H60.548c-4.583,0-8.311,3.733-8.311,8.322v19.527v68.829c0,4.589,3.728,8.322,8.311,8.322
				h75.797c4.583,0,8.312-3.733,8.312-8.322V73.795V54.269C144.656,49.68,140.928,45.946,136.345,45.946z"/>
			<path fill="#333333" d="M137.053,46.654H61.256c-4.583,0-8.312,3.733-8.312,8.322v19.527v68.829c0,4.589,3.729,8.322,8.312,8.322
				h75.797c4.583,0,8.312-3.733,8.312-8.322V74.503V54.976C145.364,50.388,141.636,46.654,137.053,46.654z"/>
			<path fill="#333333" d="M137.761,47.362H61.963c-4.583,0-8.312,3.733-8.312,8.322V75.21v68.829c0,4.59,3.728,8.322,8.312,8.322
				h75.797c4.582,0,8.311-3.732,8.311-8.322V75.21V55.684C146.071,51.095,142.343,47.362,137.761,47.362z"/>
			<path fill="#333333" d="M138.468,48.069H62.67c-4.583,0-8.311,3.733-8.311,8.322v19.526v68.829c0,4.589,3.729,8.322,8.311,8.322
				h75.797c4.583,0,8.312-3.733,8.312-8.322V75.918V56.392C146.779,51.803,143.051,48.069,138.468,48.069z"/>
			<path fill="#333333" d="M139.175,48.777H63.378c-4.583,0-8.312,3.733-8.312,8.322v19.526v68.83c0,4.588,3.729,8.321,8.312,8.321
				h75.796c4.583,0,8.312-3.733,8.312-8.321v-68.83V57.099C147.486,52.51,143.758,48.777,139.175,48.777z"/>
			<path fill="#333333" d="M139.884,49.485H64.086c-4.583,0-8.312,3.733-8.312,8.322v19.526v68.83c0,4.588,3.729,8.322,8.312,8.322
				h75.797c4.582,0,8.312-3.734,8.312-8.322v-68.83V57.807C148.195,53.218,144.466,49.485,139.884,49.485z"/>
			<path fill="#333333" d="M140.591,50.192H64.794c-4.583,0-8.312,3.733-8.312,8.322v19.526v68.829c0,4.589,3.729,8.322,8.312,8.322
				h75.797c4.583,0,8.312-3.733,8.312-8.322V78.041V58.515C148.902,53.926,145.174,50.192,140.591,50.192z"/>
			<path fill="#333333" d="M141.299,50.9H65.501c-4.583,0-8.312,3.733-8.312,8.322v19.526v68.83c0,4.589,3.729,8.322,8.312,8.322
				h75.797c4.583,0,8.311-3.733,8.311-8.322v-68.83V59.223C149.609,54.633,145.882,50.9,141.299,50.9z"/>
			<path fill="#333333" d="M142.007,51.608H66.21c-4.583,0-8.312,3.733-8.312,8.322v19.526v68.83c0,4.589,3.728,8.322,8.312,8.322
				h75.797c4.583,0,8.312-3.733,8.312-8.322v-68.83V59.93C150.318,55.341,146.59,51.608,142.007,51.608z"/>
			<path fill="#333333" d="M142.714,52.316H66.917c-4.583,0-8.312,3.733-8.312,8.322v19.526v68.829c0,4.589,3.729,8.322,8.312,8.322
				h75.796c4.583,0,8.312-3.733,8.312-8.322V80.164V60.638C151.025,56.049,147.297,52.316,142.714,52.316z"/>
			<path fill="#333333" d="M143.422,53.023H67.625c-4.583,0-8.311,3.733-8.311,8.323v19.526v68.83c0,4.589,3.729,8.322,8.311,8.322
				h75.797c4.583,0,8.312-3.733,8.312-8.322v-68.83V61.346C151.733,56.756,148.005,53.023,143.422,53.023z"/>
			<path fill="#333333" d="M144.129,53.731H68.333c-4.583,0-8.312,3.733-8.312,8.322v19.526v68.829c0,4.589,3.729,8.323,8.312,8.323
				h75.796c4.583,0,8.312-3.734,8.312-8.323V81.579V62.053C152.44,57.464,148.712,53.731,144.129,53.731z"/>
			<path fill="#333333" d="M144.837,54.438H69.04c-4.583,0-8.312,3.733-8.312,8.322v19.526v68.829c0,4.589,3.729,8.322,8.312,8.322
				h75.797c4.583,0,8.312-3.733,8.312-8.322V82.287V62.761C153.148,58.172,149.42,54.438,144.837,54.438z"/>
			<path fill="#333333" d="M145.545,55.146H69.748c-4.583,0-8.312,3.733-8.312,8.322v19.526v68.829c0,4.589,3.729,8.322,8.312,8.322
				h75.797c4.583,0,8.312-3.733,8.312-8.322V82.995V63.469C153.856,58.88,150.128,55.146,145.545,55.146z"/>
			<path fill="#333333" d="M146.253,55.854H70.456c-4.583,0-8.311,3.732-8.311,8.322v19.526v68.829c0,4.59,3.728,8.323,8.311,8.323
				h75.797c4.583,0,8.311-3.733,8.311-8.323V83.703V64.177C154.563,59.587,150.836,55.854,146.253,55.854z"/>
			<path fill="#333333" d="M146.96,56.562H71.164c-4.583,0-8.312,3.733-8.312,8.322V84.41v68.829c0,4.589,3.729,8.322,8.312,8.322
				h75.796c4.583,0,8.312-3.733,8.312-8.322V84.41V64.884C155.271,60.295,151.543,56.562,146.96,56.562z"/>
			<path fill="#333333" d="M147.668,57.27H71.871c-4.583,0-8.311,3.733-8.311,8.323v19.526v68.829c0,4.589,3.728,8.322,8.311,8.322
				h75.797c4.583,0,8.312-3.733,8.312-8.322V85.118V65.592C155.979,61.003,152.251,57.27,147.668,57.27z"/>
			<path fill="#333333" d="M148.376,57.978H72.579c-4.583,0-8.312,3.733-8.312,8.322v19.526v68.83c0,4.589,3.729,8.322,8.312,8.322
				h75.797c4.583,0,8.312-3.733,8.312-8.322v-68.83V66.3C156.688,61.71,152.959,57.978,148.376,57.978z"/>
			<path fill="#333333" d="M149.083,58.685H73.287c-4.583,0-8.312,3.734-8.312,8.322v19.526v68.83c0,4.588,3.729,8.322,8.312,8.322
				h75.796c4.583,0,8.312-3.734,8.312-8.322v-68.83V67.007C157.395,62.418,153.666,58.685,149.083,58.685z"/>
			<path fill="#333333" d="M149.791,59.393H73.994c-4.583,0-8.312,3.733-8.312,8.322v19.526v68.829c0,4.589,3.728,8.322,8.312,8.322
				h75.797c4.583,0,8.312-3.733,8.312-8.322V87.241V67.715C158.103,63.126,154.374,59.393,149.791,59.393z"/>
			<path fill="#333333" d="M150.498,60.1H74.702c-4.583,0-8.312,3.733-8.312,8.322v19.526v68.829c0,4.589,3.729,8.322,8.312,8.322
				h75.796c4.583,0,8.313-3.733,8.313-8.322V87.948V68.422C158.811,63.833,155.081,60.1,150.498,60.1z"/>
			<path fill="#333333" d="M151.206,60.808H75.41c-4.583,0-8.312,3.733-8.312,8.323v19.525v68.83c0,4.588,3.728,8.321,8.312,8.321
				h75.796c4.583,0,8.312-3.733,8.312-8.321v-68.83V69.131C159.518,64.542,155.789,60.808,151.206,60.808z"/>
			<path fill="#333333" d="M151.914,61.516H76.118c-4.583,0-8.312,3.733-8.312,8.322v19.526v68.829c0,4.589,3.729,8.322,8.312,8.322
				h75.796c4.583,0,8.312-3.733,8.312-8.322V89.364V69.838C160.226,65.249,156.497,61.516,151.914,61.516z"/>
			<path fill="#333333" d="M152.622,62.223H76.825c-4.583,0-8.312,3.733-8.312,8.323v19.526v68.829c0,4.589,3.729,8.322,8.312,8.322
				h75.797c4.583,0,8.312-3.733,8.312-8.322V90.072V70.546C160.934,65.957,157.205,62.223,152.622,62.223z"/>
			<path fill="#333333" d="M153.33,62.932H77.533c-4.583,0-8.311,3.733-8.311,8.322V90.78v68.829c0,4.588,3.729,8.322,8.311,8.322
				h75.797c4.583,0,8.312-3.734,8.312-8.322V90.78V71.254C161.642,66.665,157.913,62.932,153.33,62.932z"/>
			<path fill="#333333" d="M154.037,63.639H78.241c-4.583,0-8.312,3.733-8.312,8.322v19.526v68.829c0,4.589,3.729,8.322,8.312,8.322
				h75.796c4.583,0,8.312-3.733,8.312-8.322V91.487V71.961C162.349,67.372,158.62,63.639,154.037,63.639z"/>
			<path fill="#333333" d="M154.745,64.347H78.948c-4.583,0-8.312,3.733-8.312,8.322v19.526v68.829c0,4.589,3.729,8.322,8.312,8.322
				h75.797c4.583,0,8.312-3.733,8.312-8.322V92.195V72.669C163.057,68.08,159.328,64.347,154.745,64.347z"/>
			<path fill="#333333" d="M155.453,65.054H79.656c-4.583,0-8.311,3.733-8.311,8.322v19.526v68.83c0,4.588,3.728,8.322,8.311,8.322
				h75.797c4.582,0,8.311-3.734,8.311-8.322v-68.83V73.376C163.764,68.787,160.035,65.054,155.453,65.054z"/>
			<path fill="#333333" d="M156.16,65.762H80.363c-4.583,0-8.312,3.733-8.312,8.322V93.61v68.829c0,4.589,3.729,8.322,8.312,8.322
				h75.797c4.583,0,8.312-3.733,8.312-8.322V93.61V74.084C164.472,69.495,160.743,65.762,156.16,65.762z"/>
			<path fill="#333333" d="M156.868,66.47H81.072c-4.583,0-8.312,3.733-8.312,8.322v19.526v68.829c0,4.589,3.728,8.322,8.312,8.322
				h75.796c4.583,0,8.312-3.733,8.312-8.322V94.318V74.792C165.18,70.203,161.451,66.47,156.868,66.47z"/>
			<path fill="#333333" d="M157.576,67.178H81.779c-4.583,0-8.312,3.733-8.312,8.322v19.525v68.83c0,4.589,3.728,8.322,8.312,8.322
				h75.797c4.582,0,8.312-3.733,8.312-8.322v-68.83V75.5C165.888,70.911,162.158,67.178,157.576,67.178z"/>
			<path fill="#333333" d="M158.283,67.885H82.486c-4.583,0-8.311,3.733-8.311,8.323v19.526v68.829c0,4.589,3.728,8.322,8.311,8.322
				h75.797c4.583,0,8.312-3.733,8.312-8.322V95.733V76.208C166.595,71.618,162.866,67.885,158.283,67.885z"/>
			<path fill="#333333" d="M158.991,68.593H83.195c-4.583,0-8.312,3.733-8.312,8.322v19.526v68.83c0,4.588,3.728,8.321,8.312,8.321
				h75.796c4.583,0,8.312-3.733,8.312-8.321v-68.83V76.915C167.303,72.326,163.574,68.593,158.991,68.593z"/>
			<path fill="#333333" d="M159.699,69.301H83.902c-4.583,0-8.312,3.733-8.312,8.322v19.526v68.829c0,4.588,3.728,8.322,8.312,8.322
				h75.797c4.583,0,8.311-3.734,8.311-8.322V97.149V77.623C168.01,73.034,164.282,69.301,159.699,69.301z"/>
			<path fill="#333333" d="M160.406,70.008H84.61c-4.583,0-8.312,3.733-8.312,8.322v19.526v68.83c0,4.588,3.729,8.322,8.312,8.322
				h75.796c4.583,0,8.312-3.734,8.312-8.322v-68.83V78.331C168.718,73.741,164.989,70.008,160.406,70.008z"/>
			<path fill="#333333" d="M161.114,70.716H85.317c-4.583,0-8.312,3.733-8.312,8.322v19.526v68.829c0,4.589,3.729,8.322,8.312,8.322
				h75.797c4.583,0,8.312-3.733,8.312-8.322V98.564V79.038C169.426,74.449,165.697,70.716,161.114,70.716z"/>
			<path fill="#333333" d="M161.822,71.423H86.025c-4.583,0-8.312,3.733-8.312,8.322v19.526v68.83c0,4.588,3.729,8.322,8.312,8.322
				h75.797c4.582,0,8.311-3.734,8.311-8.322v-68.83V79.746C170.133,75.156,166.404,71.423,161.822,71.423z"/>
			<path fill="#333333" d="M162.529,72.132H86.732c-4.583,0-8.311,3.733-8.311,8.322V99.98v68.829c0,4.589,3.728,8.321,8.311,8.321
				h75.797c4.583,0,8.313-3.732,8.313-8.321V99.98V80.454C170.842,75.865,167.112,72.132,162.529,72.132z"/>
			<path fill="#333333" d="M163.237,72.839H87.44c-4.583,0-8.311,3.733-8.311,8.323v19.526v68.83c0,4.588,3.729,8.322,8.311,8.322
				h75.797c4.583,0,8.312-3.734,8.312-8.322v-68.83V81.162C171.549,76.572,167.82,72.839,163.237,72.839z"/>
			<path fill="#333333" d="M163.945,73.547H88.148c-4.583,0-8.312,3.733-8.312,8.322v19.526v68.829c0,4.589,3.729,8.322,8.312,8.322
				h75.797c4.583,0,8.312-3.733,8.312-8.322v-68.829V81.869C172.257,77.28,168.528,73.547,163.945,73.547z"/>
			<path fill="#333333" d="M164.652,74.254H88.855c-4.583,0-8.312,3.733-8.312,8.322v19.526v68.829c0,4.589,3.729,8.322,8.312,8.322
				h75.797c4.583,0,8.312-3.733,8.312-8.322v-68.829V82.577C172.964,77.987,169.235,74.254,164.652,74.254z"/>
			<path fill="#333333" d="M165.361,74.962H89.564c-4.584,0-8.312,3.733-8.312,8.322v19.526v68.829c0,4.589,3.728,8.322,8.312,8.322
				h75.797c4.582,0,8.311-3.733,8.311-8.322v-68.829V83.284C173.672,78.695,169.943,74.962,165.361,74.962z"/>
			<path fill="#333333" d="M166.068,75.67H90.271c-4.583,0-8.312,3.733-8.312,8.322v19.526v68.829c0,4.589,3.729,8.322,8.312,8.322
				h75.797c4.583,0,8.312-3.733,8.312-8.322v-68.829V83.993C174.38,79.403,170.651,75.67,166.068,75.67z"/>
			<path fill="#333333" d="M166.775,76.377H90.979c-4.583,0-8.312,3.733-8.312,8.323v19.526v68.829c0,4.589,3.729,8.322,8.312,8.322
				h75.796c4.584,0,8.312-3.733,8.312-8.322v-68.829V84.7C175.087,80.111,171.359,76.377,166.775,76.377z"/>
			<path fill="#333333" d="M167.483,77.085H91.687c-4.583,0-8.312,3.733-8.312,8.322v19.526v68.829c0,4.589,3.729,8.322,8.312,8.322
				h75.797c4.583,0,8.312-3.733,8.312-8.322v-68.829V85.407C175.795,80.818,172.066,77.085,167.483,77.085z"/>
			<path fill="#333333" d="M168.191,77.793H92.395c-4.583,0-8.312,3.733-8.312,8.322v19.526v68.829c0,4.589,3.729,8.322,8.312,8.322
				h75.797c4.582,0,8.312-3.733,8.312-8.322v-68.829V86.115C176.503,81.526,172.773,77.793,168.191,77.793z"/>
			<path fill="#333333" d="M168.899,78.501H93.103c-4.583,0-8.312,3.733-8.312,8.322v19.526v68.829c0,4.589,3.729,8.322,8.312,8.322
				h75.797c4.583,0,8.312-3.733,8.312-8.322V106.35V86.823C177.211,82.234,173.482,78.501,168.899,78.501z"/>
			<path fill="#333333" d="M169.607,79.208H93.81c-4.583,0-8.311,3.733-8.311,8.323v19.525v68.829c0,4.589,3.728,8.323,8.311,8.323
				h75.798c4.582,0,8.311-3.734,8.311-8.323v-68.829V87.531C177.918,82.941,174.189,79.208,169.607,79.208z"/>
			<path fill="#333333" d="M170.314,79.916H94.518c-4.584,0-8.312,3.733-8.312,8.322v19.526v68.829c0,4.588,3.728,8.322,8.312,8.322
				h75.797c4.582,0,8.312-3.734,8.312-8.322v-68.829V88.238C178.626,83.649,174.896,79.916,170.314,79.916z"/>
			<path fill="#333333" d="M171.022,80.624H95.226c-4.583,0-8.312,3.733-8.312,8.322v19.526v68.829c0,4.589,3.729,8.322,8.312,8.322
				h75.797c4.583,0,8.312-3.733,8.312-8.322v-68.829V88.946C179.334,84.357,175.605,80.624,171.022,80.624z"/>
			<path fill="#333333" d="M171.73,81.332H95.934c-4.584,0-8.312,3.733-8.312,8.322v19.526v68.829c0,4.588,3.728,8.322,8.312,8.322
				h75.797c4.582,0,8.311-3.734,8.311-8.322v-68.829V89.654C180.041,85.065,176.313,81.332,171.73,81.332z"/>
			<path fill="#333333" d="M172.438,82.039H96.641c-4.583,0-8.312,3.733-8.312,8.322v19.526v68.829c0,4.589,3.729,8.322,8.312,8.322
				h75.797c4.583,0,8.312-3.733,8.312-8.322v-68.829V90.361C180.749,85.772,177.021,82.039,172.438,82.039z"/>
			<path fill="#333333" d="M173.146,82.747H97.349c-4.584,0-8.312,3.733-8.312,8.322v19.526v68.828c0,4.589,3.728,8.322,8.312,8.322
				h75.797c4.583,0,8.312-3.733,8.312-8.322v-68.828V91.069C181.457,86.48,177.729,82.747,173.146,82.747z"/>
			<path fill="#333333" d="M173.854,83.455H98.057c-4.584,0-8.312,3.733-8.312,8.323v19.525v68.83c0,4.588,3.728,8.322,8.312,8.322
				h75.797c4.582,0,8.311-3.734,8.311-8.322v-68.83V91.777C182.164,87.188,178.436,83.455,173.854,83.455z"/>
			<path fill="#333333" d="M174.561,84.163H98.764c-4.583,0-8.311,3.734-8.311,8.323v19.526v68.829c0,4.588,3.728,8.322,8.311,8.322
				h75.797c4.583,0,8.312-3.734,8.312-8.322v-68.829V92.485C182.872,87.896,179.144,84.163,174.561,84.163z"/>
			<path fill="#333333" d="M175.269,84.87H99.472c-4.583,0-8.312,3.733-8.312,8.322v19.526v68.829c0,4.589,3.729,8.322,8.312,8.322
				h75.797c4.583,0,8.312-3.733,8.312-8.322v-68.829V93.192C183.58,88.604,179.852,84.87,175.269,84.87z"/>
			<path fill="#333333" d="M175.977,85.577h-75.798c-4.583,0-8.312,3.733-8.312,8.323v19.525v68.83c0,4.588,3.729,8.322,8.312,8.322
				h75.798c4.582,0,8.311-3.734,8.311-8.322v-68.83V93.9C184.287,89.311,180.559,85.577,175.977,85.577z"/>
			<path fill="#333333" d="M176.684,86.285h-75.797c-4.583,0-8.311,3.733-8.311,8.322v19.526v68.829
				c0,4.589,3.728,8.322,8.311,8.322h75.797c4.583,0,8.312-3.733,8.312-8.322v-68.829V94.607
				C184.995,90.019,181.267,86.285,176.684,86.285z"/>
			<path fill="#333333" d="M177.393,86.993h-75.798c-4.583,0-8.312,3.733-8.312,8.322v19.526v68.829
				c0,4.589,3.729,8.322,8.312,8.322h75.798c4.582,0,8.311-3.733,8.311-8.322v-68.829V95.315
				C185.703,90.727,181.975,86.993,177.393,86.993z"/>
			<path fill="#333333" d="M178.1,87.701h-75.797c-4.584,0-8.312,3.732-8.312,8.322v19.525v68.83c0,4.588,3.728,8.322,8.312,8.322
				H178.1c4.582,0,8.312-3.734,8.312-8.322v-68.83V96.023C186.411,91.434,182.682,87.701,178.1,87.701z"/>
			<path fill="#333333" d="M178.807,88.408H103.01c-4.583,0-8.312,3.733-8.312,8.322v19.526v68.829c0,4.589,3.729,8.322,8.312,8.322
				h75.797c4.583,0,8.312-3.733,8.312-8.322v-68.829V96.73C187.118,92.142,183.39,88.408,178.807,88.408z"/>
			<path fill="#333333" d="M179.515,89.116h-75.797c-4.583,0-8.312,3.733-8.312,8.322v19.526v68.829
				c0,4.589,3.729,8.322,8.312,8.322h75.797c4.583,0,8.312-3.733,8.312-8.322v-68.829V97.438
				C187.826,92.85,184.098,89.116,179.515,89.116z"/>
			<path fill="#333333" d="M180.223,89.824h-75.797c-4.584,0-8.312,3.733-8.312,8.322v19.525v68.83c0,4.589,3.728,8.322,8.312,8.322
				h75.797c4.583,0,8.311-3.733,8.311-8.322v-68.83V98.146C188.533,93.558,184.806,89.824,180.223,89.824z"/>
			<path fill="#333333" d="M180.93,90.531h-75.797c-4.583,0-8.311,3.733-8.311,8.322v19.526v68.829c0,4.589,3.728,8.322,8.311,8.322
				h75.797c4.583,0,8.312-3.733,8.312-8.322V118.38V98.854C189.241,94.265,185.513,90.531,180.93,90.531z"/>
			<path fill="#333333" d="M181.638,91.239h-75.797c-4.583,0-8.312,3.733-8.312,8.322v19.526v68.829
				c0,4.589,3.729,8.322,8.312,8.322h75.797c4.583,0,8.312-3.733,8.312-8.322v-68.829V99.562
				C189.949,94.973,186.221,91.239,181.638,91.239z"/>
			<path fill="#333333" d="M182.346,91.947h-75.797c-4.583,0-8.312,3.733-8.312,8.322v19.525v68.83c0,4.589,3.729,8.322,8.312,8.322
				h75.797c4.583,0,8.311-3.733,8.311-8.322v-68.83V100.27C190.656,95.681,186.929,91.947,182.346,91.947z"/>
			<path fill="#333333" d="M183.054,92.655h-75.797c-4.583,0-8.312,3.733-8.312,8.322v19.525v68.83c0,4.589,3.729,8.322,8.312,8.322
				h75.797c4.583,0,8.312-3.733,8.312-8.322v-68.83v-19.525C191.365,96.389,187.637,92.655,183.054,92.655z"/>
			<path fill="#333333" d="M183.761,93.362h-75.797c-4.583,0-8.312,3.733-8.312,8.322v19.526v68.83c0,4.588,3.729,8.321,8.312,8.321
				h75.797c4.583,0,8.312-3.733,8.312-8.321v-68.83v-19.526C192.072,97.096,188.344,93.362,183.761,93.362z"/>
			<path fill="#333333" d="M184.469,94.07h-75.797c-4.584,0-8.312,3.732-8.312,8.322v19.525v68.83c0,4.588,3.728,8.322,8.312,8.322
				h75.797c4.582,0,8.311-3.734,8.311-8.322v-68.83v-19.525C192.779,97.803,189.051,94.07,184.469,94.07z"/>
			<path fill="#333333" d="M185.177,94.778H109.38c-4.583,0-8.312,3.733-8.312,8.322v19.525v68.829c0,4.59,3.729,8.322,8.312,8.322
				h75.797c4.583,0,8.311-3.732,8.311-8.322v-68.829v-19.525C193.487,98.512,189.76,94.778,185.177,94.778z"/>
			<path fill="#333333" d="M185.885,95.486h-75.797c-4.584,0-8.312,3.732-8.312,8.322v19.525v68.83c0,4.588,3.728,8.322,8.312,8.322
				h75.797c4.582,0,8.311-3.734,8.311-8.322v-68.83v-19.525C194.195,99.219,190.467,95.486,185.885,95.486z"/>
			<path fill="#333333" d="M186.592,96.193h-75.797c-4.583,0-8.312,3.733-8.312,8.322v19.525v68.83c0,4.588,3.729,8.322,8.312,8.322
				h75.797c4.582,0,8.312-3.734,8.312-8.322v-68.83v-19.525C194.903,99.927,191.174,96.193,186.592,96.193z"/>
			<path fill="#333333" d="M187.3,96.9h-75.798c-4.583,0-8.311,3.733-8.311,8.322v19.526v68.83c0,4.588,3.728,8.321,8.311,8.321
				H187.3c4.582,0,8.311-3.733,8.311-8.321v-68.83v-19.526C195.61,100.634,191.882,96.9,187.3,96.9z"/>
			<path fill="#333333" d="M188.008,97.609h-75.797c-4.584,0-8.313,3.732-8.313,8.322v19.525v68.83c0,4.588,3.729,8.322,8.313,8.322
				h75.797c4.582,0,8.311-3.734,8.311-8.322v-68.83v-19.525C196.318,101.342,192.59,97.609,188.008,97.609z"/>
			<path fill="#333333" d="M188.715,98.316h-75.797c-4.583,0-8.311,3.733-8.311,8.322v19.526v68.829
				c0,4.589,3.728,8.322,8.311,8.322h75.797c4.583,0,8.312-3.733,8.312-8.322v-68.829v-19.526
				C197.026,102.05,193.298,98.316,188.715,98.316z"/>
			<path fill="#333333" d="M189.423,99.024h-75.797c-4.583,0-8.312,3.733-8.312,8.322v19.525v68.83c0,4.588,3.729,8.322,8.312,8.322
				h75.797c4.583,0,8.312-3.734,8.312-8.322v-68.83v-19.525C197.734,102.758,194.006,99.024,189.423,99.024z"/>
			<path fill="#333333" d="M190.13,99.731h-75.797c-4.583,0-8.312,3.733-8.312,8.322v19.526v68.829c0,4.589,3.729,8.323,8.312,8.323
				h75.797c4.583,0,8.312-3.734,8.312-8.323V127.58v-19.526C198.441,103.465,194.713,99.731,190.13,99.731z"/>
			<path fill="#333333" d="M190.838,100.439h-75.797c-4.583,0-8.312,3.733-8.312,8.322v19.526v68.829
				c0,4.589,3.729,8.322,8.312,8.322h75.797c4.583,0,8.312-3.733,8.312-8.322v-68.829v-19.526
				C199.149,104.173,195.421,100.439,190.838,100.439z"/>
			<path fill="#333333" d="M191.546,101.148h-75.797c-4.583,0-8.312,3.732-8.312,8.321v19.526v68.829
				c0,4.589,3.729,8.322,8.312,8.322h75.797c4.583,0,8.312-3.733,8.312-8.322v-68.829V109.47
				C199.857,104.881,196.129,101.148,191.546,101.148z"/>
			<path fill="#333333" d="M192.254,101.855h-75.797c-4.584,0-8.313,3.732-8.313,8.322v19.525v68.83
				c0,4.588,3.729,8.322,8.313,8.322h75.797c4.582,0,8.311-3.734,8.311-8.322v-68.83v-19.525
				C200.564,105.588,196.836,101.855,192.254,101.855z"/>
			<path fill="#333333" d="M192.961,102.563h-75.797c-4.584,0-8.312,3.733-8.312,8.322v19.525v68.83
				c0,4.589,3.728,8.322,8.312,8.322h75.797c4.582,0,8.311-3.733,8.311-8.322v-68.83v-19.525
				C201.271,106.296,197.543,102.563,192.961,102.563z"/>
			<path fill="#333333" d="M193.669,103.271h-75.797c-4.584,0-8.312,3.733-8.312,8.322v19.526v68.829
				c0,4.589,3.728,8.322,8.312,8.322h75.797c4.582,0,8.312-3.733,8.312-8.322v-68.829v-19.526
				C201.98,107.004,198.251,103.271,193.669,103.271z"/>
			<path fill="#333333" d="M194.377,103.979H118.58c-4.584,0-8.312,3.733-8.312,8.322v19.525v68.83c0,4.588,3.728,8.322,8.312,8.322
				h75.797c4.582,0,8.311-3.734,8.311-8.322v-68.83v-19.525C202.688,107.712,198.959,103.979,194.377,103.979z"/>
			<path fill="#333333" d="M195.084,104.686h-75.797c-4.583,0-8.312,3.733-8.312,8.322v19.526v68.829
				c0,4.589,3.729,8.322,8.312,8.322h75.797c4.583,0,8.312-3.733,8.312-8.322v-68.829v-19.526
				C203.396,108.419,199.667,104.686,195.084,104.686z"/>
			<path fill="#333333" d="M195.792,105.394h-75.797c-4.583,0-8.312,3.733-8.312,8.322v19.525v68.83
				c0,4.589,3.729,8.322,8.312,8.322h75.797c4.582,0,8.312-3.733,8.312-8.322v-68.83v-19.525
				C204.104,109.127,200.374,105.394,195.792,105.394z"/>
			<path fill="#333333" d="M196.5,106.102h-75.797c-4.584,0-8.313,3.732-8.313,8.322v19.525v68.83c0,4.588,3.729,8.322,8.313,8.322
				H196.5c4.582,0,8.311-3.734,8.311-8.322v-68.83v-19.525C204.811,109.834,201.082,106.102,196.5,106.102z"/>
			<path fill="#333333" d="M197.208,106.809h-75.797c-4.584,0-8.312,3.733-8.312,8.322v19.526v68.83
				c0,4.588,3.728,8.321,8.312,8.321h75.797c4.582,0,8.311-3.733,8.311-8.321v-68.83v-19.526
				C205.519,110.542,201.79,106.809,197.208,106.809z"/>
			<path fill="#333333" d="M197.915,107.517h-75.797c-4.583,0-8.312,3.733-8.312,8.322v19.526v68.829
				c0,4.589,3.729,8.322,8.312,8.322h75.797c4.583,0,8.312-3.733,8.312-8.322v-68.829v-19.526
				C206.227,111.25,202.498,107.517,197.915,107.517z"/>
			<path fill="#333333" d="M198.623,108.225h-75.797c-4.584,0-8.312,3.732-8.312,8.322v19.525v68.83
				c0,4.588,3.728,8.322,8.312,8.322h75.797c4.582,0,8.311-3.734,8.311-8.322v-68.83v-19.525
				C206.934,111.957,203.205,108.225,198.623,108.225z"/>
			<path fill="#333333" d="M199.33,108.932h-75.797c-4.583,0-8.311,3.733-8.311,8.322v19.526v68.829
				c0,4.589,3.728,8.322,8.311,8.322h75.797c4.583,0,8.312-3.733,8.312-8.322V136.78v-19.526
				C207.642,112.665,203.913,108.932,199.33,108.932z"/>
			<path fill="#333333" d="M200.039,109.641h-75.797c-4.584,0-8.313,3.732-8.313,8.322v19.525v68.83
				c0,4.588,3.729,8.322,8.313,8.322h75.797c4.582,0,8.311-3.734,8.311-8.322v-68.83v-19.525
				C208.35,113.373,204.621,109.641,200.039,109.641z"/>
			<path fill="#333333" d="M200.746,110.348h-75.797c-4.584,0-8.312,3.732-8.312,8.322v19.525v68.83
				c0,4.588,3.728,8.322,8.312,8.322h75.797c4.582,0,8.311-3.734,8.311-8.322v-68.83V118.67
				C209.057,114.08,205.328,110.348,200.746,110.348z"/>
			<path fill="#333333" d="M201.453,111.055h-75.797c-4.583,0-8.311,3.733-8.311,8.323v19.525v68.829
				c0,4.589,3.728,8.323,8.311,8.323h75.797c4.583,0,8.312-3.734,8.312-8.323v-68.829v-19.525
				C209.765,114.788,206.036,111.055,201.453,111.055z"/>
			<path fill="#333333" d="M202.161,111.763h-75.797c-4.583,0-8.312,3.733-8.312,8.322v19.526v68.829
				c0,4.589,3.729,8.322,8.312,8.322h75.797c4.583,0,8.312-3.733,8.312-8.322v-68.829v-19.526
				C210.473,115.496,206.744,111.763,202.161,111.763z"/>
			<path fill="#333333" d="M202.869,112.471h-75.797c-4.584,0-8.312,3.732-8.312,8.322v19.525v68.83
				c0,4.588,3.728,8.322,8.312,8.322h75.797c4.583,0,8.312-3.734,8.312-8.322v-68.83v-19.525
				C211.181,116.203,207.452,112.471,202.869,112.471z"/>
			<path fill="#333333" d="M203.576,113.179h-75.797c-4.583,0-8.311,3.732-8.311,8.321v19.526v68.829
				c0,4.589,3.728,8.322,8.311,8.322h75.797c4.583,0,8.312-3.733,8.312-8.322v-68.829V121.5
				C211.888,116.911,208.159,113.179,203.576,113.179z"/>
			<path fill="#333333" d="M204.284,113.886h-75.797c-4.583,0-8.312,3.733-8.312,8.322v19.526v68.829
				c0,4.589,3.729,8.322,8.312,8.322h75.797c4.583,0,8.312-3.733,8.312-8.322v-68.829v-19.526
				C212.596,117.619,208.867,113.886,204.284,113.886z"/>
			<path fill="#333333" d="M204.992,114.594h-75.797c-4.584,0-8.312,3.733-8.312,8.322v19.525v68.83
				c0,4.588,3.728,8.322,8.312,8.322h75.797c4.583,0,8.311-3.734,8.311-8.322v-68.83v-19.525
				C213.303,118.327,209.575,114.594,204.992,114.594z"/>
			<path fill="#333333" d="M205.7,115.302h-75.797c-4.584,0-8.312,3.732-8.312,8.321v19.527v68.828c0,4.589,3.728,8.323,8.312,8.323
				H205.7c4.582,0,8.311-3.734,8.311-8.323V143.15v-19.527C214.011,119.034,210.282,115.302,205.7,115.302z"/>
			<path fill="#333333" d="M206.408,116.01H130.61c-4.583,0-8.312,3.732-8.312,8.321v19.526v68.829c0,4.589,3.729,8.323,8.312,8.323
				h75.798c4.582,0,8.311-3.734,8.311-8.323v-68.829v-19.526C214.719,119.742,210.99,116.01,206.408,116.01z"/>
			<path fill="#333333" d="M207.115,116.717h-75.797c-4.583,0-8.312,3.732-8.312,8.322v19.525v68.83
				c0,4.588,3.729,8.322,8.312,8.322h75.797c4.582,0,8.311-3.734,8.311-8.322v-68.83v-19.525
				C215.426,120.449,211.697,116.717,207.115,116.717z"/>
			<path fill="#333333" d="M207.823,117.425h-75.797c-4.584,0-8.312,3.732-8.312,8.322v19.525v68.83
				c0,4.589,3.728,8.321,8.312,8.321h75.797c4.582,0,8.311-3.732,8.311-8.321v-68.83v-19.525
				C216.134,121.157,212.405,117.425,207.823,117.425z"/>
			<path fill="#333333" d="M208.531,118.133h-75.797c-4.584,0-8.313,3.732-8.313,8.322v19.525v68.83
				c0,4.588,3.729,8.322,8.313,8.322h75.797c4.582,0,8.311-3.734,8.311-8.322v-68.83v-19.525
				C216.842,121.865,213.113,118.133,208.531,118.133z"/>
			<path fill="#333333" d="M209.238,118.84h-75.797c-4.584,0-8.312,3.733-8.312,8.322v19.526v68.829
				c0,4.589,3.728,8.322,8.312,8.322h75.797c4.582,0,8.312-3.733,8.312-8.322v-68.829v-19.526
				C217.55,122.573,213.82,118.84,209.238,118.84z"/>
			<path fill="#333333" d="M209.946,119.548h-75.797c-4.584,0-8.312,3.732-8.312,8.322v19.525v68.83
				c0,4.589,3.728,8.322,8.312,8.322h75.797c4.582,0,8.312-3.733,8.312-8.322v-68.83V127.87
				C218.258,123.28,214.528,119.548,209.946,119.548z"/>
			<path fill="#333333" d="M210.654,120.256h-75.797c-4.584,0-8.312,3.732-8.312,8.322v19.525v68.83
				c0,4.588,3.728,8.322,8.312,8.322h75.797c4.582,0,8.311-3.734,8.311-8.322v-68.83v-19.525
				C218.965,123.988,215.236,120.256,210.654,120.256z"/>
			<path fill="#333333" d="M211.361,120.963h-75.797c-4.583,0-8.311,3.733-8.311,8.322v19.526v68.829
				c0,4.589,3.728,8.322,8.311,8.322h75.797c4.583,0,8.312-3.733,8.312-8.322v-68.829v-19.526
				C219.673,124.696,215.944,120.963,211.361,120.963z"/>
			<path fill="#333333" d="M212.069,121.671h-75.797c-4.583,0-8.312,3.733-8.312,8.322v19.525v68.83
				c0,4.588,3.729,8.322,8.312,8.322h75.797c4.583,0,8.312-3.734,8.312-8.322v-68.83v-19.525
				C220.381,125.404,216.652,121.671,212.069,121.671z"/>
			<path fill="#333333" d="M212.777,122.379H136.98c-4.584,0-8.313,3.732-8.313,8.322v19.525v68.83c0,4.588,3.729,8.322,8.313,8.322
				h75.797c4.582,0,8.311-3.734,8.311-8.322v-68.83v-19.525C221.088,126.111,217.359,122.379,212.777,122.379z"/>
			<path fill="#333333" d="M213.484,123.086h-75.797c-4.583,0-8.312,3.733-8.312,8.322v19.526v68.829
				c0,4.589,3.729,8.322,8.312,8.322h75.797c4.583,0,8.312-3.733,8.312-8.322v-68.829v-19.526
				C221.796,126.819,218.067,123.086,213.484,123.086z"/>
			<path fill="#333333" d="M214.192,123.794h-75.797c-4.584,0-8.312,3.733-8.312,8.322v19.525v68.83
				c0,4.589,3.728,8.322,8.312,8.322h75.797c4.583,0,8.311-3.733,8.311-8.322v-68.83v-19.525
				C222.503,127.527,218.775,123.794,214.192,123.794z"/>
			<path fill="#333333" d="M214.9,124.502h-75.797c-4.584,0-8.312,3.732-8.312,8.322v19.525v68.83c0,4.588,3.728,8.322,8.312,8.322
				H214.9c4.582,0,8.311-3.734,8.311-8.322v-68.83v-19.525C223.211,128.234,219.482,124.502,214.9,124.502z"/>
			<path fill="#333333" d="M215.607,125.209h-75.796c-4.584,0-8.312,3.733-8.312,8.322v19.526v68.829
				c0,4.589,3.728,8.322,8.312,8.322h75.796c4.583,0,8.312-3.733,8.312-8.322v-68.829v-19.526
				C223.919,128.942,220.19,125.209,215.607,125.209z"/>
			<path fill="#333333" d="M216.315,125.918H140.52c-4.584,0-8.313,3.732-8.313,8.321v19.526v68.829
				c0,4.589,3.729,8.322,8.313,8.322h75.796c4.583,0,8.312-3.733,8.312-8.322v-68.829v-19.526
				C224.627,129.65,220.898,125.918,216.315,125.918z"/>
			<path fill="#333333" d="M217.023,126.625h-75.797c-4.584,0-8.312,3.732-8.312,8.322v19.525v68.83
				c0,4.588,3.728,8.322,8.312,8.322h75.797c4.582,0,8.311-3.734,8.311-8.322v-68.83v-19.525
				C225.334,130.357,221.605,126.625,217.023,126.625z"/>
			<path fill="#333333" d="M217.73,127.332h-75.796c-4.584,0-8.313,3.733-8.313,8.323v19.525v68.83c0,4.588,3.729,8.321,8.313,8.321
				h75.796c4.583,0,8.312-3.733,8.312-8.321v-68.83v-19.525C226.042,131.065,222.313,127.332,217.73,127.332z"/>
			<path fill="#333333" d="M218.438,128.04h-75.797c-4.583,0-8.312,3.733-8.312,8.323v19.525v68.829
				c0,4.589,3.729,8.323,8.312,8.323h75.797c4.583,0,8.312-3.734,8.312-8.323v-68.829v-19.525
				C226.75,131.773,223.021,128.04,218.438,128.04z"/>
			<path fill="#333333" d="M219.146,128.748H143.35c-4.584,0-8.312,3.732-8.312,8.322v19.525v68.83c0,4.588,3.728,8.322,8.312,8.322
				h75.797c4.582,0,8.311-3.734,8.311-8.322v-68.83V137.07C227.457,132.48,223.729,128.748,219.146,128.748z"/>
			<path fill="#333333" d="M219.854,129.456h-75.797c-4.583,0-8.311,3.732-8.311,8.322v19.525v68.83
				c0,4.588,3.728,8.322,8.311,8.322h75.797c4.583,0,8.312-3.734,8.312-8.322v-68.83v-19.525
				C228.165,133.188,224.437,129.456,219.854,129.456z"/>
			<path fill="#333333" d="M220.562,130.163h-75.797c-4.583,0-8.312,3.733-8.312,8.323v19.525v68.83
				c0,4.588,3.729,8.321,8.312,8.321h75.797c4.583,0,8.312-3.733,8.312-8.321v-68.83v-19.525
				C228.873,133.896,225.145,130.163,220.562,130.163z"/>
			<path fill="#333333" d="M221.27,130.871h-75.797c-4.584,0-8.312,3.732-8.312,8.322v19.525v68.83c0,4.588,3.728,8.322,8.312,8.322
				h75.797c4.582,0,8.311-3.734,8.311-8.322v-68.83v-19.525C229.58,134.604,225.852,130.871,221.27,130.871z"/>
			<path fill="#333333" d="M221.977,131.579h-75.796c-4.584,0-8.312,3.732-8.312,8.322v19.525v68.83
				c0,4.588,3.728,8.322,8.312,8.322h75.796c4.583,0,8.312-3.734,8.312-8.322v-68.83v-19.525
				C230.288,135.312,226.56,131.579,221.977,131.579z"/>
			<path fill="#333333" d="M222.685,132.287h-75.797c-4.583,0-8.311,3.732-8.311,8.322v19.525v68.83
				c0,4.588,3.728,8.322,8.311,8.322h75.797c4.583,0,8.312-3.734,8.312-8.322v-68.83v-19.525
				C230.996,136.02,227.268,132.287,222.685,132.287z"/>
			<path fill="#333333" d="M223.393,132.994h-75.797c-4.584,0-8.312,3.733-8.312,8.322v19.526v68.829
				c0,4.588,3.728,8.322,8.312,8.322h75.797c4.582,0,8.311-3.734,8.311-8.322v-68.829v-19.526
				C231.703,136.728,227.975,132.994,223.393,132.994z"/>
			<path fill="#333333" d="M224.101,133.702h-75.797c-4.584,0-8.312,3.732-8.312,8.321v19.526v68.83
				c0,4.589,3.728,8.322,8.312,8.322h75.797c4.582,0,8.311-3.733,8.311-8.322v-68.83v-19.526
				C232.411,137.435,228.683,133.702,224.101,133.702z"/>
			<path fill="#333333" d="M224.808,134.41h-75.796c-4.584,0-8.313,3.732-8.313,8.321v19.526v68.83c0,4.588,3.729,8.322,8.313,8.322
				h75.796c4.583,0,8.312-3.734,8.312-8.322v-68.83v-19.526C233.119,138.143,229.391,134.41,224.808,134.41z"/>
			<path fill="#333333" d="M225.516,135.117h-75.797c-4.583,0-8.312,3.732-8.312,8.322v19.526v68.829
				c0,4.589,3.729,8.322,8.312,8.322h75.797c4.582,0,8.311-3.733,8.311-8.322v-68.829v-19.526
				C233.826,138.85,230.098,135.117,225.516,135.117z"/>
			<path fill="#333333" d="M226.224,135.825h-75.797c-4.583,0-8.312,3.732-8.312,8.322v19.525v68.83
				c0,4.588,3.729,8.322,8.312,8.322h75.797c4.582,0,8.311-3.734,8.311-8.322v-68.83v-19.525
				C234.534,139.558,230.806,135.825,226.224,135.825z"/>
			<path fill="#333333" d="M226.932,136.533h-75.797c-4.584,0-8.312,3.732-8.312,8.322v19.525v68.83
				c0,4.588,3.728,8.322,8.312,8.322h75.797c4.582,0,8.311-3.734,8.311-8.322v-68.83v-19.525
				C235.242,140.266,231.514,136.533,226.932,136.533z"/>
			<path fill="#333333" d="M227.639,137.24h-75.797c-4.584,0-8.311,3.733-8.311,8.322v19.525v68.83c0,4.588,3.727,8.322,8.311,8.322
				h75.797c4.582,0,8.311-3.734,8.311-8.322v-68.83v-19.525C235.949,140.974,232.221,137.24,227.639,137.24z"/>
			<path fill="#333333" d="M228.347,137.948H152.55c-4.584,0-8.312,3.733-8.312,8.322v19.525v68.83c0,4.588,3.728,8.322,8.312,8.322
				h75.797c4.582,0,8.312-3.734,8.312-8.322v-68.83v-19.525C236.658,141.682,232.929,137.948,228.347,137.948z"/>
			<path fill="#333333" d="M229.055,138.656h-75.797c-4.584,0-8.313,3.732-8.313,8.322v19.525v68.83
				c0,4.588,3.729,8.322,8.313,8.322h75.797c4.582,0,8.311-3.734,8.311-8.322v-68.83v-19.525
				C237.365,142.389,233.637,138.656,229.055,138.656z"/>
			<path fill="#333333" d="M229.762,139.364h-75.797c-4.583,0-8.312,3.731-8.312,8.321v19.525v68.83
				c0,4.589,3.729,8.322,8.312,8.322h75.797c4.583,0,8.312-3.733,8.312-8.322v-68.83v-19.525
				C238.073,143.096,234.345,139.364,229.762,139.364z"/>
			<path fill="#333333" d="M230.47,140.071h-75.797c-4.583,0-8.312,3.733-8.312,8.322v19.526v68.829
				c0,4.589,3.729,8.322,8.312,8.322h75.797c4.583,0,8.312-3.733,8.312-8.322V167.92v-19.526
				C238.781,143.805,235.053,140.071,230.47,140.071z"/>
			<path fill="#333333" d="M231.178,140.779h-75.797c-4.584,0-8.312,3.732-8.312,8.322v19.525v68.83
				c0,4.588,3.728,8.322,8.312,8.322h75.797c4.582,0,8.311-3.734,8.311-8.322v-68.83v-19.525
				C239.488,144.512,235.76,140.779,231.178,140.779z"/>
			<path fill="#333333" d="M231.885,141.486h-75.796c-4.584,0-8.312,3.733-8.312,8.322v19.525v68.83
				c0,4.589,3.728,8.323,8.312,8.323h75.796c4.583,0,8.312-3.734,8.312-8.323v-68.83v-19.525
				C240.196,145.22,236.468,141.486,231.885,141.486z"/>
			<path fill="#333333" d="M232.593,142.194h-75.797c-4.583,0-8.312,3.733-8.312,8.322v19.526v68.829
				c0,4.589,3.729,8.322,8.312,8.322h75.797c4.583,0,8.312-3.733,8.312-8.322v-68.829v-19.526
				C240.904,145.928,237.176,142.194,232.593,142.194z"/>
			<path fill="#333333" d="M233.301,142.902h-75.797c-4.584,0-8.312,3.732-8.312,8.322v19.525v68.83
				c0,4.588,3.728,8.322,8.312,8.322h75.797c4.582,0,8.311-3.734,8.311-8.322v-68.83v-19.525
				C241.611,146.635,237.883,142.902,233.301,142.902z"/>
			<path fill="#333333" d="M234.009,143.609h-75.797c-4.585,0-8.312,3.733-8.312,8.322v19.526v68.829
				c0,4.589,3.727,8.322,8.312,8.322h75.797c4.582,0,8.311-3.733,8.311-8.322v-68.829v-19.526
				C242.319,147.343,238.591,143.609,234.009,143.609z"/>
			<path fill="#333333" d="M234.716,144.317H158.92c-4.585,0-8.313,3.733-8.313,8.322v19.526v68.829
				c0,4.588,3.728,8.322,8.313,8.322h75.796c4.583,0,8.312-3.734,8.312-8.322v-68.829V152.64
				C243.027,148.051,239.299,144.317,234.716,144.317z"/>
			<path fill="#333333" d="M235.424,145.025h-75.797c-4.584,0-8.312,3.732-8.312,8.322v19.525v68.83
				c0,4.588,3.728,8.322,8.312,8.322h75.797c4.582,0,8.311-3.734,8.311-8.322v-68.83v-19.525
				C243.734,148.758,240.006,145.025,235.424,145.025z"/>
			<path fill="#333333" d="M236.132,145.733h-75.798c-4.583,0-8.311,3.732-8.311,8.322v19.525v68.83
				c0,4.588,3.728,8.322,8.311,8.322h75.798c4.582,0,8.311-3.734,8.311-8.322v-68.83v-19.525
				C244.442,149.466,240.714,145.733,236.132,145.733z"/>
			<path fill="#333333" d="M236.839,146.44h-75.797c-4.583,0-8.312,3.733-8.312,8.323v19.525v68.83c0,4.588,3.729,8.321,8.312,8.321
				h75.797c4.583,0,8.312-3.733,8.312-8.321v-68.83v-19.525C245.15,150.174,241.422,146.44,236.839,146.44z"/>
			<path fill="#333333" d="M237.547,147.148H161.75c-4.584,0-8.312,3.732-8.312,8.322v19.525v68.83c0,4.588,3.728,8.322,8.312,8.322
				h75.797c4.582,0,8.311-3.734,8.311-8.322v-68.83v-19.525C245.857,150.881,242.129,147.148,237.547,147.148z"/>
			<path fill="#333333" d="M238.255,147.856h-75.798c-4.583,0-8.311,3.732-8.311,8.322v19.525v68.83
				c0,4.588,3.728,8.321,8.311,8.321h75.798c4.582,0,8.311-3.733,8.311-8.321v-68.83v-19.525
				C246.565,151.589,242.837,147.856,238.255,147.856z"/>
			<path fill="#333333" d="M238.962,148.564h-75.797c-4.583,0-8.311,3.732-8.311,8.322v19.525v68.83
				c0,4.588,3.728,8.322,8.311,8.322h75.797c4.583,0,8.312-3.734,8.312-8.322v-68.83v-19.525
				C247.273,152.297,243.545,148.564,238.962,148.564z"/>
			<path fill="#333333" d="M239.67,149.271h-75.797c-4.583,0-8.312,3.732-8.312,8.322v19.525v68.83c0,4.588,3.729,8.322,8.312,8.322
				h75.797c4.582,0,8.311-3.734,8.311-8.322v-68.83v-19.525C247.98,153.004,244.252,149.271,239.67,149.271z"/>
			<path fill="#333333" d="M240.378,149.979h-75.797c-4.584,0-8.312,3.732-8.312,8.322v19.525v68.83
				c0,4.588,3.728,8.322,8.312,8.322h75.797c4.582,0,8.311-3.734,8.311-8.322v-68.83v-19.525
				C248.688,153.712,244.96,149.979,240.378,149.979z"/>
			<path fill="#333333" d="M241.085,150.688h-75.796c-4.584,0-8.313,3.732-8.313,8.322v19.525v68.83
				c0,4.588,3.729,8.321,8.313,8.321h75.796c4.583,0,8.312-3.733,8.312-8.321v-68.83V159.01
				C249.396,154.42,245.668,150.688,241.085,150.688z"/>
			<path fill="#333333" d="M241.793,151.395h-75.797c-4.584,0-8.312,3.733-8.312,8.322v19.525v68.83
				c0,4.589,3.728,8.322,8.312,8.322h75.797c4.582,0,8.312-3.733,8.312-8.322v-68.83v-19.525
				C250.104,155.128,246.375,151.395,241.793,151.395z"/>
			<path fill="#333333" d="M242.501,152.103h-75.797c-4.584,0-8.312,3.732-8.312,8.322v19.525v68.83
				c0,4.588,3.728,8.322,8.312,8.322h75.797c4.582,0,8.311-3.734,8.311-8.322v-68.83v-19.525
				C250.812,155.835,247.083,152.103,242.501,152.103z"/>
			<path fill="#333333" d="M243.209,152.81h-75.797c-4.584,0-8.312,3.733-8.312,8.323v19.525v68.83c0,4.588,3.728,8.322,8.312,8.322
				h75.797c4.582,0,8.311-3.734,8.311-8.322v-68.83v-19.525C251.52,156.543,247.791,152.81,243.209,152.81z"/>
			<path fill="#333333" d="M243.916,153.518h-75.797c-4.584,0-8.312,3.732-8.312,8.322v19.525v68.83
				c0,4.588,3.728,8.322,8.312,8.322h75.797c4.582,0,8.312-3.734,8.312-8.322v-68.83V161.84
				C252.228,157.25,248.498,153.518,243.916,153.518z"/>
			<path fill="#333333" d="M244.624,154.226h-75.797c-4.584,0-8.312,3.732-8.312,8.322v19.525v68.83
				c0,4.588,3.728,8.322,8.312,8.322h75.797c4.582,0,8.311-3.734,8.311-8.322v-68.83v-19.525
				C252.935,157.958,249.206,154.226,244.624,154.226z"/>
			<path fill="#333333" d="M245.332,154.934h-75.797c-4.584,0-8.312,3.732-8.312,8.322v19.525v68.83
				c0,4.588,3.728,8.322,8.312,8.322h75.797c4.582,0,8.311-3.734,8.311-8.322v-68.83v-19.525
				C253.643,158.666,249.914,154.934,245.332,154.934z"/>
			<path fill="#333333" d="M246.039,155.642h-75.797c-4.583,0-8.312,3.732-8.312,8.321v19.525v68.83
				c0,4.588,3.729,8.322,8.312,8.322h75.797c4.582,0,8.311-3.734,8.311-8.322v-68.83v-19.525
				C254.35,159.374,250.621,155.642,246.039,155.642z"/>
			<path fill="#333333" d="M246.747,156.349H170.95c-4.583,0-8.312,3.733-8.312,8.322v19.525v68.83c0,4.589,3.729,8.322,8.312,8.322
				h75.797c4.583,0,8.311-3.733,8.311-8.322v-68.83v-19.525C255.058,160.082,251.33,156.349,246.747,156.349z"/>
			<path fill="#333333" d="M247.455,157.057h-75.797c-4.584,0-8.312,3.732-8.312,8.322v19.525v68.83
				c0,4.588,3.728,8.322,8.312,8.322h75.797c4.582,0,8.311-3.734,8.311-8.322v-68.83v-19.525
				C255.766,160.789,252.037,157.057,247.455,157.057z"/>
			<path fill="#333333" d="M248.163,157.764h-75.797c-4.585,0-8.313,3.732-8.313,8.322v19.526v68.829
				c0,4.589,3.728,8.322,8.313,8.322h75.797c4.582,0,8.311-3.733,8.311-8.322v-68.829v-19.526
				C256.474,161.496,252.745,157.764,248.163,157.764z"/>
			<path fill="#333333" d="M248.87,158.472h-75.797c-4.584,0-8.312,3.732-8.312,8.322v19.525v68.83c0,4.588,3.728,8.322,8.312,8.322
				h75.797c4.583,0,8.312-3.734,8.312-8.322v-68.83v-19.525C257.182,162.204,253.453,158.472,248.87,158.472z"/>
			<path fill="#333333" d="M249.578,159.18h-75.797c-4.584,0-8.312,3.732-8.312,8.322v19.525v68.83c0,4.588,3.728,8.322,8.312,8.322
				h75.797c4.582,0,8.311-3.734,8.311-8.322v-68.83v-19.525C257.889,162.912,254.16,159.18,249.578,159.18z"/>
			<path fill="#333333" d="M250.286,159.887h-75.797c-4.584,0-8.312,3.733-8.312,8.322v19.526v68.829
				c0,4.589,3.728,8.322,8.312,8.322h75.797c4.582,0,8.311-3.733,8.311-8.322v-68.829v-19.526
				C258.597,163.62,254.868,159.887,250.286,159.887z"/>
			<path fill="#333333" d="M250.993,160.595h-75.796c-4.584,0-8.313,3.733-8.313,8.322v19.525v68.83
				c0,4.588,3.729,8.322,8.313,8.322h75.796c4.582,0,8.312-3.734,8.312-8.322v-68.83v-19.525
				C259.305,164.328,255.575,160.595,250.993,160.595z"/>
			<path fill="#333333" d="M251.701,161.303h-75.797c-4.584,0-8.312,3.732-8.312,8.322v19.525v68.83
				c0,4.588,3.728,8.322,8.312,8.322h75.797c4.582,0,8.311-3.734,8.311-8.322v-68.83v-19.525
				C260.012,165.035,256.283,161.303,251.701,161.303z"/>
			<path fill="#333333" d="M252.409,162.011h-75.798c-4.583,0-8.311,3.732-8.311,8.322v19.525v68.83
				c0,4.588,3.728,8.322,8.311,8.322h75.798c4.582,0,8.311-3.734,8.311-8.322v-68.83v-19.525
				C260.72,165.743,256.991,162.011,252.409,162.011z"/>
			<path fill="#333333" d="M253.117,162.718h-75.798c-4.583,0-8.312,3.732-8.312,8.322v19.525v68.83
				c0,4.589,3.729,8.322,8.312,8.322h75.798c4.581,0,8.31-3.733,8.31-8.322v-68.83V171.04
				C261.427,166.45,257.698,162.718,253.117,162.718z"/>
			<path fill="#333333" d="M253.824,163.426h-75.797c-4.584,0-8.312,3.732-8.312,8.322v19.525v68.83
				c0,4.588,3.728,8.322,8.312,8.322h75.797c4.582,0,8.311-3.734,8.311-8.322v-68.83v-19.525
				C262.135,167.158,258.406,163.426,253.824,163.426z"/>
			<path fill="#333333" d="M254.532,164.134h-75.797c-4.584,0-8.312,3.732-8.312,8.322v19.525v68.83
				c0,4.588,3.728,8.322,8.312,8.322h75.797c4.582,0,8.311-3.734,8.311-8.322v-68.83v-19.525
				C262.843,167.866,259.114,164.134,254.532,164.134z"/>
			<path fill="#333333" d="M255.24,164.842h-75.798c-4.583,0-8.312,3.732-8.312,8.321v19.526v68.829
				c0,4.589,3.729,8.323,8.312,8.323h75.798c4.582,0,8.311-3.734,8.311-8.323v-68.829v-19.526
				C263.551,168.574,259.822,164.842,255.24,164.842z"/>
			<path fill="#333333" d="M255.947,165.549H180.15c-4.584,0-8.312,3.732-8.312,8.322v19.525v68.83c0,4.588,3.728,8.322,8.312,8.322
				h75.797c4.582,0,8.311-3.734,8.311-8.322v-68.83v-19.525C264.258,169.281,260.529,165.549,255.947,165.549z"/>
			<path fill="#333333" d="M256.655,166.257h-75.797c-4.584,0-8.312,3.732-8.312,8.322v19.525v68.83
				c0,4.588,3.728,8.322,8.312,8.322h75.797c4.582,0,8.311-3.734,8.311-8.322v-68.83v-19.525
				C264.966,169.989,261.237,166.257,256.655,166.257z"/>
			<path fill="#333333" d="M257.363,166.965h-75.797c-4.584,0-8.313,3.732-8.313,8.322v19.525v68.829
				c0,4.588,3.729,8.323,8.313,8.323h75.797c4.582,0,8.311-3.735,8.311-8.323v-68.829v-19.525
				C265.674,170.697,261.945,166.965,257.363,166.965z"/>
			<path fill="#333333" d="M258.07,167.672h-75.797c-4.584,0-8.312,3.732-8.312,8.322v19.525v68.83c0,4.589,3.728,8.322,8.312,8.322
				h75.797c4.582,0,8.311-3.733,8.311-8.322v-68.83v-19.525C266.381,171.404,262.652,167.672,258.07,167.672z"/>
			<path fill="#333333" d="M258.778,168.38h-75.797c-4.584,0-8.312,3.732-8.312,8.322v19.525v68.83c0,4.588,3.728,8.322,8.312,8.322
				h75.797c4.582,0,8.311-3.734,8.311-8.322v-68.83v-19.525C267.089,172.112,263.36,168.38,258.778,168.38z"/>
			<path fill="#333333" d="M259.486,169.087h-75.797c-4.584,0-8.312,3.733-8.312,8.323v19.525v68.829
				c0,4.589,3.728,8.323,8.312,8.323h75.797c4.582,0,8.311-3.734,8.311-8.323v-68.829V177.41
				C267.797,172.82,264.068,169.087,259.486,169.087z"/>
			<path fill="#333333" d="M260.193,169.795h-75.797c-4.583,0-8.312,3.733-8.312,8.322v19.525v68.83
				c0,4.588,3.729,8.322,8.312,8.322h75.797c4.582,0,8.311-3.734,8.311-8.322v-68.83v-19.525
				C268.504,173.528,264.775,169.795,260.193,169.795z"/>
			<path fill="#333333" d="M260.901,170.503h-75.797c-4.584,0-8.312,3.732-8.312,8.322v19.525v68.83
				c0,4.588,3.728,8.322,8.312,8.322h75.797c4.582,0,8.311-3.734,8.311-8.322v-68.83v-19.525
				C269.212,174.235,265.483,170.503,260.901,170.503z"/>
			<path fill="#333333" d="M261.609,171.211h-75.797c-4.584,0-8.312,3.732-8.312,8.322v19.525v68.83
				c0,4.588,3.728,8.322,8.312,8.322h75.797c4.582,0,8.311-3.734,8.311-8.322v-68.83v-19.525
				C269.92,174.943,266.191,171.211,261.609,171.211z"/>
			<path fill="#333333" d="M262.316,171.919H186.52c-4.584,0-8.311,3.731-8.311,8.322v19.525v68.829
				c0,4.588,3.727,8.323,8.311,8.323h75.797c4.582,0,8.312-3.735,8.312-8.323v-68.829v-19.525
				C270.628,175.65,266.898,171.919,262.316,171.919z"/>
			<path fill="#333333" d="M263.024,172.626h-75.797c-4.584,0-8.312,3.732-8.312,8.322v19.525v68.83
				c0,4.588,3.728,8.322,8.312,8.322h75.797c4.582,0,8.311-3.734,8.311-8.322v-68.83v-19.525
				C271.335,176.358,267.606,172.626,263.024,172.626z"/>
			<path fill="#333333" d="M263.732,173.334h-75.797c-4.584,0-8.312,3.732-8.312,8.322v19.525v68.83
				c0,4.588,3.728,8.322,8.312,8.322h75.797c4.582,0,8.311-3.734,8.311-8.322v-68.83v-19.525
				C272.043,177.066,268.314,173.334,263.732,173.334z"/>
			<path fill="#333333" d="M264.439,174.042h-75.796c-4.584,0-8.313,3.732-8.313,8.322v19.525v68.83
				c0,4.588,3.729,8.321,8.313,8.321h75.796c4.583,0,8.312-3.733,8.312-8.321v-68.83v-19.525
				C272.751,177.774,269.022,174.042,264.439,174.042z"/>
			<path fill="#333333" d="M265.147,174.749h-75.797c-4.584,0-8.312,3.732-8.312,8.322v19.525v68.83
				c0,4.588,3.728,8.322,8.312,8.322h75.797c4.582,0,8.311-3.734,8.311-8.322v-68.83v-19.525
				C273.458,178.481,269.729,174.749,265.147,174.749z"/>
			<path fill="#333333" d="M265.855,175.457h-75.797c-4.584,0-8.312,3.732-8.312,8.322v19.525v68.83
				c0,4.588,3.728,8.322,8.312,8.322h75.797c4.582,0,8.311-3.734,8.311-8.322v-68.83v-19.525
				C274.166,179.189,270.438,175.457,265.855,175.457z"/>
			<path fill="#333333" d="M266.563,176.164h-75.796c-4.584,0-8.312,3.732-8.312,8.322v19.526v68.83
				c0,4.588,3.728,8.322,8.312,8.322h75.796c4.583,0,8.311-3.734,8.311-8.322v-68.83v-19.526
				C274.873,179.896,271.146,176.164,266.563,176.164z"/>
			<path fill="#333333" d="M267.271,176.872h-75.797c-4.585,0-8.313,3.732-8.313,8.322v19.525v68.83
				c0,4.588,3.728,8.322,8.313,8.322h75.797c4.581,0,8.31-3.734,8.31-8.322v-68.83v-19.525
				C275.581,180.604,271.853,176.872,267.271,176.872z"/>
			<path fill="#333333" d="M267.979,177.58h-75.797c-4.584,0-8.312,3.732-8.312,8.322v19.525v68.83c0,4.588,3.728,8.322,8.312,8.322
				h75.797c4.582,0,8.311-3.734,8.311-8.322v-68.83v-19.525C276.289,181.313,272.561,177.58,267.979,177.58z"/>
			<path fill="#333333" d="M268.687,178.288H192.89c-4.584,0-8.313,3.732-8.313,8.321v19.526v68.83c0,4.587,3.729,8.321,8.313,8.321
				h75.797c4.582,0,8.311-3.734,8.311-8.321v-68.83v-19.526C276.997,182.021,273.269,178.288,268.687,178.288z"/>
			<path fill="#333333" d="M269.395,178.995h-75.798c-4.584,0-8.312,3.733-8.312,8.322v19.526v68.83
				c0,4.588,3.728,8.322,8.312,8.322h75.798c4.581,0,8.311-3.734,8.311-8.322v-68.83v-19.526
				C277.705,182.729,273.976,178.995,269.395,178.995z"/>
			<path fill="#333333" d="M270.102,179.703h-75.797c-4.584,0-8.312,3.732-8.312,8.322v19.525v68.83
				c0,4.588,3.728,8.322,8.312,8.322h75.797c4.582,0,8.311-3.734,8.311-8.322v-68.83v-19.525
				C278.412,183.436,274.684,179.703,270.102,179.703z"/>
			<path fill="#333333" d="M270.81,180.411h-75.797c-4.584,0-8.312,3.732-8.312,8.322v19.525v68.83c0,4.588,3.728,8.322,8.312,8.322
				h75.797c4.582,0,8.311-3.734,8.311-8.322v-68.83v-19.525C279.12,184.144,275.392,180.411,270.81,180.411z"/>
			<path fill="#333333" d="M271.518,181.119H195.72c-4.583,0-8.312,3.731-8.312,8.321v19.526v68.83c0,4.587,3.729,8.321,8.312,8.321
				h75.798c4.581,0,8.31-3.734,8.31-8.321v-68.83V189.44C279.827,184.851,276.099,181.119,271.518,181.119z"/>
			<path fill="#333333" d="M272.225,181.826h-75.797c-4.584,0-8.312,3.732-8.312,8.322v19.525v68.83
				c0,4.588,3.728,8.322,8.312,8.322h75.797c4.582,0,8.311-3.734,8.311-8.322v-68.83v-19.525
				C280.535,185.559,276.807,181.826,272.225,181.826z"/>
			<path fill="#333333" d="M272.933,182.534h-75.797c-4.584,0-8.312,3.732-8.312,8.322v19.525v68.83
				c0,4.588,3.728,8.322,8.312,8.322h75.797c4.582,0,8.311-3.734,8.311-8.322v-68.83v-19.525
				C281.243,186.267,277.515,182.534,272.933,182.534z"/>
			<path fill="#333333" d="M273.641,183.241h-75.798c-4.583,0-8.311,3.733-8.311,8.322v19.526v68.829
				c0,4.589,3.728,8.323,8.311,8.323h75.798c4.581,0,8.311-3.734,8.311-8.323V211.09v-19.526
				C281.951,186.975,278.222,183.241,273.641,183.241z"/>
			<path fill="#333333" d="M274.348,183.949h-75.797c-4.584,0-8.312,3.732-8.312,8.322v19.525v68.83
				c0,4.588,3.728,8.323,8.312,8.323h75.797c4.582,0,8.311-3.735,8.311-8.323v-68.83v-19.525
				C282.658,187.682,278.93,183.949,274.348,183.949z"/>
			<path fill="#333333" d="M275.056,184.657h-75.797c-4.584,0-8.312,3.732-8.312,8.322v19.525v68.829
				c0,4.589,3.728,8.323,8.312,8.323h75.797c4.582,0,8.311-3.734,8.311-8.323v-68.829v-19.525
				C283.366,188.39,279.638,184.657,275.056,184.657z"/>
			<path fill="#333333" d="M275.764,185.364h-75.797c-4.584,0-8.313,3.732-8.313,8.323v19.525v68.83
				c0,4.588,3.729,8.322,8.313,8.322h75.797c4.582,0,8.311-3.734,8.311-8.322v-68.83v-19.525
				C284.074,189.097,280.346,185.364,275.764,185.364z"/>
			<path fill="#333333" d="M276.471,186.073h-75.797c-4.583,0-8.312,3.731-8.312,8.322v19.525v68.829
				c0,4.588,3.729,8.322,8.312,8.322h75.797c4.582,0,8.311-3.734,8.311-8.322v-68.829v-19.525
				C284.781,189.805,281.053,186.073,276.471,186.073z"/>
			<path fill="#333333" d="M277.179,186.78h-75.797c-4.584,0-8.312,3.732-8.312,8.322v19.525v68.83c0,4.588,3.728,8.322,8.312,8.322
				h75.797c4.582,0,8.311-3.734,8.311-8.322v-68.83v-19.525C285.489,190.513,281.761,186.78,277.179,186.78z"/>
		</g>
	</g>
	<g>
		
			<path fill="#025061" stroke="#333333" stroke-width="2" stroke-linecap="round" stroke-linejoin="round" stroke-miterlimit="10" d="
			M39.79,129.178c0,4.044,3.273,7.322,7.312,7.322h75.797c4.038,0,7.312-3.278,7.312-7.322V60.349H39.79V129.178z"/>
		
			<path fill="#A0DAD7" stroke="#333333" stroke-width="2" stroke-linecap="round" stroke-linejoin="round" stroke-miterlimit="10" d="
			M122.898,33.5H47.102c-4.038,0-7.312,3.278-7.312,7.322v19.526h90.42V40.822C130.21,36.778,126.937,33.5,122.898,33.5z"/>
		
			<ellipse fill="#F2E085" stroke="#333333" stroke-width="2" stroke-linecap="round" stroke-linejoin="round" stroke-miterlimit="10" cx="85" cy="98.424" rx="30.343" ry="30.389"/>
		
			<ellipse fill="#FCAB55" stroke="#333333" stroke-width="2" stroke-linecap="round" stroke-linejoin="round" stroke-miterlimit="10" cx="102.139" cy="46.924" rx="5.329" ry="5.337"/>
		
			<ellipse fill="#FCAB55" stroke="#333333" stroke-width="2" stroke-linecap="round" stroke-linejoin="round" stroke-miterlimit="10" cx="117.271" cy="46.924" rx="5.329" ry="5.337"/>
		
			<rect x="49.075" y="92.383" fill="#FCAB55" stroke="#333333" stroke-width="2" stroke-linecap="round" stroke-linejoin="round" stroke-miterlimit="10" width="15.168" height="12.082"/>
		<g>
			
				<ellipse fill="#F2F2F2" stroke="#333333" stroke-width="2" stroke-linecap="round" stroke-linejoin="round" stroke-miterlimit="10" cx="85" cy="98.424" rx="21.85" ry="21.883"/>
			<path fill="none" stroke="#333333" stroke-width="2" stroke-linecap="round" stroke-linejoin="round" stroke-miterlimit="10" d="
				M63.335,95.565c3.456,0.087,3.518,2.624,7.095,2.624c3.641,0,3.641-2.627,7.281-2.627c3.643,0,3.643,2.627,7.284,2.627
				c3.641,0,3.641-2.627,7.281-2.627c3.644,0,3.644,2.627,7.287,2.627c3.58,0,3.643-2.537,7.102-2.624"/>
			<path fill="none" stroke="#333333" stroke-width="2" stroke-linecap="round" stroke-linejoin="round" stroke-miterlimit="10" d="
				M63.405,101.778c3.387,0.12,3.472,2.621,7.024,2.621c3.641,0,3.641-2.626,7.281-2.626c3.643,0,3.643,2.626,7.284,2.626
				c3.641,0,3.641-2.626,7.281-2.626c3.644,0,3.644,2.626,7.287,2.626c3.556,0,3.641-2.501,7.031-2.621"/>
			<path fill="none" stroke="#333333" stroke-width="2" stroke-linecap="round" stroke-linejoin="round" stroke-miterlimit="10" d="
				M65.623,108.543c1.489,0.771,2.249,2.067,4.807,2.067c3.641,0,3.641-2.626,7.281-2.626c3.643,0,3.643,2.626,7.284,2.626
				c3.641,0,3.641-2.626,7.281-2.626c3.644,0,3.644,2.626,7.287,2.626c2.563,0,3.322-1.298,4.815-2.069"/>
			<path fill="none" stroke="#333333" stroke-width="2" stroke-linecap="round" stroke-linejoin="round" stroke-miterlimit="10" d="
				M72.567,116.422c1.725-0.736,2.4-2.227,5.144-2.227c3.643,0,3.643,2.626,7.284,2.626c3.641,0,3.641-2.626,7.281-2.626
				c2.732,0,3.416,1.477,5.124,2.216"/>
		</g>
		
			<path fill="#FCAB55" stroke="#333333" stroke-width="2" stroke-linecap="round" stroke-linejoin="round" stroke-miterlimit="10" d="
			M76.417,54.038H50.982c-1.657,0-3-1.343-3-3v-8.227c0-1.657,1.343-3,3-3h25.435c1.657,0,3,1.343,3,3v8.227
			C79.417,52.694,78.074,54.038,76.417,54.038z"/>
		<path fill="none" stroke="#F2F2F2" stroke-width="2" stroke-linecap="round" stroke-linejoin="round" stroke-miterlimit="10" d="
			M51.978,46.765v2.473c0,0.552,0.447,1,1,1h14.905"/>
	</g>
</g>
</svg>
