<?xml version="1.0" encoding="utf-8"?>
<!-- Generator: Adobe Illustrator 16.0.0, SVG Export Plug-In . SVG Version: 6.00 Build 0)  -->
<!DOCTYPE svg PUBLIC "-//W3C//DTD SVG 1.1//EN" "http://www.w3.org/Graphics/SVG/1.1/DTD/svg11.dtd">
<svg version="1.1" xmlns="http://www.w3.org/2000/svg" xmlns:xlink="http://www.w3.org/1999/xlink" x="0px" y="0px" width="629px"
	 height="736px" viewBox="0 0 629 736" enable-background="new 0 0 629 736" xml:space="preserve">
<g id="Layer_1">
	<linearGradient id="SVGID_1_" gradientUnits="userSpaceOnUse" x1="258.2568" y1="336.6504" x2="57.7436" y2="-10.6486">
		<stop  offset="0" style="stop-color:#FFFFFF"/>
		<stop  offset="1" style="stop-color:#E8E900"/>
	</linearGradient>
	<path fill="url(#SVGID_1_)" d="M308,301c0,6.627-5.373,12-12,12H20c-6.627,0-12-5.373-12-12V25c0-6.627,5.373-12,12-12h276
		c6.627,0,12,5.373,12,12V301z"/>
	<linearGradient id="SVGID_2_" gradientUnits="userSpaceOnUse" x1="324.5156" y1="328.5156" x2="617.4857" y2="621.4857">
		<stop  offset="0" style="stop-color:#FFFFFF"/>
		<stop  offset="1" style="stop-color:#6AB2FF"/>
	</linearGradient>
	<path fill="url(#SVGID_2_)" d="M621,613c0,6.627-5.373,12-12,12H333c-6.627,0-12-5.373-12-12V337c0-6.627,5.373-12,12-12h276
		c6.627,0,12,5.373,12,12V613z"/>
	<linearGradient id="SVGID_3_" gradientUnits="userSpaceOnUse" x1="258.2568" y1="301.3501" x2="57.7435" y2="648.6493">
		<stop  offset="0" style="stop-color:#FFFFFF"/>
		<stop  offset="1" style="stop-color:#FF5BAF"/>
	</linearGradient>
	<path fill="url(#SVGID_3_)" d="M308,613c0,6.627-5.373,12-12,12H20c-6.627,0-12-5.373-12-12V337c0-6.627,5.373-12,12-12h276
		c6.627,0,12,5.373,12,12V613z"/>
	<linearGradient id="SVGID_4_" gradientUnits="userSpaceOnUse" x1="369.7441" y1="336.6504" x2="570.2573" y2="-10.6487">
		<stop  offset="0" style="stop-color:#FFFFFF"/>
		<stop  offset="1" style="stop-color:#3FFF5C"/>
	</linearGradient>
	<path fill="url(#SVGID_4_)" d="M620,301c0,6.627-5.373,12-12,12H332c-6.627,0-12-5.373-12-12V25c0-6.627,5.373-12,12-12h276
		c6.627,0,12,5.373,12,12V301z"/>
	<path fill="#757575" d="M621,714c0,6.627-5.373,12-12,12H20c-6.627,0-12-5.373-12-12v-66c0-6.627,5.373-12,12-12h589
		c6.627,0,12,5.373,12,12V714z"/>
	<g>
		<path fill="#FFFFFF" d="M16.234,648.662c-0.036-0.691,0.053-1.25,0.269-1.674c0.213-0.428,0.671-0.759,1.369-1
			c0.697-0.238,1.691-0.403,2.98-0.498c1.288-0.093,3.006-0.14,5.155-0.14c2.112,0,3.812,0.047,5.1,0.14
			c1.289,0.095,2.283,0.26,2.979,0.498c0.699,0.241,1.164,0.572,1.396,1c0.233,0.424,0.332,0.982,0.296,1.674l-2.201,56.7H47.59
			c0.931,0,1.655,0.06,2.175,0.179c0.52,0.12,0.894,0.319,1.126,0.598c0.233,0.28,0.376,0.658,0.431,1.139
			c0.053,0.478,0.081,1.078,0.081,1.795c0,0.719-0.028,1.316-0.081,1.797c-0.054,0.478-0.198,0.858-0.431,1.137
			c-0.232,0.277-0.606,0.478-1.126,0.598c-0.52,0.121-1.244,0.181-2.175,0.181H26.006c-1.647,0-2.962-0.027-3.947-0.081
			c-0.984-0.053-1.728-0.172-2.228-0.359c-0.501-0.186-0.832-0.459-0.993-0.816c-0.161-0.359-0.259-0.846-0.295-1.456
			L16.234,648.662z"/>
		<path fill="#FFFFFF" d="M58.973,667.734c0-0.557,0.081-1.029,0.24-1.414c0.162-0.388,0.547-0.687,1.156-0.9
			c0.608-0.211,1.494-0.364,2.658-0.459c1.163-0.093,2.711-0.139,4.644-0.139c1.933,0,3.481,0.046,4.644,0.139
			c1.165,0.095,2.049,0.248,2.657,0.459c0.609,0.214,0.994,0.513,1.155,0.9c0.161,0.385,0.242,0.857,0.242,1.414l-1.235,32.561
			c-0.036,1.169,0.142,2.127,0.536,2.873c0.394,0.745,0.922,1.336,1.585,1.774c0.662,0.44,1.404,0.747,2.228,0.918
			c0.824,0.174,1.665,0.26,2.524,0.26c1.539,0,2.917-0.246,4.134-0.737c1.217-0.494,2.29-1.046,3.221-1.655l-1.395-35.993
			c0-0.557,0.081-1.029,0.241-1.414c0.161-0.388,0.546-0.687,1.154-0.9c0.609-0.211,1.495-0.364,2.658-0.459
			c1.163-0.093,2.712-0.139,4.645-0.139c1.934,0,3.481,0.046,4.646,0.139c1.162,0.095,2.049,0.248,2.657,0.459
			c0.607,0.214,0.993,0.513,1.155,0.9c0.16,0.385,0.24,0.857,0.24,1.414l-1.664,42.775c0,0.506-0.09,0.904-0.269,1.196
			c-0.179,0.292-0.519,0.52-1.02,0.68c-0.501,0.157-1.208,0.265-2.121,0.317c-0.914,0.054-2.121,0.081-3.625,0.081
			c-1.396,0-2.514-0.027-3.356-0.081c-0.84-0.053-1.485-0.16-1.932-0.317c-0.447-0.16-0.751-0.388-0.913-0.68
			c-0.161-0.292-0.241-0.69-0.241-1.196l-0.108-1.876c-0.787,0.531-1.683,1.078-2.685,1.637c-1.002,0.557-2.138,1.058-3.409,1.496
			c-1.27,0.438-2.667,0.798-4.188,1.076c-1.521,0.28-3.195,0.419-5.02,0.419c-4.438,0-7.929-0.943-10.47-2.833
			c-2.542-1.888-3.884-4.668-4.027-8.339L58.973,667.734z"/>
		<path fill="#FFFFFF" d="M116.207,711.507c0-0.239,0.304-0.972,0.912-2.196l9.665-20.069l-11.811-20.108
			c-0.287-0.48-0.52-0.918-0.699-1.317c-0.179-0.398-0.268-0.744-0.268-1.036c0-0.427,0.106-0.772,0.321-1.039
			c0.215-0.267,0.618-0.466,1.209-0.599c0.59-0.132,1.378-0.22,2.362-0.26c0.984-0.039,2.264-0.06,3.838-0.06
			c1.934,0,3.472,0.027,4.619,0.081c1.144,0.053,2.04,0.164,2.683,0.338c0.646,0.175,1.11,0.42,1.398,0.737
			c0.286,0.32,0.536,0.745,0.75,1.278l6.604,16.839h0.752l6.497-16.839c0.214-0.533,0.464-0.958,0.751-1.278
			c0.287-0.317,0.752-0.563,1.396-0.737c0.645-0.174,1.539-0.285,2.684-0.338c1.146-0.054,2.685-0.081,4.618-0.081
			c1.539,0,2.809,0.021,3.813,0.06c1.002,0.04,1.798,0.128,2.389,0.26c0.591,0.133,0.994,0.332,1.208,0.599s0.323,0.612,0.323,1.039
			c0,0.292-0.09,0.638-0.269,1.036c-0.18,0.399-0.412,0.837-0.699,1.317l-11.811,20.108l9.664,20.069
			c0.609,1.146,0.913,1.876,0.913,2.196c0,0.267-0.081,0.484-0.242,0.658c-0.162,0.172-0.466,0.307-0.913,0.399
			c-0.448,0.093-1.1,0.152-1.959,0.179c-0.86,0.027-1.986,0.041-3.384,0.041c-1.396,0-2.514-0.027-3.355-0.081
			c-0.841-0.053-1.512-0.16-2.013-0.317c-0.501-0.16-0.887-0.388-1.155-0.68s-0.528-0.69-0.779-1.196l-7.678-15.842h-0.752
			l-7.785,15.842c-0.251,0.506-0.51,0.904-0.779,1.196s-0.654,0.52-1.155,0.68c-0.5,0.157-1.173,0.265-2.013,0.317
			c-0.842,0.054-1.96,0.081-3.356,0.081c-1.396,0-2.523-0.014-3.382-0.041c-0.858-0.026-1.513-0.086-1.959-0.179
			c-0.447-0.093-0.752-0.228-0.912-0.399C116.287,711.991,116.207,711.773,116.207,711.507z"/>
		<path fill="#FFFFFF" d="M172.718,693.411c-0.52-0.146-0.905-0.386-1.155-0.717c-0.251-0.334-0.402-0.772-0.457-1.317
			c-0.054-0.545-0.081-1.231-0.081-2.055c0-0.904,0.027-1.655,0.081-2.256c0.055-0.599,0.206-1.076,0.457-1.436
			c0.25-0.359,0.635-0.619,1.155-0.779c0.518-0.157,1.243-0.238,2.173-0.238h24.483c0.931,0,1.655,0.081,2.175,0.238
			c0.519,0.16,0.903,0.427,1.153,0.798c0.25,0.374,0.403,0.858,0.458,1.459c0.053,0.598,0.081,1.35,0.081,2.254
			c0,0.823-0.028,1.509-0.081,2.054c-0.054,0.545-0.207,0.986-0.458,1.317c-0.25,0.332-0.634,0.566-1.153,0.698
			c-0.52,0.132-1.245,0.199-2.175,0.199h-24.483C173.96,693.631,173.236,693.557,172.718,693.411z"/>
		<path fill="#FFFFFF" d="M215.91,676.474c-0.106-2.128,0.475-3.958,1.746-5.486c1.271-1.53,2.989-2.787,5.154-3.771
			c2.166-0.985,4.663-1.709,7.491-2.175s5.727-0.698,8.698-0.698c3.042,0,5.977,0.232,8.805,0.698
			c2.829,0.466,5.316,1.189,7.463,2.175c2.147,0.983,3.848,2.24,5.101,3.771c1.252,1.528,1.825,3.358,1.718,5.486l-0.537,12.408
			c-0.036,0.506-0.162,0.904-0.375,1.196c-0.215,0.295-0.608,0.52-1.181,0.68c-0.573,0.16-1.378,0.267-2.417,0.32
			c-1.039,0.053-2.38,0.079-4.026,0.079c-1.682,0-3.042-0.026-4.081-0.079c-1.038-0.054-1.843-0.16-2.416-0.32
			c-0.572-0.16-0.958-0.385-1.155-0.68c-0.197-0.292-0.313-0.69-0.349-1.196l-0.484-13.087c-0.036-1.118-0.206-2.022-0.51-2.713
			c-0.303-0.691-0.724-1.225-1.261-1.596c-0.537-0.373-1.163-0.619-1.879-0.737c-0.715-0.121-1.522-0.181-2.415-0.181
			c-0.896,0-1.701,0.06-2.417,0.181c-0.716,0.118-1.342,0.364-1.88,0.737c-0.537,0.371-0.958,0.904-1.262,1.596
			c-0.303,0.69-0.474,1.595-0.509,2.713l-1.074,26.295c-0.037,1.012,0.081,1.862,0.349,2.554c0.269,0.692,0.698,1.249,1.289,1.676
			s1.342,0.73,2.255,0.919c0.912,0.186,1.997,0.277,3.249,0.277c2.505,0,4.321-0.37,5.45-1.117c1.127-0.744,1.69-2.062,1.69-3.949
			v-1.238c0-0.503,0.09-0.923,0.268-1.257c0.18-0.331,0.529-0.598,1.048-0.798c0.52-0.199,1.261-0.338,2.228-0.419
			c0.967-0.079,2.254-0.118,3.866-0.118c1.574,0,2.846,0.039,3.813,0.118c0.965,0.081,1.708,0.22,2.228,0.419
			c0.519,0.2,0.868,0.46,1.047,0.779c0.179,0.318,0.269,0.73,0.269,1.236v0.958c0,2.101-0.627,3.862-1.88,5.286
			c-1.252,1.424-2.898,2.567-4.939,3.433c-2.04,0.864-4.367,1.481-6.979,1.854c-2.613,0.373-5.297,0.559-8.054,0.559
			c-2.793,0-5.478-0.192-8.055-0.579c-2.577-0.385-4.877-1.022-6.9-1.913c-2.021-0.893-3.659-2.068-4.912-3.531
			c-1.252-1.464-1.933-3.286-2.041-5.468L215.91,676.474z"/>
		<path fill="#FFFFFF" d="M274.004,646.906c0-0.559,0.081-1.029,0.242-1.416c0.162-0.386,0.546-0.685,1.153-0.897
			c0.609-0.214,1.496-0.366,2.66-0.46c1.163-0.092,2.71-0.139,4.644-0.139c1.933,0,3.48,0.047,4.644,0.139
			c1.163,0.094,2.05,0.246,2.658,0.46c0.609,0.213,0.994,0.512,1.154,0.897c0.161,0.387,0.242,0.857,0.242,1.416l-1.664,63.604
			c0,0.506-0.09,0.904-0.269,1.196s-0.519,0.52-1.02,0.68c-0.5,0.157-1.208,0.265-2.121,0.317c-0.913,0.054-2.121,0.081-3.624,0.081
			c-1.504,0-2.711-0.027-3.624-0.081c-0.913-0.053-1.612-0.16-2.094-0.317c-0.484-0.16-0.814-0.388-0.994-0.68
			c-0.181-0.292-0.269-0.69-0.269-1.196L274.004,646.906z"/>
		<path fill="#FFFFFF" d="M304.395,676.474c-0.108-2.128,0.492-3.958,1.799-5.486c1.304-1.53,3.059-2.787,5.261-3.771
			c2.201-0.985,4.725-1.709,7.568-2.175c2.846-0.466,5.755-0.698,8.727-0.698c2.829,0,5.602,0.232,8.322,0.698
			c2.72,0.466,5.136,1.189,7.247,2.175c2.113,0.983,3.785,2.24,5.02,3.771c1.235,1.528,1.801,3.358,1.693,5.486l-0.805,14.723
			c-0.037,0.506-0.153,0.904-0.35,1.198c-0.197,0.293-0.563,0.518-1.101,0.678s-1.298,0.267-2.282,0.32
			c-0.985,0.053-2.281,0.078-3.893,0.078h-20.939l-0.322,8.619c-0.036,1.012,0.1,1.862,0.403,2.554
			c0.305,0.692,0.759,1.249,1.369,1.676c0.607,0.427,1.359,0.73,2.253,0.919c0.897,0.186,1.917,0.277,3.063,0.277
			c2.289,0,3.973-0.37,5.045-1.117c1.075-0.744,1.612-2.062,1.612-3.949v-1.238c0-0.503,0.088-0.923,0.269-1.257
			c0.179-0.331,0.527-0.598,1.045-0.798c0.52-0.199,1.262-0.338,2.23-0.419c0.966-0.079,2.253-0.118,3.865-0.118
			c1.575,0,2.844,0.039,3.811,0.118c0.969,0.081,1.711,0.22,2.23,0.419c0.518,0.2,0.858,0.46,1.018,0.779
			c0.161,0.318,0.242,0.73,0.242,1.236v1.756c0,2.103-0.608,3.818-1.824,5.147c-1.217,1.331-2.82,2.381-4.807,3.151
			c-1.985,0.771-4.259,1.305-6.819,1.598c-2.56,0.292-5.179,0.438-7.863,0.438c-2.722,0-5.369-0.192-7.947-0.579
			c-2.579-0.385-4.876-1.022-6.901-1.913c-2.021-0.893-3.668-2.068-4.938-3.531c-1.27-1.464-1.959-3.286-2.068-5.468
			L304.395,676.474z M334.086,687.486l-0.537-11.691c-0.036-1.118-0.207-2.022-0.512-2.713c-0.301-0.691-0.715-1.225-1.233-1.596
			c-0.52-0.373-1.127-0.619-1.825-0.737c-0.7-0.121-1.44-0.181-2.229-0.181c-0.896,0-1.718,0.06-2.472,0.181
			c-0.749,0.118-1.403,0.364-1.957,0.737c-0.557,0.371-1.003,0.904-1.343,1.596c-0.34,0.69-0.527,1.595-0.563,2.713l-0.483,11.691
			H334.086z"/>
		<path fill="#FFFFFF" d="M361.308,701.172c-0.038-1.488,0.394-2.799,1.289-3.931c0.896-1.129,2.05-2.121,3.461-2.973
			c1.415-0.851,3.017-1.574,4.804-2.173c1.793-0.601,3.564-1.11,5.319-1.537c2.253-0.559,4.643-1.036,7.168-1.436
			c2.523-0.398,4.983-0.746,7.381-1.039l-0.483-13.208c-0.071-1.461-0.564-2.546-1.477-3.251c-0.911-0.705-2.354-1.057-4.322-1.057
			c-0.931,0-1.772,0.053-2.523,0.159c-0.752,0.107-1.404,0.32-1.96,0.638c-0.555,0.32-0.991,0.759-1.315,1.317
			c-0.322,0.559-0.501,1.277-0.537,2.154l-0.376,9.058c0,0.505-0.098,0.906-0.295,1.198s-0.581,0.518-1.154,0.678
			c-0.571,0.159-1.387,0.267-2.443,0.319c-1.055,0.054-2.46,0.079-4.215,0.079c-1.61,0-2.916-0.025-3.919-0.079
			c-1.003-0.053-1.771-0.16-2.308-0.319c-0.538-0.16-0.894-0.386-1.073-0.678c-0.181-0.292-0.288-0.693-0.324-1.198l-0.43-8.499
			c-0.07-1.409,0.251-2.666,0.967-3.771c0.715-1.104,1.691-2.062,2.926-2.873c1.237-0.812,2.648-1.495,4.244-2.055
			c1.591-0.559,3.256-1.018,4.991-1.377c1.737-0.359,3.463-0.609,5.181-0.758c1.721-0.146,3.295-0.219,4.726-0.219
			c3.077,0,6.004,0.26,8.778,0.777c2.772,0.52,5.2,1.271,7.275,2.256c2.076,0.983,3.714,2.187,4.915,3.61
			c1.198,1.422,1.762,3.052,1.688,4.889l-1.664,34.634c-0.034,0.506-0.134,0.904-0.295,1.196s-0.491,0.52-0.991,0.68
			c-0.503,0.157-1.21,0.265-2.123,0.317c-0.913,0.054-2.121,0.081-3.624,0.081c-1.396,0-2.515-0.027-3.356-0.081
			c-0.844-0.053-1.485-0.16-1.931-0.317c-0.448-0.16-0.754-0.388-0.913-0.68c-0.163-0.292-0.243-0.69-0.243-1.196l-0.052-1.398
			c-0.969,0.533-2.025,1.046-3.168,1.537c-1.146,0.492-2.364,0.931-3.652,1.317c-1.289,0.385-2.658,0.698-4.107,0.937
			c-1.45,0.239-2.963,0.359-4.537,0.359c-2.507,0-4.708-0.259-6.603-0.778c-1.898-0.518-3.482-1.223-4.752-2.115
			c-1.273-0.891-2.228-1.94-2.874-3.151c-0.643-1.21-0.983-2.507-1.019-3.891L361.308,701.172z M376.018,702.13
			c0,0.798,0.163,1.483,0.483,2.054c0.322,0.573,0.753,1.039,1.288,1.398c0.537,0.357,1.174,0.624,1.906,0.798
			c0.734,0.172,1.532,0.26,2.39,0.26c2.076,0,3.865-0.253,5.371-0.759c1.501-0.505,2.79-1.092,3.861-1.755l-0.372-10.256
			c-1.933,0.238-3.636,0.513-5.103,0.818s-2.774,0.645-3.919,1.018c-1.789,0.612-3.22,1.282-4.294,2.016
			c-1.073,0.73-1.612,1.681-1.612,2.852V702.13z"/>
		<path fill="#FFFFFF" d="M420.26,667.734c0-0.557,0.08-1.029,0.241-1.414c0.161-0.388,0.52-0.687,1.074-0.9
			c0.554-0.211,1.379-0.364,2.47-0.459c1.093-0.093,2.551-0.139,4.374-0.139c1.827,0,3.284,0.046,4.376,0.139
			c1.093,0.095,1.917,0.248,2.472,0.459c0.554,0.214,0.913,0.513,1.073,0.9c0.161,0.385,0.242,0.857,0.242,1.414l-0.107,2.435
			c1.003-0.851,2.03-1.63,3.087-2.333c1.057-0.704,2.185-1.316,3.383-1.836s2.479-0.926,3.837-1.218
			c1.359-0.292,2.848-0.438,4.459-0.438c2.182,0,4.213,0.293,6.092,0.877c1.881,0.587,3.492,1.438,4.834,2.556
			c1.342,1.115,2.378,2.472,3.114,4.069c0.732,1.596,1.064,3.404,0.993,5.426l-1.289,33.238c0,0.506-0.092,0.904-0.27,1.196
			c-0.179,0.292-0.518,0.52-1.019,0.68c-0.503,0.157-1.21,0.265-2.123,0.317c-0.911,0.054-2.118,0.081-3.622,0.081
			c-1.503,0-2.711-0.027-3.626-0.081c-0.911-0.053-1.61-0.16-2.092-0.317c-0.483-0.16-0.815-0.388-0.993-0.68
			c-0.181-0.292-0.269-0.69-0.269-1.196l-1.235-32.081c-0.036-1.036-0.217-1.901-0.537-2.593c-0.324-0.693-0.752-1.238-1.288-1.637
			c-0.539-0.398-1.172-0.677-1.908-0.837c-0.734-0.16-1.528-0.241-2.388-0.241c-1.361,0-2.56,0.28-3.599,0.839
			c-1.038,0.56-1.932,1.223-2.683,1.995l-1.343,34.555c0,0.506-0.09,0.904-0.271,1.196c-0.176,0.292-0.518,0.52-1.018,0.68
			c-0.501,0.157-1.209,0.265-2.121,0.317c-0.913,0.054-2.121,0.081-3.626,0.081c-1.502,0-2.71-0.027-3.621-0.081
			c-0.914-0.053-1.612-0.16-2.096-0.317c-0.483-0.16-0.814-0.388-0.995-0.68c-0.179-0.292-0.267-0.69-0.267-1.196L420.26,667.734z"
			/>
		<path fill="#FFFFFF" d="M479.105,702.728c-0.072-0.559-0.019-1.029,0.159-1.417c0.181-0.385,0.573-0.684,1.182-0.896
			c0.609-0.212,1.503-0.364,2.685-0.46c1.182-0.093,2.74-0.139,4.671-0.139c1.933,0,3.482,0.046,4.645,0.139
			c1.164,0.096,2.058,0.248,2.687,0.46c0.625,0.213,1.021,0.512,1.18,0.896c0.16,0.388,0.224,0.858,0.188,1.417l-0.591,7.782
			c-0.036,0.506-0.151,0.904-0.349,1.196c-0.195,0.292-0.581,0.52-1.154,0.68c-0.571,0.157-1.379,0.265-2.416,0.317
			c-1.036,0.054-2.432,0.081-4.188,0.081c-1.753,0-3.146-0.027-4.188-0.081c-1.038-0.053-1.833-0.16-2.39-0.317
			c-0.554-0.16-0.93-0.388-1.125-0.68c-0.198-0.292-0.314-0.69-0.352-1.196L479.105,702.728z"/>
		<path fill="#FFFFFF" d="M510.408,677.55c-0.073-1.913,0.267-3.683,1.019-5.306c0.751-1.623,1.852-3.019,3.302-4.189
			c1.449-1.172,3.194-2.083,5.234-2.734c2.041-0.651,4.313-0.977,6.819-0.977c1.503,0,2.899,0.146,4.188,0.438
			c1.288,0.292,2.47,0.659,3.543,1.097c1.074,0.441,2.031,0.926,2.871,1.457c0.844,0.533,1.566,1.038,2.176,1.516l-0.59-21.945
			c0-0.559,0.08-1.029,0.241-1.416c0.161-0.386,0.545-0.685,1.154-0.897c0.61-0.214,1.494-0.366,2.658-0.46
			c1.163-0.092,2.711-0.139,4.646-0.139c1.932,0,3.479,0.047,4.643,0.139c1.164,0.094,2.048,0.246,2.656,0.46
			c0.609,0.213,0.997,0.512,1.156,0.897c0.161,0.387,0.241,0.857,0.241,1.416l-1.664,63.604c0,0.506-0.089,0.904-0.269,1.196
			c-0.179,0.292-0.518,0.52-1.021,0.68c-0.502,0.157-1.21,0.265-2.12,0.317c-0.913,0.054-2.121,0.081-3.623,0.081
			c-1.397,0-2.516-0.027-3.357-0.081c-0.842-0.053-1.486-0.16-1.933-0.317c-0.447-0.16-0.752-0.388-0.913-0.68
			s-0.241-0.69-0.241-1.196v-1.517c-0.752,0.506-1.62,1.011-2.604,1.517c-0.983,0.506-2.084,0.965-3.302,1.375
			c-1.216,0.413-2.541,0.747-3.974,1c-1.432,0.252-2.97,0.377-4.617,0.377c-2.326,0-4.41-0.238-6.255-0.719
			c-1.843-0.478-3.419-1.242-4.724-2.293c-1.308-1.051-2.337-2.421-3.089-4.111c-0.752-1.688-1.183-3.729-1.286-6.124
			L510.408,677.55z M526.193,700.015c-0.074,1.969,0.545,3.479,1.851,4.528c1.308,1.051,3.104,1.577,5.396,1.577
			c1.503,0,2.856-0.206,4.054-0.619c1.2-0.413,2.211-0.884,3.031-1.417l-0.804-29.446c-0.858-0.531-1.879-1.004-3.059-1.417
			c-1.183-0.41-2.381-0.617-3.599-0.617c-0.788,0-1.538,0.086-2.256,0.26c-0.715,0.172-1.35,0.452-1.905,0.838
			c-0.555,0.385-1.001,0.896-1.343,1.534c-0.341,0.641-0.527,1.41-0.563,2.314L526.193,700.015z"/>
		<path fill="#FFFFFF" d="M569.896,646.906c0-0.559,0.081-1.029,0.24-1.416c0.163-0.386,0.546-0.685,1.156-0.897
			c0.605-0.214,1.493-0.366,2.655-0.46c1.164-0.092,2.714-0.139,4.645-0.139c1.935,0,3.482,0.047,4.646,0.139
			c1.164,0.094,2.048,0.246,2.655,0.46c0.61,0.213,0.994,0.512,1.156,0.897c0.16,0.387,0.24,0.857,0.24,1.416l-1.662,63.604
			c0,0.506-0.091,0.904-0.269,1.196c-0.181,0.292-0.521,0.52-1.022,0.68c-0.498,0.157-1.206,0.265-2.119,0.317
			c-0.914,0.054-2.12,0.081-3.626,0.081c-1.501,0-2.709-0.027-3.624-0.081c-0.911-0.053-1.609-0.16-2.094-0.317
			c-0.483-0.16-0.813-0.388-0.991-0.68c-0.181-0.292-0.269-0.69-0.269-1.196L569.896,646.906z M589.655,691.157l8.052-23.74
			c0.181-0.56,0.432-1.005,0.752-1.338c0.322-0.332,0.814-0.592,1.477-0.777c0.663-0.188,1.574-0.313,2.738-0.38
			c1.164-0.065,2.657-0.1,4.483-0.1c1.649,0,2.972,0.021,3.975,0.06c1.001,0.04,1.761,0.128,2.282,0.26
			c0.518,0.133,0.857,0.332,1.019,0.599c0.163,0.267,0.243,0.612,0.243,1.039c0,0.292-0.073,0.631-0.217,1.016
			c-0.142,0.387-0.322,0.832-0.537,1.338l-9.877,22.024l9.019,18.153c0.609,1.225,0.914,1.957,0.914,2.196
			c0,0.267-0.08,0.484-0.241,0.658c-0.163,0.172-0.466,0.307-0.915,0.399c-0.446,0.093-1.099,0.152-1.96,0.179
			c-0.858,0.027-1.986,0.041-3.38,0.041c-1.396,0-2.517-0.027-3.356-0.081c-0.842-0.053-1.513-0.16-2.013-0.317
			c-0.503-0.16-0.889-0.388-1.155-0.68c-0.27-0.292-0.529-0.69-0.778-1.196L589.655,691.157z"/>
	</g>
</g>
<g id="Layer_2">
	<g>
		<g opacity="0.4">
			<path fill="#FFFFFF" d="M-82.334,555.821"/>
		</g>
		<g opacity="0.5">
			<g>
				<path fill="#FFFFFF" d="M404.264,450.749c0.066-2.869,1.043-5.557,2.702-7.865c0.845-1.177,1.87-2.254,3.037-3.208
					c3.431-2.798,8.109-4.526,13.266-4.526c2.996,0,5.833,0.586,8.354,1.625c1.107,0.455,2.152,1.002,3.127,1.624
					c1.294,0.825,2.463,1.78,3.468,2.852c0.399-1.107,0.919-2.175,1.539-3.198c0.409-0.672,0.876-1.319,1.373-1.949
					c4.538-5.752,11.394-9.6,21.841-9.6c9.225,0,17.313,3.852,21.851,9.608c0.501,0.636,0.972,1.29,1.384,1.972
					c0.613,1.012,1.126,2.07,1.519,3.166c0.992-1.055,2.144-1.998,3.416-2.816c0.981-0.631,2.034-1.186,3.154-1.648
					c2.064-0.854,4.342-1.397,6.744-1.57c0.028,1.375,0.061,2.748,0.101,4.121c-0.164,0.016-0.333,0.03-0.499,0.048
					c-7.351,0.766-14.856,7.93-14.856,7.93s-2.209-5.677-5.627-9.553c-0.61-0.69-1.268-1.351-1.99-1.963
					c-3.782-3.195-9.194-5.2-15.195-5.2c-5.994,0-11.183,0.797-15.186,5.194c-5.276,5.8-5.505,12.107-5.505,12.107
					c-4.032-3.201-10.372-7.813-17.249-8.551c-0.577-0.063-1.164-0.104-1.763-0.104c-2.257,0-4.385,0.465-6.271,1.271
					c-4.566,1.947-7.709,5.938-7.709,10.549v1.434C407.277,451.948,405.595,451.362,404.264,450.749z"/>
				<path fill="#FFFFFF" d="M513.713,438.12c0.806,0.484,1.566,1.015,2.273,1.594c1.271,1.043,2.365,2.235,3.247,3.541
					c1.426,2.111,2.296,4.518,2.435,7.084c-1.255,0.682-2.946,1.33-5.012,1.939v-1.215c0-2.631-1.028-5.06-2.756-7.023
					C513.828,442.066,513.768,440.094,513.713,438.12z"/>
				<g>
					<path fill="#FFFFFF" d="M409.677,436.603c0.253-18.079,19.354-32.729,42.812-32.729h15.045
						c23.613,0,42.825,14.844,42.825,33.091v42.597l-6.182-0.031v-42.565c0-15.612-16.439-28.315-36.644-28.315h-15.045
						c-18.633,0-34.05,10.805-36.336,24.729C413.604,433.853,411.486,435.034,409.677,436.603z"/>
				</g>
				<ellipse fill="#FFFFFF" cx="507.378" cy="486.174" rx="5.408" ry="4.179"/>
				<path fill="#FFFFFF" d="M524.338,451.349c0-0.616-0.339-1.219-0.958-1.803l-0.603-4.182c5.988,1.742,9.434,3.766,9.434,5.928
					v6.143c0,3.09-7.024,5.902-18.498,8.004v-8.371C520.498,455.449,524.338,453.478,524.338,451.349z"/>
				<path fill="#FFFFFF" d="M403.31,445.54l-0.941,3.466c-1.07,0.751-1.646,1.536-1.646,2.343c0,5.496,25.979,9.951,62.059,9.951
					c14.941,0,28.056-0.766,38.305-2.052v8.011c-10.95,1.231-24.072,1.949-38.188,1.949c-38.279,0-69.313-5.271-69.313-11.773
					v-6.143C393.586,449.202,396.308,446.744,403.31,445.54z"/>
				<g>
					<path fill="#FFFFFF" d="M462.898,474.439c14.112,0,27.239-0.718,38.188-1.948v9.532c-1.236,1.117-1.987,2.565-1.987,4.15
						c0,3.532,3.708,6.397,8.279,6.397s8.278-2.865,8.278-6.397c0-1.566-0.732-2.999-1.943-4.111v-11.394
						c7.781-1.426,13.518-3.178,16.398-5.123L518.08,505.53l-12.991,50.606c-85.233,0,0,0-41.854,0
						c-4.822,0,2.239-25.359,6.349-22.606v2.625v2.076v3.188l-6.349,14.717h-43.38l-24.446-90.794
						C402.549,470.556,430.046,474.439,462.898,474.439z"/>
				</g>
			</g>
		</g>
	</g>
	<path opacity="0.5" fill="#FFFFFF" d="M500.231,186.704"/>
	<g opacity="0.5">
		<path fill="#FFFFFF" d="M587.16,91.189c-0.392-1.057-1.439-1.663-2.484-1.438l-30.956,6.678c-0.625,0.135-1.16,0.549-1.471,1.139
			c-0.309,0.588-0.362,1.292-0.146,1.927l3.775,11.057c0.327,0.964,1.196,1.563,2.115,1.541c0.192-0.004,0.389-0.035,0.581-0.097
			l30.186-9.63c0.584-0.188,1.068-0.625,1.335-1.208c0.266-0.583,0.288-1.259,0.063-1.864L587.16,91.189z M559.288,106.903
			l-2.203-6.448l26.673-5.752l1.457,3.928L559.288,106.903z"/>
		<path fill="#FFFFFF" d="M390.431,195.563l145.125-0.458c0.014,0,0.03,0,0.044-0.001c0.383-0.008,0.758-0.125,1.084-0.334
			l31.661-20.442c0.856-0.552,1.246-1.649,0.949-2.668l-20.664-70.849c-0.274-0.945-1.081-1.604-2.01-1.646
			c-8.264-0.361-16.176-0.456-23.519-0.283c-36.695,0.867-52.163,8.197-57.382,11.568l-4.312-8.046
			c-0.533-0.997-1.665-1.438-2.673-1.038l-18.008,7.114c-0.688,0.271-1.199,0.895-1.363,1.654l-3.526,16.48
			c-20.103,10.763-31.918,27.965-38.317,40.592c-7.031,13.871-9.168,25.099-9.256,25.571c-0.126,0.685,0.043,1.395,0.461,1.935
			C389.146,195.254,389.772,195.566,390.431,195.563z M506.276,123.388c6.565-1.688,20.271,2.26,27.881,2.565l1.168,26.703
			l-13.556,14.72l-79.051,0.743c14.344-19.355,0,0,14.344-19.355c0.392-0.528,11.007-3.625,8.412-7.543l2.44-1.894l3.236-1.298
			l2.112-2.428c0.33,0.62,1.961-1.738,2.624-1.626"/>
		<path fill="#FFFFFF" d="M534.31,215.308l3.147-11.516c0.19-0.702,0.063-1.46-0.353-2.045c-0.415-0.586-1.063-0.93-1.751-0.93
			H389.209c-1.075,0-1.989,0.828-2.162,1.958l-1.748,11.514c-0.102,0.672,0.079,1.36,0.495,1.88
			c0.416,0.518,1.026,0.816,1.667,0.816h144.746C533.182,216.986,534.038,216.302,534.31,215.308z M390.033,212.333l1.041-6.861
			h141.362l-1.876,6.861H390.033z"/>
		<path fill="#FFFFFF" d="M535.325,152.657l-0.634-25.251c-0.025-0.986-0.633-1.851-1.516-2.157
			c-0.315-0.11-7.861-2.686-19.46-2.411c-18.786,0.443-46.321,8.232-70.806,42.818c-0.503,0.713-0.577,1.669-0.191,2.464
			c0.385,0.794,1.164,1.286,2.004,1.267l76.195-1.802c0.548-0.013,1.07-0.241,1.465-0.646l12.275-12.549
			C535.099,153.937,535.341,153.308,535.325,152.657z M530.919,151.739l-10.969,11.216l-70.72,1.672
			c22.694-29.852,47.493-36.734,64.603-37.139c7.939-0.188,13.898,1.069,16.521,1.754L530.919,151.739z"/>
		<path fill="#FFFFFF" d="M507.156,150.099l-27.612,0.652c-1.209,0.029-2.163,1.096-2.131,2.38l0.214,8.541
			c0.032,1.284,1.04,2.302,2.248,2.272l27.612-0.652c1.209-0.028,2.163-1.093,2.132-2.376l-0.216-8.542
			C509.372,151.091,508.366,150.071,507.156,150.099z M505.181,158.693l-23.232,0.548l-0.098-3.888l23.232-0.549L505.181,158.693z"
			/>
	</g>
	<path opacity="0.5" fill="#FFFFFF" d="M139.82,524.92c12.863,0,23.292,10.144,23.292,22.658c0,12.514-10.428,22.657-23.292,22.657
		s-23.291-10.144-23.291-22.657C116.53,535.063,126.957,524.92,139.82,524.92z M62.221,446.201c0-4.82,5.802-9.832,5.802-9.832
		l15.49,10.696c10.157-15.42,23.827-26.692,40.765-28.698c2.514-26.947,25.854-48.132,54.196-48.132
		c30.015,0,54.432,23.754,54.432,52.952v109.979h3.096v8.904h2.211l24.008,16.047v8.289h-74.941v-8.289l24.007-16.047h2.211v-8.904
		h4.111V423.188c0-20.992-17.557-38.07-39.135-38.07c-20.191,0-36.857,14.953-38.918,34.074
		c19.128,5.139,25.811,29.133,25.811,101.732c0,2.175-0.092,4.261-0.262,6.273c-6.031-7.068-15.125-11.579-25.285-11.579
		c-18.114,0-32.852,14.338-32.852,31.96c0,7.744,2.846,14.852,7.575,20.389c-0.671,0.013-1.34,0.027-2.023,0.027
		c-26.723,0-50.299-21.073-50.299-47.07c0-17.935,4.23-39.036,12.401-57.445C69.504,457.866,62.221,449.33,62.221,446.201z"/>
	<polygon opacity="0.5" fill="#FFFFFF" points="539.191,278.316 535.976,278.316 536.697,270.124 	"/>
	<polygon opacity="0.5" fill="#FFFFFF" points="532.211,278.316 529.638,278.316 530.77,274.54 	"/>
	<g opacity="0.5">
		<path fill="#FFFFFF" d="M152.518,120.911l-23.775,9.668c-5.745,2.335-8.425,8.691-5.987,14.195
			c2.439,5.505,25.944,17.053,25.944,17.053l39.465,81.186c1.792,4.043,3.694,7.139,7.914,5.423
			c4.218-1.716,3.215-5.179,1.426-9.221l-33.525-83.601c0,0,5.792-23.464,3.352-28.968
			C164.893,121.144,158.261,118.575,152.518,120.911z"/>
		<g>
			<path fill="#FFFFFF" d="M118.342,134.81c1.492,3.368-0.148,7.261-3.666,8.689c-3.517,1.433-7.578-0.142-9.071-3.51
				c-1.492-3.37,0.15-7.263,3.667-8.691C112.786,129.866,116.849,131.439,118.342,134.81z"/>
			<path fill="#FFFFFF" d="M175.652,111.502c1.493,3.369-0.149,7.26-3.665,8.692c-3.516,1.431-7.58-0.143-9.072-3.513
				c-1.492-3.371,0.15-7.263,3.666-8.693C170.099,106.559,174.159,108.133,175.652,111.502z"/>
		</g>
		<path fill="#FFFFFF" d="M125.446,120.878c-3.376,2.563,2.13,5.36-3.99,7.931c-6.12,2.569-15.786-9.638-24.847-2.753
			c-9.065,6.883-21.048,13.906-28.288,5.682c-7.238-8.227,5.557-17.944,22.024-17.977c16.468-0.031,3.638-6.091-7.717-8.278
			c-11.357-2.185-19.646-1.712-15.619-11.009c4.027-9.296,20.731-3.27,32.49,3.6c11.762,6.871,9.07-1.777-0.7-11.676
			C89.032,76.5,78.501,67.446,85.799,63.15c7.299-4.297,20.928,23.197,27.691,19.307c6.764-3.89-18.915-26.685-9.993-34.975
			c8.919-8.293,15.106,20.694,22.513,15.483c7.41-5.21-4.289-12.6,4.162-14.415c8.451-1.817,5.467,22.906,11.845,22.221
			c6.377-0.687-0.532-11.658,6.638-10.864c7.165,0.794,0.252,13.948,6.151,13.208c5.898-0.736,6.253-19.721,15.002-15.968
			c8.747,3.751-9.987,22.555-3.095,25.639c6.89,3.083,21.871-8.711,30.967,0.185c9.095,8.894-31.946,8.144-34.804,15.558
			c-3.257,8.451-0.841,11.643-8.413,14.206c-5.682,1.925-5.353-4.601-13.26-1.534c-6.831,2.649-1.833,7.299-5.401,9.305
			C129.831,123.866,128.824,118.313,125.446,120.878z"/>
		<path fill="#FFFFFF" d="M127.898,37.085c0.841,1.904-0.085,4.101-2.072,4.909c-1.985,0.809-4.278-0.079-5.122-1.982
			c-0.842-1.903,0.083-4.103,2.068-4.909C124.762,34.294,127.055,35.184,127.898,37.085z"/>
		<path fill="#FFFFFF" d="M151.802,50.873c0.746,1.684-0.074,3.631-1.831,4.347c-1.76,0.715-3.792-0.071-4.536-1.757
			c-0.748-1.686,0.074-3.631,1.832-4.346C149.026,48.402,151.054,49.188,151.802,50.873z"/>
		<path fill="#FFFFFF" d="M61.034,91.388c0.744,1.685-0.074,3.63-1.833,4.346c-1.76,0.717-3.791-0.07-4.536-1.756
			s0.074-3.63,1.833-4.345C58.255,88.917,60.287,89.703,61.034,91.388z"/>
		<path fill="#FFFFFF" d="M69.411,110.303c0.745,1.686-0.074,3.63-1.833,4.346c-1.759,0.715-3.788-0.071-4.533-1.757
			c-0.748-1.685,0.072-3.63,1.831-4.346C66.635,107.832,68.666,108.616,69.411,110.303z"/>
		<path fill="#FFFFFF" d="M184.831,68.885c1.093,2.472-0.109,5.323-2.688,6.374c-2.577,1.048-5.557-0.104-6.651-2.577
			c-1.096-2.472,0.108-5.324,2.688-6.372C180.758,65.26,183.737,66.413,184.831,68.885z"/>
		<path fill="#FFFFFF" d="M99.23,135.831c-0.889-2.008-3.307-2.946-5.405-2.092c-2.097,0.851-3.076,3.169-2.183,5.177
			c0.889,2.011,3.307,2.945,5.402,2.095C99.143,140.158,100.121,137.84,99.23,135.831z"/>
		<path fill="#FFFFFF" d="M183.536,97.255c-0.891-2.01-3.312-2.945-5.408-2.095c-2.096,0.854-3.074,3.173-2.182,5.182
			c0.888,2.008,3.308,2.943,5.405,2.092C183.447,101.581,184.425,99.263,183.536,97.255z"/>
		<path fill="#FFFFFF" d="M86.931,80.856c0.995,2.247-0.1,4.841-2.444,5.793c-2.346,0.955-5.053-0.094-6.048-2.34
			c-0.995-2.248,0.098-4.841,2.444-5.797C83.226,77.562,85.933,78.609,86.931,80.856z"/>
		<path fill="#FFFFFF" d="M82.665,57.655c0.994,2.246-0.1,4.84-2.444,5.793c-2.346,0.954-5.053-0.094-6.049-2.34
			c-0.994-2.247,0.101-4.841,2.444-5.794C78.961,54.361,81.67,55.409,82.665,57.655z"/>
	</g>
	<polyline fill="none" points="616.902,728.855 616.902,693.667 12.764,693.667 12.764,728.855 	"/>
</g>
</svg>
